<svg xmlns="http://www.w3.org/2000/svg" viewBox="0 0 64 64">
  <defs>
    <linearGradient id="bgGrad" x1="0%" y1="0%" x2="0%" y2="100%">
      <stop offset="0%" style="stop-color:#4a4a4a"/>
      <stop offset="100%" style="stop-color:#2a2a2a"/>
    </linearGradient>
    <linearGradient id="shine" x1="0%" y1="0%" x2="0%" y2="100%">
      <stop offset="0%" style="stop-color:#ffffff;stop-opacity:0.25"/>
      <stop offset="50%" style="stop-color:#ffffff;stop-opacity:0"/>
    </linearGradient>
  </defs>
  <rect x="0" y="0" width="64" height="64" rx="6" ry="6" fill="url(#bgGrad)"/>
  <path d="M0 6 Q0 0 6 0 L58 0 Q64 0 64 6 L64 28 Q32 36 0 28 Z" fill="url(#shine)"/>
  <!-- Axes -->
  <line x1="10" y1="52" x2="56" y2="52" stroke="#ffffff" stroke-width="2" stroke-linecap="round"/>
  <line x1="10" y1="52" x2="10" y2="12" stroke="#ffffff" stroke-width="2" stroke-linecap="round"/>
  <circle cx="10" cy="52" r="1" fill="#ffffff"/>
  <!-- Line with points -->
  <path d="M14 44 L24 28 L34 36 L44 20 L54 24" stroke="#b8e986" stroke-width="2" fill="none"/>
  <circle cx="14" cy="44" r="3" fill="#ff6b4a"/>
  <circle cx="24" cy="28" r="3" fill="#ff6b4a"/>
  <circle cx="34" cy="36" r="3" fill="#ff6b4a"/>
  <circle cx="44" cy="20" r="3" fill="#ff6b4a"/>
  <circle cx="54" cy="24" r="3" fill="#ff6b4a"/>
</svg>
