<svg xmlns="http://www.w3.org/2000/svg" viewBox="0 0 64 64">
  <defs>
    <linearGradient id="bgGrad" x1="0%" y1="0%" x2="0%" y2="100%">
      <stop offset="0%" style="stop-color:#4a4a4a"/>
      <stop offset="100%" style="stop-color:#2a2a2a"/>
    </linearGradient>
    <linearGradient id="shine" x1="0%" y1="0%" x2="0%" y2="100%">
      <stop offset="0%" style="stop-color:#ffffff;stop-opacity:0.25"/>
      <stop offset="50%" style="stop-color:#ffffff;stop-opacity:0"/>
    </linearGradient>
  </defs>
  <rect x="0" y="0" width="64" height="64" rx="6" ry="6" fill="url(#bgGrad)"/>
  <path d="M0 6 Q0 0 6 0 L58 0 Q64 0 64 6 L64 28 Q32 36 0 28 Z" fill="url(#shine)"/>
  <!-- Axes -->
  <line x1="12" y1="52" x2="52" y2="52" stroke="#ffffff" stroke-width="2" stroke-linecap="round" opacity="0.8"/>
  <line x1="12" y1="52" x2="12" y2="12" stroke="#ffffff" stroke-width="2" stroke-linecap="round" opacity="0.8"/>
  <!-- Line chart -->
  <polyline points="14,46 22,38 28,42 34,28 40,24 48,16" fill="none" stroke="#42a5f5" stroke-width="2.5" stroke-linecap="round" stroke-linejoin="round"/>
  <!-- Scatter dots -->
  <circle cx="14" cy="46" r="2" fill="#66bb6a"/>
  <circle cx="22" cy="38" r="2" fill="#66bb6a"/>
  <circle cx="28" cy="42" r="2" fill="#66bb6a"/>
  <circle cx="34" cy="28" r="2" fill="#66bb6a"/>
  <circle cx="40" cy="24" r="2" fill="#66bb6a"/>
  <circle cx="48" cy="16" r="2" fill="#66bb6a"/>
  <!-- AI sparkles -->
  <g transform="translate(54,12)">
    <polygon points="0,-7 1.5,-1.5 7,0 1.5,1.5 0,7 -1.5,1.5 -7,0 -1.5,-1.5" fill="#ffd54f" stroke="#ffb300" stroke-width="0.5"/>
  </g>
  <g transform="translate(56,32) scale(0.5)">
    <polygon points="0,-7 1.5,-1.5 7,0 1.5,1.5 0,7 -1.5,1.5 -7,0 -1.5,-1.5" fill="#ffd54f" stroke="#ffb300" stroke-width="0.5"/>
  </g>
  <g transform="translate(46,46) scale(0.35)">
    <polygon points="0,-7 1.5,-1.5 7,0 1.5,1.5 0,7 -1.5,1.5 -7,0 -1.5,-1.5" fill="#ffd54f" stroke="#ffb300" stroke-width="0.5"/>
  </g>
</svg>
