<svg xmlns="http://www.w3.org/2000/svg" viewBox="0 0 64 64">
  <defs>
    <linearGradient id="bgGrad" x1="0%" y1="0%" x2="0%" y2="100%">
      <stop offset="0%" style="stop-color:#4a4a4a"/>
      <stop offset="100%" style="stop-color:#2a2a2a"/>
    </linearGradient>
    <linearGradient id="shine" x1="0%" y1="0%" x2="0%" y2="100%">
      <stop offset="0%" style="stop-color:#ffffff;stop-opacity:0.25"/>
      <stop offset="50%" style="stop-color:#ffffff;stop-opacity:0"/>
    </linearGradient>
  </defs>
  <rect x="0" y="0" width="64" height="64" rx="6" ry="6" fill="url(#bgGrad)"/>
  <path d="M0 6 Q0 0 6 0 L58 0 Q64 0 64 6 L64 28 Q32 36 0 28 Z" fill="url(#shine)"/>
  <text x="32" y="14" fill="#ffb006" font-size="8" font-family="Arial" font-weight="bold" text-anchor="middle">NEXT</text>
  <!-- Acquisition function -->
  <path d="M8 48 Q16 44 24 50 Q32 56 40 40 Q48 24 56 32" stroke="#b8e986" stroke-width="2" fill="none"/>
  <!-- Existing points -->
  <circle cx="16" cy="46" r="3" fill="#ff6b4a"/>
  <circle cx="32" cy="52" r="3" fill="#ff6b4a"/>
  <!-- Next sample with arrow -->
  <circle cx="44" cy="32" r="4" fill="#ffeb3b" stroke="#fff" stroke-width="2"/>
  <line x1="44" y1="20" x2="44" y2="26" stroke="#ffeb3b" stroke-width="2"/>
  <polygon points="44,28 40,22 48,22" fill="#ffeb3b"/>
</svg>
