<svg xmlns="http://www.w3.org/2000/svg" viewBox="0 0 64 64">
  <defs>
    <linearGradient id="bgGrad" x1="0%" y1="0%" x2="0%" y2="100%">
      <stop offset="0%" style="stop-color:#4a4a4a"/>
      <stop offset="100%" style="stop-color:#2a2a2a"/>
    </linearGradient>
    <linearGradient id="shine" x1="0%" y1="0%" x2="0%" y2="100%">
      <stop offset="0%" style="stop-color:#ffffff;stop-opacity:0.25"/>
      <stop offset="50%" style="stop-color:#ffffff;stop-opacity:0"/>
    </linearGradient>
  </defs>
  <rect x="0" y="0" width="64" height="64" rx="6" ry="6" fill="url(#bgGrad)"/>
  <path d="M0 6 Q0 0 6 0 L58 0 Q64 0 64 6 L64 28 Q32 36 0 28 Z" fill="url(#shine)"/>
  <!-- Axes -->
  <g stroke="#ffb006" stroke-width="1.4" stroke-linecap="round">
    <line x1="10" y1="50" x2="10" y2="12"/>
    <line x1="10" y1="50" x2="56" y2="50"/>
    <path d="M10 12 L8 16"/>
    <path d="M10 12 L12 16"/>
    <path d="M56 50 L52 48"/>
    <path d="M56 50 L52 52"/>
  </g>
  <text x="51" y="59" fill="#ffb006" font-size="8" font-weight="bold" text-anchor="middle">X</text>
  <text x="4" y="20" fill="#ffb006" font-size="8" font-weight="bold" text-anchor="middle">Y</text>
  <!-- Training data -->
  <circle cx="14" cy="44" r="3" fill="#ff6b4a"/>
  <circle cx="22" cy="36" r="3" fill="#ff6b4a"/>
  <circle cx="30" cy="40" r="3" fill="#ff6b4a"/>
  <circle cx="38" cy="28" r="3" fill="#ff6b4a"/>
  <circle cx="46" cy="24" r="3" fill="#ff6b4a"/>
  <circle cx="54" cy="18" r="3" fill="#ff6b4a"/>
  <!-- Fitted curve -->
  <path d="M12 46 Q24 38 32 36 Q42 32 56 16" fill="none" stroke="#ffb006" stroke-width="2.5"/>
  <!-- FIT label -->
  <text x="32" y="60" fill="#ffb006" font-size="10" font-weight="bold" text-anchor="middle">FIT</text>
</svg>
