<svg width="145" height="20" viewBox="0 0 145 20" fill="none" xmlns="http://www.w3.org/2000/svg">
<path d="M106.142 0.760682C105.065 0.253951 103.253 0 100.706 0H72.8763V8.01484H43.6761V3.67351C43.6761 3.57494 43.7688 3.5007 43.9543 3.45087C44.1398 3.40154 44.3811 3.37662 44.6779 3.37662H66.5702V0H43.4905C40.9673 0 39.1677 0.25976 38.0916 0.779272C37.0156 1.29871 36.4775 2.01646 36.4775 2.93135V20H66.5702V16.6234H44.6779C44.3811 16.6234 44.1398 16.599 43.9543 16.5491C43.7688 16.4999 43.6761 16.4256 43.6761 16.3266V11.3543H72.8763V20H80.0748V3.37662H86.6798V20H93.9153V3.37662H99.5182C99.815 3.37662 100.056 3.40154 100.242 3.45087C100.427 3.5007 100.52 3.57494 100.52 3.67351V20H107.756V2.93135C107.756 1.99155 107.218 1.26799 106.142 0.760682Z" fill="#D80000"></path>
<path d="M1.68931 0.779279C0.613234 1.29871 0.0751953 2.01646 0.0751953 2.93135V17.0686C0.0751953 18.0584 0.613234 18.794 1.68931 19.2764C2.76538 19.7588 4.56501 20 7.0882 20H30.1679V8.01485H16.2532V11.3544H23.0064V16.6234H8.27555C7.97875 16.6234 7.73751 16.599 7.55199 16.5491C7.36647 16.4999 7.27371 16.4256 7.27371 16.3266V3.67351C7.27371 3.57494 7.36647 3.5007 7.55199 3.45087C7.73751 3.40154 7.97875 3.37662 8.27555 3.37662H30.1679V0H7.0882C4.56501 0 2.76538 0.25976 1.68931 0.779279Z" fill="#D80000"></path>
<path d="M127.672 0H123.153V4.48646H127.672V0Z" fill="#D80000"></path>
<path d="M135.083 0H130.526V4.45237H135.083V0Z" fill="#D80000"></path>
<path d="M136.986 0V16.2885C136.986 16.4867 136.64 16.5867 135.947 16.5867H122.254C121.957 16.5867 121.716 16.5557 121.532 16.4936C121.345 16.4316 121.252 16.3626 121.252 16.2885V0H114.055V20H137.134C139.682 20 141.487 19.7655 142.551 19.2949C143.614 18.8243 144.147 18.0692 144.147 17.0315V0H136.986Z" fill="#D80000"></path>
</svg>