<?xml version="1.0"?>


<svg version="1.1" id="Ebene_1" xmlns="http://www.w3.org/2000/svg" xmlns:xlink="http://www.w3.org/1999/xlink" x="0px" y="0px" width="199px" height="64px" viewBox="0 0 199 64" enable-background="new 0 0 199 64" xml:space="preserve">
<g>
&#x9;<g>
&#x9;&#x9;<defs>
&#x9;&#x9;&#x9;<rect id="SVGID_1_" x="-137.5" y="8.5" width="357.164" height="76.535"></rect>
&#x9;&#x9;</defs>
&#x9;&#x9;<clipPath id="SVGID_2_">
&#x9;&#x9;&#x9;<use xlink:href="#SVGID_1_" overflow="visible"></use>
&#x9;&#x9;</clipPath>
&#x9;&#x9;<path clip-path="url(#SVGID_2_)" fill="#004494" d="M32.112,8.5c7.703,3.397,14.031,9.787,17.474,17.475V8.5H32.112L32.112,8.5z&#xA;&#x9;&#x9;&#x9; M15.572,21.696V8.5c18.768,0,34.014,15.245,34.014,34.016H36.388C36.388,31.021,27.062,21.696,15.572,21.696 M15.572,25.792&#xA;&#x9;&#x9;&#x9;c9.229,0,16.719,7.493,16.719,16.723H15.572V25.792L15.572,25.792z"></path>
&#x9;</g>
&#x9;<g>
&#x9;&#x9;<path fill="#004494" d="M59.822,38.646v3.864h-1.801v-8.616h1.801v3.264h3.359v-3.264h1.801v8.616h-1.801v-3.864H59.822z"></path>
&#x9;&#x9;<path fill="#004494" d="M69.146,42.678c-0.928,0-1.705-0.286-2.328-0.858c-0.625-0.572-0.936-1.406-0.936-2.502&#xA;&#x9;&#x9;&#x9;s0.311-1.93,0.936-2.502c0.623-0.572,1.4-0.858,2.328-0.858s1.703,0.286,2.328,0.858c0.623,0.572,0.936,1.406,0.936,2.502&#xA;&#x9;&#x9;&#x9;s-0.313,1.93-0.936,2.502C70.85,42.392,70.074,42.678,69.146,42.678z M69.146,37.374c-0.576,0-0.977,0.194-1.201,0.582&#xA;&#x9;&#x9;&#x9;c-0.223,0.388-0.336,0.842-0.336,1.362c0,0.528,0.111,0.984,0.33,1.368c0.221,0.384,0.623,0.576,1.207,0.576&#xA;&#x9;&#x9;&#x9;c0.576,0,0.975-0.194,1.199-0.582c0.225-0.388,0.336-0.842,0.336-1.362c0-0.528-0.109-0.984-0.33-1.368&#xA;&#x9;&#x9;&#x9;C70.133,37.566,69.73,37.374,69.146,37.374z"></path>
&#x9;</g>
&#x9;<g>
&#x9;&#x9;<path fill="#004494" d="M78.961,40.182c-0.049,0.552-0.293,1.106-0.732,1.662c-0.441,0.556-1.168,0.834-2.184,0.834&#xA;&#x9;&#x9;&#x9;c-1.08,0-1.844-0.318-2.287-0.954c-0.443-0.636-0.666-1.378-0.666-2.226c0-1.088,0.25-1.95,0.75-2.586&#xA;&#x9;&#x9;&#x9;c0.5-0.636,1.27-0.954,2.311-0.954c0.695,0,1.34,0.186,1.932,0.558s0.889,1.002,0.889,1.89h-1.705&#xA;&#x9;&#x9;&#x9;c-0.064-0.36-0.197-0.622-0.402-0.786c-0.203-0.164-0.441-0.246-0.713-0.246c-0.473,0-0.813,0.186-1.02,0.558&#xA;&#x9;&#x9;&#x9;c-0.209,0.372-0.313,0.802-0.313,1.29c0,0.76,0.105,1.296,0.318,1.608c0.211,0.312,0.537,0.468,0.977,0.468&#xA;&#x9;&#x9;&#x9;c0.377,0,0.66-0.132,0.854-0.396c0.191-0.264,0.287-0.504,0.287-0.72H78.961z"></path>
&#x9;&#x9;<path fill="#004494" d="M85.607,42.51h-1.68v-3.876c0-0.36-0.064-0.66-0.191-0.9c-0.129-0.24-0.428-0.36-0.9-0.36&#xA;&#x9;&#x9;&#x9;c-0.383,0-0.699,0.128-0.947,0.384s-0.373,0.62-0.373,1.092v3.66h-1.68v-8.616h1.68v3.06c0.129-0.28,0.363-0.516,0.703-0.708&#xA;&#x9;&#x9;&#x9;c0.34-0.192,0.729-0.288,1.17-0.288c0.648,0,1.18,0.186,1.596,0.558s0.623,0.898,0.623,1.578V42.51z"></path>
&#x9;&#x9;<path fill="#004494" d="M90.48,38.07c-0.049-0.272-0.145-0.48-0.289-0.624c-0.143-0.144-0.424-0.216-0.84-0.216&#xA;&#x9;&#x9;&#x9;c-0.406,0-0.682,0.06-0.82,0.18c-0.141,0.12-0.211,0.268-0.211,0.444c0,0.248,0.418,0.464,1.254,0.648s1.502,0.392,1.998,0.624&#xA;&#x9;&#x9;&#x9;s0.744,0.684,0.744,1.356c0,0.816-0.295,1.386-0.883,1.71c-0.588,0.324-1.225,0.486-1.914,0.486c-0.855,0-1.582-0.172-2.178-0.516&#xA;&#x9;&#x9;&#x9;c-0.596-0.344-0.893-0.908-0.893-1.692h1.727c0,0.296,0.107,0.526,0.318,0.69c0.213,0.164,0.57,0.246,1.074,0.246&#xA;&#x9;&#x9;&#x9;c0.375,0,0.648-0.07,0.816-0.21s0.252-0.29,0.252-0.45c0-0.264-0.422-0.488-1.266-0.672c-0.846-0.184-1.504-0.388-1.98-0.612&#xA;&#x9;&#x9;&#x9;s-0.715-0.68-0.715-1.368c0-0.56,0.205-1.056,0.613-1.488c0.408-0.432,1.063-0.648,1.967-0.648c0.801,0,1.479,0.15,2.035,0.45&#xA;&#x9;&#x9;&#x9;c0.555,0.3,0.834,0.854,0.834,1.662H90.48z"></path>
&#x9;&#x9;<path fill="#004494" d="M98.736,40.182c-0.049,0.552-0.293,1.106-0.732,1.662s-1.168,0.834-2.184,0.834&#xA;&#x9;&#x9;&#x9;c-1.08,0-1.842-0.318-2.285-0.954c-0.445-0.636-0.666-1.378-0.666-2.226c0-1.088,0.25-1.95,0.75-2.586&#xA;&#x9;&#x9;&#x9;c0.5-0.636,1.27-0.954,2.309-0.954c0.697,0,1.34,0.186,1.934,0.558c0.592,0.372,0.887,1.002,0.887,1.89h-1.703&#xA;&#x9;&#x9;&#x9;c-0.064-0.36-0.199-0.622-0.402-0.786c-0.205-0.164-0.441-0.246-0.715-0.246c-0.471,0-0.811,0.186-1.02,0.558&#xA;&#x9;&#x9;&#x9;c-0.207,0.372-0.313,0.802-0.313,1.29c0,0.76,0.107,1.296,0.318,1.608c0.213,0.312,0.539,0.468,0.979,0.468&#xA;&#x9;&#x9;&#x9;c0.375,0,0.66-0.132,0.852-0.396c0.191-0.264,0.289-0.504,0.289-0.72H98.736z"></path>
&#x9;</g>
&#x9;<g>
&#x9;&#x9;<path fill="#004494" d="M105.51,42.51h-1.68v-3.876c0-0.36-0.064-0.66-0.193-0.9c-0.127-0.24-0.428-0.36-0.898-0.36&#xA;&#x9;&#x9;&#x9;c-0.385,0-0.701,0.128-0.949,0.384s-0.371,0.62-0.371,1.092v3.66h-1.68v-8.616h1.68v3.06c0.127-0.28,0.361-0.516,0.701-0.708&#xA;&#x9;&#x9;&#x9;c0.34-0.192,0.73-0.288,1.17-0.288c0.648,0,1.18,0.186,1.596,0.558s0.625,0.898,0.625,1.578V42.51z"></path>
&#x9;&#x9;<path fill="#004494" d="M112.229,42.51h-1.607v-0.9c-0.424,0.712-1.08,1.068-1.969,1.068c-0.664,0-1.191-0.196-1.584-0.588&#xA;&#x9;&#x9;&#x9;c-0.391-0.392-0.588-0.98-0.588-1.764v-4.2h1.68v3.96c0,0.448,0.104,0.756,0.307,0.924c0.205,0.168,0.467,0.252,0.787,0.252&#xA;&#x9;&#x9;&#x9;c0.344,0,0.645-0.112,0.904-0.336s0.391-0.596,0.391-1.116v-3.684h1.68V42.51z"></path>
&#x9;</g>
&#x9;<g>
&#x9;&#x9;<path fill="#004494" d="M115.162,42.51h-1.68v-8.616h1.68V42.51z"></path>
&#x9;&#x9;<path fill="#004494" d="M122.135,40.638c-0.209,0.712-0.57,1.23-1.086,1.554c-0.516,0.324-1.09,0.486-1.723,0.486&#xA;&#x9;&#x9;&#x9;c-0.984,0-1.76-0.272-2.328-0.816s-0.852-1.436-0.852-2.676c0-0.712,0.211-1.428,0.631-2.148c0.42-0.72,1.229-1.08,2.43-1.08&#xA;&#x9;&#x9;&#x9;c0.799,0,1.5,0.258,2.1,0.774c0.6,0.516,0.9,1.43,0.9,2.742v0.3h-4.381c0.057,0.56,0.205,0.96,0.445,1.2&#xA;&#x9;&#x9;&#x9;c0.238,0.24,0.592,0.36,1.055,0.36c0.248,0,0.475-0.06,0.678-0.18c0.205-0.12,0.338-0.292,0.402-0.516H122.135z M120.479,38.682&#xA;&#x9;&#x9;&#x9;c-0.039-0.472-0.186-0.814-0.438-1.026s-0.539-0.318-0.859-0.318c-0.391,0-0.695,0.116-0.91,0.348&#xA;&#x9;&#x9;&#x9;c-0.217,0.232-0.35,0.564-0.396,0.996H120.479z"></path>
&#x9;</g>
&#x9;<g>
&#x9;&#x9;<path fill="#004494" d="M131.807,33.894h1.68v8.616h-1.799l-3.516-6.144l-0.025,6.144h-1.68v-8.616l1.895,0.001l3.422,6.004&#xA;&#x9;&#x9;&#x9;L131.807,33.894z"></path>
&#x9;&#x9;<path fill="#004494" d="M136.451,35.37h-1.68v-1.56h1.68V35.37z M136.451,36.126v6.384h-1.68v-6.384H136.451z"></path>
&#x9;</g>
&#x9;<g>
&#x9;&#x9;<path fill="#004494" d="M143.424,40.638c-0.207,0.712-0.568,1.23-1.086,1.554c-0.516,0.324-1.09,0.486-1.721,0.486&#xA;&#x9;&#x9;&#x9;c-0.984,0-1.76-0.272-2.328-0.816s-0.852-1.436-0.852-2.676c0-0.712,0.209-1.428,0.629-2.148c0.42-0.72,1.23-1.08,2.43-1.08&#xA;&#x9;&#x9;&#x9;c0.801,0,1.5,0.258,2.1,0.774c0.602,0.516,0.9,1.43,0.9,2.742v0.3h-4.379c0.055,0.56,0.203,0.96,0.443,1.2&#xA;&#x9;&#x9;&#x9;c0.24,0.24,0.592,0.36,1.057,0.36c0.248,0,0.473-0.06,0.678-0.18c0.203-0.12,0.338-0.292,0.402-0.516H143.424z M141.77,38.682&#xA;&#x9;&#x9;&#x9;c-0.041-0.472-0.188-0.814-0.439-1.026s-0.537-0.318-0.857-0.318c-0.393,0-0.695,0.116-0.912,0.348&#xA;&#x9;&#x9;&#x9;c-0.217,0.232-0.348,0.564-0.396,0.996H141.77z"></path>
&#x9;&#x9;<path fill="#004494" d="M150.324,42.51h-1.645v-0.804c-0.199,0.336-0.463,0.582-0.791,0.738c-0.328,0.156-0.688,0.234-1.08,0.234&#xA;&#x9;&#x9;&#x9;c-0.889,0-1.559-0.332-2.01-0.996c-0.453-0.664-0.678-1.476-0.678-2.436c0-1.056,0.254-1.868,0.762-2.436&#xA;&#x9;&#x9;&#x9;c0.508-0.568,1.137-0.852,1.889-0.852c0.48,0,0.863,0.096,1.146,0.288c0.285,0.192,0.518,0.428,0.703,0.708l0.023-3.06h1.68V42.51&#xA;&#x9;&#x9;&#x9;z M147.229,41.298c0.496,0,0.867-0.176,1.115-0.528c0.248-0.352,0.373-0.788,0.373-1.308c0-0.592-0.107-1.082-0.324-1.47&#xA;&#x9;&#x9;&#x9;c-0.217-0.388-0.588-0.582-1.115-0.582c-0.496,0-0.859,0.184-1.088,0.552c-0.227,0.368-0.342,0.836-0.342,1.404&#xA;&#x9;&#x9;&#x9;c0,0.488,0.109,0.932,0.324,1.332C146.389,41.098,146.74,41.298,147.229,41.298z"></path>
&#x9;&#x9;<path fill="#004494" d="M157.188,40.638c-0.207,0.712-0.568,1.23-1.086,1.554c-0.516,0.324-1.09,0.486-1.721,0.486&#xA;&#x9;&#x9;&#x9;c-0.984,0-1.76-0.272-2.328-0.816s-0.852-1.436-0.852-2.676c0-0.712,0.209-1.428,0.629-2.148c0.42-0.72,1.23-1.08,2.43-1.08&#xA;&#x9;&#x9;&#x9;c0.801,0,1.5,0.258,2.1,0.774c0.602,0.516,0.9,1.43,0.9,2.742v0.3h-4.379c0.055,0.56,0.203,0.96,0.443,1.2&#xA;&#x9;&#x9;&#x9;c0.24,0.24,0.592,0.36,1.057,0.36c0.248,0,0.473-0.06,0.678-0.18c0.203-0.12,0.338-0.292,0.402-0.516H157.188z M155.533,38.682&#xA;&#x9;&#x9;&#x9;c-0.041-0.472-0.188-0.814-0.439-1.026s-0.537-0.318-0.857-0.318c-0.393,0-0.695,0.116-0.912,0.348&#xA;&#x9;&#x9;&#x9;c-0.217,0.232-0.348,0.564-0.396,0.996H155.533z"></path>
&#x9;&#x9;<path fill="#004494" d="M158.244,36.126h1.607v1.104c0.297-0.52,0.576-0.862,0.84-1.026c0.266-0.164,0.576-0.246,0.938-0.246&#xA;&#x9;&#x9;&#x9;h0.322v1.704c-0.07,0-0.143,0-0.215,0s-0.16,0-0.264,0c-0.592,0-0.998,0.144-1.219,0.432s-0.33,0.652-0.33,1.092v3.324h-1.68&#xA;&#x9;&#x9;&#x9;V36.126z"></path>
&#x9;&#x9;<path fill="#004494" d="M162.793,36.126h1.607v1.104c0.297-0.52,0.576-0.862,0.84-1.026c0.266-0.164,0.576-0.246,0.938-0.246&#xA;&#x9;&#x9;&#x9;h0.322v1.704c-0.07,0-0.143,0-0.215,0s-0.16,0-0.264,0c-0.592,0-0.998,0.144-1.219,0.432s-0.33,0.652-0.33,1.092v3.324h-1.68&#xA;&#x9;&#x9;&#x9;V36.126z"></path>
&#x9;&#x9;<path fill="#004494" d="M173.125,42.51h-1.68v-3.876c0-0.36-0.064-0.66-0.193-0.9c-0.127-0.24-0.428-0.36-0.898-0.36&#xA;&#x9;&#x9;&#x9;c-0.385,0-0.701,0.128-0.949,0.384s-0.371,0.62-0.371,1.092v3.66h-1.68v-8.616h1.68v3.06c0.127-0.28,0.361-0.516,0.701-0.708&#xA;&#x9;&#x9;&#x9;c0.34-0.192,0.73-0.288,1.17-0.288c0.648,0,1.18,0.186,1.596,0.558s0.625,0.898,0.625,1.578V42.51z"></path>
&#x9;&#x9;<path fill="#004494" d="M180.049,40.638c-0.209,0.712-0.57,1.23-1.086,1.554c-0.516,0.324-1.09,0.486-1.723,0.486&#xA;&#x9;&#x9;&#x9;c-0.984,0-1.76-0.272-2.328-0.816s-0.852-1.436-0.852-2.676c0-0.712,0.211-1.428,0.631-2.148c0.42-0.72,1.229-1.08,2.43-1.08&#xA;&#x9;&#x9;&#x9;c0.799,0,1.5,0.258,2.1,0.774c0.6,0.516,0.9,1.43,0.9,2.742v0.3h-4.381c0.057,0.56,0.205,0.96,0.445,1.2&#xA;&#x9;&#x9;&#x9;c0.238,0.24,0.592,0.36,1.055,0.36c0.248,0,0.475-0.06,0.678-0.18c0.205-0.12,0.338-0.292,0.402-0.516H180.049z M178.393,38.682&#xA;&#x9;&#x9;&#x9;c-0.039-0.472-0.186-0.814-0.438-1.026s-0.539-0.318-0.859-0.318c-0.391,0-0.695,0.116-0.91,0.348&#xA;&#x9;&#x9;&#x9;c-0.217,0.232-0.35,0.564-0.396,0.996H178.393z"></path>
&#x9;&#x9;<path fill="#004494" d="M182.844,35.37h-1.68v-1.56h1.68V35.37z M182.844,36.126v6.384h-1.68v-6.384H182.844z"></path>
&#x9;</g>
&#x9;<g>
&#x9;&#x9;<path fill="#004494" d="M189.51,42.51h-1.68v-3.876c0-0.36-0.064-0.66-0.193-0.9c-0.127-0.24-0.428-0.36-0.898-0.36&#xA;&#x9;&#x9;&#x9;c-0.385,0-0.701,0.128-0.949,0.384s-0.371,0.62-0.371,1.092v3.66h-1.68v-6.384h1.607v0.936c0.271-0.408,0.563-0.694,0.869-0.858&#xA;&#x9;&#x9;&#x9;c0.309-0.164,0.666-0.246,1.074-0.246c0.648,0,1.18,0.186,1.596,0.558s0.625,0.898,0.625,1.578V42.51z"></path>
&#x9;</g>
&#x9;<g>
&#x9;&#x9;<path fill="#009EE0" d="M62.404,51.955c0,0.69-0.191,1.2-0.578,1.53c-0.385,0.33-0.93,0.495-1.635,0.495&#xA;&#x9;&#x9;&#x9;c-0.314,0-0.623-0.048-0.926-0.143s-0.578-0.282-0.828-0.563s-0.375-0.697-0.375-1.253v-3.569h1.146v3.495&#xA;&#x9;&#x9;&#x9;c0,0.354,0.09,0.623,0.27,0.806c0.182,0.183,0.41,0.274,0.691,0.274c0.375,0,0.65-0.088,0.824-0.263&#xA;&#x9;&#x9;&#x9;c0.176-0.175,0.264-0.431,0.264-0.766v-3.547h1.146V51.955z"></path>
&#x9;&#x9;<path fill="#009EE0" d="M67.016,53.838h-1.049v-2.423c0-0.225-0.041-0.412-0.121-0.563c-0.08-0.149-0.268-0.225-0.563-0.225&#xA;&#x9;&#x9;&#x9;c-0.24,0-0.438,0.08-0.592,0.24s-0.232,0.388-0.232,0.683v2.287h-1.051v-3.99h1.006v0.585c0.17-0.255,0.352-0.434,0.543-0.536&#xA;&#x9;&#x9;&#x9;c0.193-0.103,0.416-0.153,0.672-0.153c0.404,0,0.738,0.116,0.998,0.349s0.389,0.562,0.389,0.986V53.838z"></path>
&#x9;&#x9;<path fill="#009EE0" d="M69.057,49.375h-1.049V48.4h1.049V49.375z M69.057,49.848v3.99h-1.049v-3.99H69.057z"></path>
&#x9;&#x9;<path fill="#009EE0" d="M72.191,53.838H71.09l-1.434-3.99h1.17l0.826,2.94l0.861-2.94h1.117L72.191,53.838z"></path>
&#x9;&#x9;<path fill="#009EE0" d="M77.629,52.668c-0.129,0.445-0.355,0.769-0.678,0.971c-0.322,0.203-0.682,0.305-1.076,0.305&#xA;&#x9;&#x9;&#x9;c-0.615,0-1.102-0.17-1.455-0.511c-0.355-0.34-0.533-0.897-0.533-1.672c0-0.445,0.131-0.893,0.395-1.343&#xA;&#x9;&#x9;&#x9;c0.262-0.45,0.768-0.675,1.518-0.675c0.5,0,0.938,0.161,1.313,0.483s0.563,0.894,0.563,1.714v0.188h-2.736&#xA;&#x9;&#x9;&#x9;c0.035,0.35,0.127,0.6,0.277,0.75s0.369,0.225,0.66,0.225c0.154,0,0.295-0.037,0.424-0.112c0.127-0.075,0.211-0.183,0.25-0.322&#xA;&#x9;&#x9;&#x9;H77.629z M76.594,51.445c-0.025-0.295-0.115-0.509-0.273-0.642c-0.156-0.132-0.336-0.198-0.535-0.198&#xA;&#x9;&#x9;&#x9;c-0.246,0-0.436,0.072-0.57,0.218c-0.135,0.145-0.219,0.353-0.248,0.622H76.594z"></path>
&#x9;&#x9;<path fill="#009EE0" d="M78.35,49.848h1.006v0.69c0.184-0.325,0.359-0.539,0.523-0.642c0.166-0.103,0.361-0.153,0.586-0.153h0.203&#xA;&#x9;&#x9;&#x9;v1.064c-0.045,0-0.092,0-0.137,0s-0.1,0-0.164,0c-0.371,0-0.623,0.09-0.762,0.271c-0.137,0.18-0.205,0.407-0.205,0.683v2.077&#xA;&#x9;&#x9;&#x9;H78.35V49.848z"></path>
&#x9;&#x9;<path fill="#009EE0" d="M83.518,51.063c-0.031-0.17-0.09-0.3-0.18-0.39c-0.092-0.09-0.266-0.135-0.525-0.135&#xA;&#x9;&#x9;&#x9;c-0.256,0-0.428,0.037-0.514,0.112c-0.088,0.075-0.133,0.168-0.133,0.277c0,0.155,0.262,0.29,0.785,0.405&#xA;&#x9;&#x9;&#x9;c0.521,0.115,0.938,0.245,1.248,0.39c0.311,0.146,0.465,0.428,0.465,0.848c0,0.51-0.184,0.866-0.551,1.068&#xA;&#x9;&#x9;&#x9;c-0.367,0.203-0.766,0.305-1.197,0.305c-0.533,0-0.988-0.108-1.359-0.323c-0.373-0.215-0.561-0.567-0.561-1.058h1.08&#xA;&#x9;&#x9;&#x9;c0,0.186,0.066,0.329,0.199,0.432s0.357,0.153,0.672,0.153c0.234,0,0.404-0.043,0.51-0.131c0.105-0.087,0.158-0.181,0.158-0.281&#xA;&#x9;&#x9;&#x9;c0-0.165-0.264-0.305-0.793-0.42c-0.527-0.115-0.939-0.242-1.236-0.383c-0.297-0.14-0.447-0.425-0.447-0.854&#xA;&#x9;&#x9;&#x9;c0-0.351,0.129-0.66,0.383-0.931c0.256-0.27,0.666-0.404,1.23-0.404c0.5,0,0.924,0.094,1.271,0.281s0.521,0.533,0.521,1.038&#xA;&#x9;&#x9;&#x9;H83.518z"></path>
&#x9;&#x9;<path fill="#009EE0" d="M86.494,49.375h-1.051V48.4h1.051V49.375z M86.494,49.848v3.99h-1.051v-3.99H86.494z"></path>
&#x9;&#x9;<path fill="#009EE0" d="M88.662,49.848h0.652v0.75h-0.652v2.168c0,0.13,0.021,0.216,0.066,0.259&#xA;&#x9;&#x9;&#x9;c0.045,0.042,0.168,0.063,0.367,0.063h0.219v0.78l-0.496,0.015h-0.135c-0.424,0-0.709-0.07-0.855-0.21&#xA;&#x9;&#x9;&#x9;c-0.145-0.14-0.217-0.357-0.217-0.652v-2.423h-0.539v-0.75h0.539v-1.072h1.051V49.848z"></path>
&#x9;&#x9;<path fill="#009EE0" d="M92.148,53.771c-0.25,0.745-0.457,1.21-0.621,1.395c-0.166,0.186-0.473,0.278-0.924,0.278h-0.473v-0.841&#xA;&#x9;&#x9;&#x9;l0.203,0.016c0.215,0,0.373-0.035,0.473-0.105s0.172-0.236,0.217-0.497l-1.469-4.168h1.17l0.854,2.94l0.834-2.94h1.109&#xA;&#x9;&#x9;&#x9;L92.148,53.771z"></path>
&#x9;&#x9;<path fill="#009EE0" d="M98,53.943c-0.58,0-1.064-0.179-1.455-0.537c-0.391-0.357-0.586-0.878-0.586-1.563&#xA;&#x9;&#x9;&#x9;c0-0.685,0.195-1.206,0.586-1.563S97.42,49.743,98,49.743s1.064,0.179,1.455,0.536c0.389,0.357,0.584,0.879,0.584,1.563&#xA;&#x9;&#x9;&#x9;c0,0.686-0.195,1.206-0.584,1.563C99.064,53.765,98.58,53.943,98,53.943z M98,50.628c-0.361,0-0.611,0.121-0.75,0.363&#xA;&#x9;&#x9;&#x9;c-0.141,0.243-0.211,0.526-0.211,0.852c0,0.33,0.068,0.615,0.207,0.855c0.137,0.239,0.389,0.359,0.754,0.359&#xA;&#x9;&#x9;&#x9;c0.359,0,0.609-0.121,0.75-0.363c0.139-0.242,0.209-0.526,0.209-0.852c0-0.33-0.068-0.615-0.205-0.854&#xA;&#x9;&#x9;&#x9;C98.615,50.748,98.365,50.628,98,50.628z"></path>
&#x9;&#x9;<path fill="#009EE0" d="M101.975,53.838h-1.051v-3.24h-0.576v-0.75h0.576v-0.322c0-0.395,0.102-0.684,0.305-0.866&#xA;&#x9;&#x9;&#x9;s0.49-0.273,0.865-0.273h0.541v0.84h-0.293c-0.164,0-0.268,0.029-0.307,0.089c-0.041,0.061-0.061,0.184-0.061,0.37v0.163h0.682&#xA;&#x9;&#x9;&#x9;v0.75h-0.682V53.838z"></path>
&#x9;&#x9;<path fill="#009EE0" d="M106.158,53.838h-1.184l1.928-5.385h1.305l1.881,5.385h-1.221l-0.346-1.11h-1.988L106.158,53.838z&#xA;&#x9;&#x9;&#x9; M106.834,51.798h1.373l-0.668-2.13L106.834,51.798z"></path>
&#x9;&#x9;<path fill="#009EE0" d="M111.693,50.418c0.141-0.208,0.299-0.372,0.473-0.493c0.176-0.121,0.42-0.182,0.736-0.182&#xA;&#x9;&#x9;&#x9;c0.465,0,0.857,0.179,1.178,0.536c0.318,0.357,0.479,0.863,0.479,1.519c0,0.605-0.139,1.114-0.42,1.526&#xA;&#x9;&#x9;&#x9;c-0.279,0.412-0.699,0.619-1.26,0.619c-0.32,0-0.563-0.061-0.727-0.181c-0.166-0.12-0.299-0.265-0.398-0.435l-0.016,2.063h-1.049&#xA;&#x9;&#x9;&#x9;v-5.543h1.004V50.418z M112.617,53.08c0.299,0,0.518-0.126,0.656-0.38c0.137-0.253,0.205-0.53,0.205-0.831&#xA;&#x9;&#x9;&#x9;c0-0.352-0.07-0.644-0.209-0.876c-0.141-0.233-0.367-0.351-0.684-0.351c-0.33,0-0.561,0.121-0.693,0.361&#xA;&#x9;&#x9;&#x9;c-0.133,0.241-0.199,0.549-0.199,0.926c0,0.326,0.076,0.599,0.227,0.819C112.068,52.97,112.301,53.08,112.617,53.08z"></path>
&#x9;&#x9;<path fill="#009EE0" d="M116.262,50.418c0.141-0.208,0.297-0.372,0.473-0.493c0.174-0.121,0.42-0.182,0.734-0.182&#xA;&#x9;&#x9;&#x9;c0.465,0,0.857,0.179,1.178,0.536s0.48,0.863,0.48,1.519c0,0.605-0.141,1.114-0.42,1.526c-0.281,0.412-0.701,0.619-1.26,0.619&#xA;&#x9;&#x9;&#x9;c-0.32,0-0.563-0.061-0.729-0.181c-0.164-0.12-0.297-0.265-0.396-0.435l-0.016,2.063h-1.051v-5.543h1.006V50.418z M117.184,53.08&#xA;&#x9;&#x9;&#x9;c0.301,0,0.52-0.126,0.656-0.38c0.139-0.253,0.207-0.53,0.207-0.831c0-0.352-0.07-0.644-0.211-0.876&#xA;&#x9;&#x9;&#x9;c-0.139-0.233-0.367-0.351-0.682-0.351c-0.33,0-0.563,0.121-0.693,0.361c-0.133,0.241-0.199,0.549-0.199,0.926&#xA;&#x9;&#x9;&#x9;c0,0.326,0.074,0.599,0.225,0.819S116.869,53.08,117.184,53.08z"></path>
&#x9;&#x9;<path fill="#009EE0" d="M120.926,53.838h-1.049v-5.385h1.049V53.838z"></path>
&#x9;&#x9;<path fill="#009EE0" d="M122.996,49.375h-1.049V48.4h1.049V49.375z M122.996,49.848v3.99h-1.049v-3.99H122.996z"></path>
&#x9;&#x9;<path fill="#009EE0" d="M127.414,52.668c-0.131,0.445-0.357,0.769-0.68,0.971c-0.322,0.203-0.682,0.305-1.076,0.305&#xA;&#x9;&#x9;&#x9;c-0.615,0-1.1-0.17-1.455-0.511c-0.355-0.34-0.531-0.897-0.531-1.672c0-0.445,0.131-0.893,0.393-1.343&#xA;&#x9;&#x9;&#x9;c0.264-0.45,0.77-0.675,1.52-0.675c0.5,0,0.938,0.161,1.313,0.483s0.563,0.894,0.563,1.714v0.188h-2.738&#xA;&#x9;&#x9;&#x9;c0.035,0.35,0.127,0.6,0.277,0.75s0.371,0.225,0.66,0.225c0.154,0,0.297-0.037,0.424-0.112s0.211-0.183,0.252-0.322H127.414z&#xA;&#x9;&#x9;&#x9; M126.379,51.445c-0.025-0.295-0.117-0.509-0.273-0.642c-0.158-0.132-0.338-0.198-0.537-0.198c-0.244,0-0.436,0.072-0.57,0.218&#xA;&#x9;&#x9;&#x9;c-0.135,0.145-0.217,0.353-0.246,0.622H126.379z"></path>
&#x9;&#x9;<path fill="#009EE0" d="M131.787,53.838h-1.027v-0.503c-0.127,0.21-0.291,0.364-0.496,0.462s-0.43,0.146-0.676,0.146&#xA;&#x9;&#x9;&#x9;c-0.555,0-0.973-0.208-1.256-0.623c-0.281-0.415-0.424-0.923-0.424-1.522c0-0.66,0.16-1.167,0.477-1.522&#xA;&#x9;&#x9;&#x9;c0.318-0.354,0.711-0.532,1.182-0.532c0.301,0,0.539,0.06,0.717,0.18s0.322,0.268,0.438,0.442l0.016-1.912h1.051V53.838z&#xA;&#x9;&#x9;&#x9; M129.852,53.08c0.311,0,0.543-0.109,0.697-0.33c0.154-0.22,0.232-0.492,0.232-0.817c0-0.37-0.068-0.676-0.203-0.919&#xA;&#x9;&#x9;&#x9;c-0.135-0.242-0.367-0.363-0.697-0.363c-0.311,0-0.535,0.115-0.678,0.345c-0.143,0.23-0.215,0.522-0.215,0.878&#xA;&#x9;&#x9;&#x9;c0,0.305,0.068,0.582,0.203,0.832S129.547,53.08,129.852,53.08z"></path>
&#x9;&#x9;<path fill="#009EE0" d="M135.664,52.181c0,0.22,0.082,0.42,0.244,0.6s0.461,0.271,0.896,0.271c0.318,0,0.586-0.052,0.803-0.154&#xA;&#x9;&#x9;&#x9;c0.215-0.103,0.322-0.283,0.322-0.544c0-0.194-0.076-0.333-0.227-0.416c-0.148-0.082-0.398-0.166-0.75-0.251l-0.576-0.135&#xA;&#x9;&#x9;&#x9;c-0.576-0.136-1.004-0.301-1.287-0.495c-0.281-0.195-0.424-0.558-0.424-1.088c0-0.415,0.152-0.795,0.455-1.14&#xA;&#x9;&#x9;&#x9;c0.301-0.346,0.84-0.518,1.615-0.518c0.734,0,1.27,0.184,1.602,0.551c0.332,0.368,0.498,0.764,0.498,1.189h-1.08&#xA;&#x9;&#x9;&#x9;c-0.025-0.215-0.107-0.404-0.246-0.566c-0.141-0.163-0.426-0.244-0.855-0.244c-0.256,0-0.475,0.052-0.66,0.154&#xA;&#x9;&#x9;&#x9;s-0.277,0.266-0.277,0.491c0,0.185,0.051,0.314,0.154,0.39c0.102,0.075,0.24,0.133,0.416,0.173l1.313,0.322&#xA;&#x9;&#x9;&#x9;c0.445,0.11,0.791,0.268,1.039,0.473c0.246,0.205,0.371,0.529,0.371,0.975c0,0.545-0.189,0.976-0.566,1.29&#xA;&#x9;&#x9;&#x9;c-0.379,0.315-0.896,0.473-1.557,0.473c-0.875,0-1.479-0.184-1.809-0.552c-0.33-0.367-0.494-0.783-0.494-1.248H135.664z"></path>
&#x9;&#x9;<path fill="#009EE0" d="M143.201,52.383c-0.029,0.345-0.182,0.691-0.457,1.039s-0.73,0.521-1.365,0.521&#xA;&#x9;&#x9;&#x9;c-0.676,0-1.15-0.199-1.43-0.597c-0.277-0.397-0.416-0.861-0.416-1.392c0-0.68,0.156-1.219,0.469-1.616s0.795-0.596,1.445-0.596&#xA;&#x9;&#x9;&#x9;c0.434,0,0.836,0.116,1.207,0.349c0.369,0.232,0.555,0.626,0.555,1.181h-1.064c-0.041-0.225-0.125-0.389-0.252-0.491&#xA;&#x9;&#x9;&#x9;c-0.127-0.102-0.275-0.153-0.445-0.153c-0.297,0-0.508,0.116-0.639,0.349c-0.129,0.232-0.195,0.501-0.195,0.807&#xA;&#x9;&#x9;&#x9;c0,0.475,0.066,0.81,0.199,1.005c0.133,0.194,0.336,0.292,0.611,0.292c0.234,0,0.412-0.082,0.533-0.247&#xA;&#x9;&#x9;&#x9;c0.119-0.165,0.18-0.315,0.18-0.45H143.201z"></path>
&#x9;&#x9;<path fill="#009EE0" d="M145.002,49.375h-1.051V48.4h1.051V49.375z M145.002,49.848v3.99h-1.051v-3.99H145.002z"></path>
&#x9;&#x9;<path fill="#009EE0" d="M149.418,52.668c-0.129,0.445-0.355,0.769-0.678,0.971c-0.322,0.203-0.682,0.305-1.076,0.305&#xA;&#x9;&#x9;&#x9;c-0.615,0-1.102-0.17-1.455-0.511c-0.355-0.34-0.533-0.897-0.533-1.672c0-0.445,0.131-0.893,0.395-1.343&#xA;&#x9;&#x9;&#x9;c0.262-0.45,0.768-0.675,1.518-0.675c0.5,0,0.938,0.161,1.313,0.483s0.563,0.894,0.563,1.714v0.188h-2.736&#xA;&#x9;&#x9;&#x9;c0.035,0.35,0.127,0.6,0.277,0.75s0.369,0.225,0.66,0.225c0.154,0,0.295-0.037,0.424-0.112c0.127-0.075,0.211-0.183,0.25-0.322&#xA;&#x9;&#x9;&#x9;H149.418z M148.383,51.445c-0.025-0.295-0.115-0.509-0.273-0.642c-0.156-0.132-0.336-0.198-0.535-0.198&#xA;&#x9;&#x9;&#x9;c-0.246,0-0.436,0.072-0.57,0.218c-0.135,0.145-0.219,0.353-0.248,0.622H148.383z"></path>
&#x9;&#x9;<path fill="#009EE0" d="M153.754,53.838h-1.051v-2.423c0-0.225-0.039-0.412-0.119-0.563c-0.08-0.149-0.268-0.225-0.563-0.225&#xA;&#x9;&#x9;&#x9;c-0.24,0-0.438,0.08-0.594,0.24c-0.154,0.16-0.232,0.388-0.232,0.683v2.287h-1.049v-3.99h1.004v0.585&#xA;&#x9;&#x9;&#x9;c0.17-0.255,0.352-0.434,0.545-0.536c0.191-0.103,0.416-0.153,0.67-0.153c0.406,0,0.738,0.116,0.998,0.349&#xA;&#x9;&#x9;&#x9;s0.391,0.562,0.391,0.986V53.838z"></path>
&#x9;&#x9;<path fill="#009EE0" d="M158.148,52.383c-0.029,0.345-0.182,0.691-0.457,1.039s-0.73,0.521-1.365,0.521&#xA;&#x9;&#x9;&#x9;c-0.676,0-1.15-0.199-1.43-0.597c-0.277-0.397-0.416-0.861-0.416-1.392c0-0.68,0.156-1.219,0.469-1.616s0.795-0.596,1.445-0.596&#xA;&#x9;&#x9;&#x9;c0.434,0,0.836,0.116,1.207,0.349c0.369,0.232,0.555,0.626,0.555,1.181h-1.064c-0.041-0.225-0.125-0.389-0.252-0.491&#xA;&#x9;&#x9;&#x9;c-0.127-0.102-0.275-0.153-0.445-0.153c-0.297,0-0.508,0.116-0.639,0.349c-0.129,0.232-0.195,0.501-0.195,0.807&#xA;&#x9;&#x9;&#x9;c0,0.475,0.066,0.81,0.199,1.005c0.133,0.194,0.336,0.292,0.611,0.292c0.234,0,0.412-0.082,0.533-0.247&#xA;&#x9;&#x9;&#x9;c0.119-0.165,0.18-0.315,0.18-0.45H158.148z"></path>
&#x9;&#x9;<path fill="#009EE0" d="M162.297,52.668c-0.131,0.445-0.357,0.769-0.68,0.971c-0.322,0.203-0.682,0.305-1.076,0.305&#xA;&#x9;&#x9;&#x9;c-0.615,0-1.1-0.17-1.455-0.511c-0.355-0.34-0.531-0.897-0.531-1.672c0-0.445,0.131-0.893,0.393-1.343&#xA;&#x9;&#x9;&#x9;c0.264-0.45,0.77-0.675,1.52-0.675c0.5,0,0.938,0.161,1.313,0.483s0.563,0.894,0.563,1.714v0.188h-2.738&#xA;&#x9;&#x9;&#x9;c0.035,0.35,0.127,0.6,0.277,0.75s0.371,0.225,0.66,0.225c0.154,0,0.297-0.037,0.424-0.112s0.211-0.183,0.252-0.322H162.297z&#xA;&#x9;&#x9;&#x9; M161.262,51.445c-0.025-0.295-0.117-0.509-0.273-0.642c-0.158-0.132-0.338-0.198-0.537-0.198c-0.244,0-0.436,0.072-0.57,0.218&#xA;&#x9;&#x9;&#x9;c-0.135,0.145-0.217,0.353-0.246,0.622H161.262z"></path>
&#x9;&#x9;<path fill="#009EE0" d="M165.281,51.063c-0.031-0.17-0.09-0.3-0.18-0.39c-0.092-0.09-0.266-0.135-0.525-0.135&#xA;&#x9;&#x9;&#x9;c-0.256,0-0.428,0.037-0.514,0.112c-0.088,0.075-0.133,0.168-0.133,0.277c0,0.155,0.262,0.29,0.785,0.405&#xA;&#x9;&#x9;&#x9;c0.521,0.115,0.938,0.245,1.248,0.39c0.311,0.146,0.465,0.428,0.465,0.848c0,0.51-0.184,0.866-0.551,1.068&#xA;&#x9;&#x9;&#x9;c-0.367,0.203-0.766,0.305-1.197,0.305c-0.533,0-0.988-0.108-1.359-0.323c-0.373-0.215-0.561-0.567-0.561-1.058h1.08&#xA;&#x9;&#x9;&#x9;c0,0.186,0.066,0.329,0.199,0.432s0.357,0.153,0.672,0.153c0.234,0,0.404-0.043,0.51-0.131c0.105-0.087,0.158-0.181,0.158-0.281&#xA;&#x9;&#x9;&#x9;c0-0.165-0.264-0.305-0.793-0.42c-0.527-0.115-0.939-0.242-1.236-0.383c-0.297-0.14-0.447-0.425-0.447-0.854&#xA;&#x9;&#x9;&#x9;c0-0.351,0.129-0.66,0.383-0.931c0.256-0.27,0.666-0.404,1.23-0.404c0.5,0,0.924,0.094,1.271,0.281s0.521,0.533,0.521,1.038&#xA;&#x9;&#x9;&#x9;H165.281z"></path>
&#x9;</g>
</g>
</svg>