<svg xmlns="http://www.w3.org/2000/svg" viewBox="0 0 377.954 62.869"><defs><clipPath id="a" clipPathUnits="userSpaceOnUse"><path d="M0 77.333h311.333V0H0z"></path></clipPath></defs><g clip-path="url(#a)" transform="matrix(1.33333 0 0 -1.33333 -23.822 80.96)"><path d="M298.275 41.612a3.056 3.056 0 100-6.11l-.21.006v-3.41c0-1.686-1.362-2.284-2.604-1.143l-1.793 1.644h-7.967c-2.606-9.342-11.178-16.198-21.354-16.198-10.176 0-18.73 6.856-21.334 16.198h-8.078l-1.79-1.644c-1.245-1.141-2.606-.543-2.606 1.143v3.42l-.182-.004a3.056 3.056 0 000 6.11l.182-.004v3.515c0 1.693 1.37 2.29 2.611 1.139l1.78-1.65h8.1c2.638 9.29 11.181 16.096 21.317 16.096 10.14 0 18.682-6.806 21.32-16.096h7.99l1.802 1.656c1.244 1.14 2.605.542 2.605-1.145v-3.531z" fill="#fff"></path><path d="M296.773 38.561a1.502 1.502 0 103.004-.002 1.502 1.502 0 00-3.004.002M228.856 38.561a1.502 1.502 0 103.003-.002 1.502 1.502 0 00-3.004.002M244.238 43.07c2.057 9.212 10.28 16.097 20.11 16.097 9.831 0 18.054-6.885 20.111-16.097h9.8l2.25 2.065V32.098l-2.238 2.055h-9.79c-2.018-9.263-10.266-16.198-20.134-16.198-9.867 0-18.113 6.935-20.13 16.198h-9.885l-2.239-2.055v13.037l2.227-2.065zm4.9-4.51c0-8.386 6.817-15.204 15.215-15.204 8.39 0 15.205 6.818 15.205 15.205 0 8.386-6.816 15.203-15.205 15.203-8.398 0-15.215-6.817-15.215-15.203" fill="#f4332e"></path><path d="M264.348 40.037a1.478 1.478 0 11.001-2.956 1.478 1.478 0 01-.001 2.956m0 .324a1.8 1.8 0 100-3.6 1.8 1.8 0 100 3.6" fill="#fff"></path><path d="M263.656 44.72c.023-.992-.762-1.777-1.766-1.765a1.6 1.6 0 00-1.166.404l-6.578 6.026a14.523 14.523 0 01-.543-.54l5.934-6.444s-.068.046-.035.01a1.713 1.713 0 000-2.49 1.66 1.66 0 00-1.117-.542l-8.913-.388c-.004-.143-.004-.745-.004-.745l8.778-.38a1.795 1.795 0 001.303-2.951l-6.008-6.574c.17-.18.344-.354.521-.526l6.455 5.923a1.784 1.784 0 002.481-.036c.312-.311.508-.714.531-1.13l.398-8.884c.141-.004.747-.002.747-.002l.378 8.747c0 .924.795 1.72 1.776 1.732.44 0 .865-.151 1.164-.427l6.568-5.994c.182.172.36.348.534.53l-5.913 6.445c-.658.657-.658 1.763.024 2.467.31.312.715.508 1.131.532l8.888.408c.004.144.004.749.004.749l-8.742.377a1.758 1.758 0 00-1.732 1.753c-.01.45.138.877.416 1.176l6.006 6.58c-.172.183-.348.36-.53.534l-6.445-5.914c-.682-.68-1.774-.672-2.469.024a1.67 1.67 0 00-.543 1.119l-.396 8.91c-.147.005-.758 0-.758 0s-.379-8.668-.379-8.714m.697 9.372c8.57 0 15.532-6.964 15.532-15.531 0-8.568-6.963-15.533-15.532-15.533-8.578 0-15.54 6.965-15.54 15.533 0 8.567 6.962 15.53 15.54 15.53" fill="#002595"></path><path d="M243.834 42.744h-9.643l-1.769 1.642V32.844l1.781 1.635h9.611a21.134 21.134 0 00.02 8.265m.121-8.918h-9.498l-2.691-2.471v6.039a1.829 1.829 0 100 2.332v6.159l2.683-2.488h9.53c2.181 9.229 10.474 16.097 20.369 16.097 9.896 0 18.189-6.868 20.371-16.097h9.414l2.705 2.482v-6.19a1.83 1.83 0 101.437-2.958c-.584 0-1.103.275-1.437.7v-6.076l-2.693 2.47h-9.403c-2.144-9.28-10.461-16.198-20.394-16.198-9.932 0-18.248 6.918-20.393 16.199m-13.598 5.909a1.175 1.175 0 110-2.347 1.175 1.175 0 010 2.347m67.918 0a1.174 1.174 0 11.001-2.348 1.174 1.174 0 01-.001 2.348M264.348 58.84c-11.2 0-20.278-9.08-20.278-20.28 0-11.201 9.078-20.28 20.278-20.28 11.201 0 20.277 9.079 20.277 20.28 0 11.2-9.076 20.28-20.277 20.28m20.515-16.096a21.06 21.06 0 00.416-4.183 20.96 20.96 0 00-.396-4.082h9.517l1.784-1.635V44.39l-1.795-1.647z" fill="#002595"></path><path d="M261.994 38.561a2.355 2.355 0 104.71-.003 2.355 2.355 0 00-4.71.003m2.354 1.8a1.801 1.801 0 10.002-3.602 1.801 1.801 0 00-.002 3.602" fill="#002595" fill-rule="evenodd"></path><path d="M264.348 42.025a3.464 3.464 0 110-6.93 3.465 3.465 0 110 6.93m0 .654a4.12 4.12 0 10.002-8.24 4.12 4.12 0 00-.002 8.24" fill="#002595" fill-rule="evenodd"></path><path d="M264.348 40.037a1.478 1.478 0 11.001-2.956 1.478 1.478 0 01-.001 2.956M183.925 48.536l-.024.068.359.14 3.269-8.05a8.176 8.176 0 00-.353-.135c-1.355 1.902-4.34 5.03-6.825 5.004-.03.02-.033.023-.07.018-.043-.008-.084-.02-.128-.02-2.572 0-4.606-3.054-4.606-6.883 0-3.819 1.865-6.517 4.746-6.756 2.279-.026 4.865 1.526 6.326 3.264l.822-.673s-.207-.322-.544-.726c-1.754-2.105-4.267-3.604-7.098-3.604-4.802 0-9.167 3.65-9.167 8.352 0 4.706 3.739 8.334 8.433 8.43 1.076.023 2.46-.215 3.484-.592 2.512-1.152 1.424 2.024 1.376 2.163" fill="#002595"></path><path d="M158.796 43.72c.613 1.497-1.205 1.996-2.006 2.088v.382h14.2a4.056 4.056 0 000-.382c-1.411-.195-2.77-1.24-2.77-2.932V34.124c0-1.677 1.359-2.724 2.76-2.932v-.382h-9.986v.382c1.4.208 2.763 1.252 2.763 2.932V42.876c0 1.202-.614 1.921-1.261 2.344a4.685 4.685 0 01-1.811-2.18l-5.716-13.659-5.277 11.034-4.56-11.034-6.49 13.624c-.468.983-1.31 2.295-2.406 2.726a1.655 1.655 0 01-.294.08v.38h9.117a5.046 5.046 0 000-.39c-1.067-.032-2.593-.555-1.712-2.315l3.095-6.189 4.438 10.434 5.275-10.432zM106.722 42.938l-2.847-2.352 5.357-6.508c.973-1.184 1.674-2.261 3.172-2.67 1.087.541 1.75 1.428 1.75 2.717v8.751c0 1.597-1.046 2.552-2.394 2.967-1.798-.441-3.711-1.8-5.038-2.905m-44.088-6.59h4.51l-2.261 4.679zM30.326 51.607c.919 3.593-2.67 4.6-4.85 4.612v.393h8.748l7.147-16.659 6.668 16.661 6.713.001c.004-.127.004-.255.002-.383-.765-.08-5.418-.736-4.793-2.909l5.51-19.18c.34-1.181 1.145-1.892 1.95-2.318a5.115 5.115 0 012.237 2.332l6.663 13.931 6.67-13.934c.66-1.428 1.48-2.166 2.17-2.546.734.393 1.54 1.136 1.54 2.517v9.215c-.977 1.258-3.085 2.169-4.684 2.471v.379l7.889-.001 8.786-8.887v5.574c0 1.678-1.36 2.722-2.76 2.935v.378l6.4.006h9.922a5.35 5.35 0 000-.38c-1.41-.196-2.77-1.243-2.77-2.932V38.93l5.884 4.96c.689.579.582 1.049.229 1.382-.39.363-1.03.556-1.55.528v.395h8.57l8.624-.006a4.815 4.815 0 000-.38c-1.411-.196-2.77-1.242-2.77-2.933v-8.751c0-1.681 1.358-2.725 2.76-2.933v-.382h-13.385c-2.23.456-2.602 1.381-4.136 3.268l-2.976 3.662-1.25-1.022v-2.591c0-1.678 1.359-2.721 2.76-2.932v-.382h-9.986v.382c1.402.211 2.76 1.254 2.76 2.932v8.756c0 1.912-1.556 2.604-2.312 2.83-.757-.216-2.326-.897-2.326-2.837V29.26L78.386 41.58v-7.455c0-1.678 1.359-2.725 2.76-2.933v-.382H66.724v.385c1.449.087 2.3 1.117 1.527 2.898l-.29.56h-6.114l-.301-.565c-.936-1.753.156-2.701 1.486-2.896v-.382H47.394v.388c1.273.05 3.806.645 3.136 2.903l-4.011 13.585-6.583-16.639-7.975 18.901-7.398-28.801c-.648-2.53 1.549-2.369 2.699-2.021l.21-.499-9.363-5.059-.242.557s.262.139.584.376c2.096 1.571 3.429 4.137 4.067 6.625zM134.356 46.169c.393.07.625.206.853.458l1.257-4.666h-.506c-.46 1.259-1.663 2.522-3.157 2.522h-4.262v-4.627h2.919c1.5 0 2.436.99 2.446 2.284h.392v-6.304h-.392c-.01 1.294-.946 2.284-2.446 2.284h-2.92v-5.602h4.593c1.754 0 3.737 2.133 4.646 3.49l.49-.164-1.97-5.033h-14.984v.38c1.4.209 2.756 1.256 2.756 2.934V42.877c0 1.678-1.357 2.72-2.756 2.934v.38h13.02zM206.35 46.19l-10.2-11.147c.835.31 2.087.505 2.704.592 2.43.362 5.285-1.336 7.359-2.406 2.518-1.305 5.756 1.38 7.153 3.03l.468-.314c-1.523-2.93-5.787-6.369-9.578-5.973-2.133.226-4.16.77-6.136 1.562-1.616.656-2.747.925-3.505 1.031-.761.1-1.148.042-1.267.042-1.963 0-5.458-1.67-7.297-2.759h-.55l13.316 14.634h-5.196c-2.031 0-4.46-2.056-5.703-3.589l-.332.182 3.594 6.637c.113-.059.225-.119.332-.18 0 0-.043-.138-.06-.258-.086-.788.484-1.084 1.252-1.084z" fill="#002595"></path></g></svg>