<svg xmlns="http://www.w3.org/2000/svg" data-name="Layer 2" width="423.308" height="61.09" viewBox="0 0 317.481 45.817"><defs><clipPath id="a"><path fill="none" d="M0 0H317.479V45.817H0z"></path></clipPath></defs><g data-name="Layer 1"><path fill="#1e2522" d="M95.6665 0.00064L110.29352 22.90863 95.6665 45.81665 108.59451 45.81665 123.2225 22.90863 108.59451 0.00064 95.6665 0.00064z"></path><path fill="#1e2522" d="M121.24808 0.00064L129.54807 13.27863 138.13608 0.00064 121.24808 0.00064z"></path><path fill="#1e2522" d="M121.24808 45.81693L125.7861 45.81693 138.13608 45.81693 129.54807 32.53992 121.24808 45.81693z"></path><path fill="#1e2522" d="M138.1384 0.00064L152.76437 22.90863 138.1384 45.81665 151.06638 45.81665 165.69443 22.90863 151.06638 0.00064 138.1384 0.00064z"></path><path fill="#1e2522" d="M163.72 0.00064L172.02103 13.27863 180.608 0.00064 163.72 0.00064z"></path><path fill="#1e2522" d="M163.72 45.81693L168.259 45.81693 180.608 45.81693 172.02103 32.53992 163.72 45.81693z"></path><g clip-path="url(#a)"><path d="M26.562 16.08c0-2.147-.586-3.658-1.754-4.532-1.169-.88-3.265-1.32-6.282-1.32h-7.2v12.48h7.2c3.068 0 5.173-.494 6.317-1.518 1.144-1.022 1.72-2.53 1.72-5.11M11.324 32.955v12.862H0V0h18.526c7.06 0 12.08 1.23 15.05 3.692 2.97 2.456 4.456 6.588 4.456 12.387 0 5.744-1.57 9.996-4.712 12.748-3.143 2.753-8 4.127-14.578 4.127h-7.417z" fill="#1e2522"></path><path fill="#1e2522" d="M43.67319 0.00034L43.67319 45.81732 72.26019 45.81732 72.26019 35.62833 54.99719 35.62833 54.99719 0.00034 43.67319 0.00034z"></path><path fill="#1e2522" d="M77.918 0H89.242V45.817H77.918z"></path><path fill="#1e2522" d="M187.05209 0.00034L187.05209 45.81732 217.96011 45.81732 217.96011 35.62833 198.37607 35.62833 198.37607 27.32935 214.31711 27.32935 214.31711 17.82733 198.37607 17.82733 198.37607 10.22833 217.96011 10.22833 217.96011 0.00034 187.05209 0.00034z"></path><path fill="#1e2522" d="M254.74081 0.00034L254.74081 28.87735 235.14084 0.00034 224.40079 0.00034 224.40079 45.81732 234.99484 45.81732 234.99484 18.65933 254.52084 45.81732 265.33481 45.81732 265.33481 0.00034 254.74081 0.00034z"></path><path fill="#1e2522" d="M270.97641 0.00034L270.97641 10.22833 283.47043 10.22833 283.47043 45.81732 294.79739 45.81732 294.79739 10.22833 307.29141 10.22833 307.29141 0.00034 270.97641 0.00034z"></path><path fill="#008f9d" d="M307.293 35.629H317.481V45.817H307.293z"></path></g></g></svg>