<?xml version="1.0" encoding="UTF-8"?>
<svg id="Layer_1" data-name="Layer 1" xmlns="http://www.w3.org/2000/svg" viewBox="0 0 1209.06 307.33">
  <defs>
    <style>
      .cls-1 {
        fill: #ffb71b;
      }

      .cls-2 {
        fill: #fff;
      }

      .cls-3 {
        fill: none;
        stroke: #ffb71b;
        stroke-miterlimit: 10;
      }
    </style>
  </defs>
  <g>
    <path class="cls-2" d="M674.42,100.52h-14.24v-8.39h38.78v8.39h-14.24v36.11h-10.3v-36.11Z"/>
    <path class="cls-2" d="M747.85,128.36v8.26h-34.45v-44.5h33.63v8.26h-23.39v9.66h20.66v8.01h-20.66v10.3h24.22Z"/>
    <path class="cls-2" d="M762.02,114.38c0-13.41,10.3-23.01,24.16-23.01,7.69,0,14.11,2.8,18.31,7.88l-6.61,6.1c-2.99-3.43-6.74-5.21-11.19-5.21-8.33,0-14.24,5.85-14.24,14.24s5.91,14.24,14.24,14.24c4.45,0,8.2-1.78,11.19-5.28l6.61,6.1c-4.2,5.15-10.62,7.95-18.37,7.95-13.79,0-24.09-9.6-24.09-23.01Z"/>
    <path class="cls-2" d="M861.13,92.13v44.5h-10.3v-18.24h-20.21v18.24h-10.3v-44.5h10.3v17.54h20.21v-17.54h10.3Z"/>
    <path class="cls-2" d="M921.39,92.13v44.5h-8.46l-22.18-27.02v27.02h-10.17v-44.5h8.52l22.12,27.02v-27.02h10.17Z"/>
    <path class="cls-2" d="M938.05,114.38c0-13.22,10.3-23.01,24.35-23.01s24.35,9.73,24.35,23.01-10.36,23.01-24.35,23.01-24.35-9.79-24.35-23.01ZM976.32,114.38c0-8.45-5.98-14.24-13.92-14.24s-13.92,5.78-13.92,14.24,5.98,14.24,13.92,14.24,13.92-5.78,13.92-14.24Z"/>
    <path class="cls-2" d="M1003.4,92.13h10.3v36.11h22.31v8.39h-32.61v-44.5Z"/>
    <path class="cls-2" d="M1047.14,114.38c0-13.22,10.3-23.01,24.35-23.01s24.35,9.73,24.35,23.01-10.36,23.01-24.35,23.01-24.35-9.79-24.35-23.01ZM1085.41,114.38c0-8.45-5.98-14.24-13.92-14.24s-13.92,5.78-13.92,14.24,5.98,14.24,13.92,14.24,13.92-5.78,13.92-14.24Z"/>
    <path class="cls-2" d="M1142.56,113.68h9.41v18.05c-4.89,3.69-11.63,5.66-17.99,5.66-13.98,0-24.28-9.6-24.28-23.01s10.3-23.01,24.47-23.01c7.82,0,14.3,2.67,18.62,7.69l-6.61,6.1c-3.24-3.43-6.99-5.02-11.51-5.02-8.64,0-14.56,5.78-14.56,14.24s5.91,14.24,14.43,14.24c2.8,0,5.4-.51,8.01-1.91v-13.03Z"/>
    <path class="cls-2" d="M1191.76,120.86v15.76h-10.3v-15.89l-17.23-28.61h10.93l11.89,19.77,11.89-19.77h10.11l-17.29,28.73Z"/>
    <path class="cls-2" d="M703.79,183.87c0,9.92-7.44,16.08-19.33,16.08h-8.96v12.27h-10.3v-44.5h19.26c11.89,0,19.33,6.17,19.33,16.15ZM693.37,183.87c0-4.89-3.18-7.76-9.47-7.76h-8.39v15.45h8.39c6.29,0,9.47-2.86,9.47-7.69Z"/>
    <path class="cls-2" d="M747.08,202.68h-20.66l-3.94,9.54h-10.55l19.83-44.5h10.17l19.9,44.5h-10.81l-3.94-9.54ZM743.84,194.86l-7.06-17.04-7.06,17.04h14.11Z"/>
    <path class="cls-2" d="M803.73,212.22l-8.58-12.4h-9.47v12.4h-10.3v-44.5h19.26c11.89,0,19.33,6.17,19.33,16.15,0,6.67-3.37,11.57-9.15,14.05l9.98,14.3h-11.06ZM794.06,176.11h-8.39v15.51h8.39c6.29,0,9.47-2.92,9.47-7.76s-3.18-7.76-9.47-7.76Z"/>
    <path class="cls-2" d="M839.58,176.11h-14.24v-8.39h38.78v8.39h-14.24v36.11h-10.3v-36.11Z"/>
    <path class="cls-2" d="M919.36,167.72v44.5h-8.45l-22.19-27.02v27.02h-10.17v-44.5h8.52l22.12,27.02v-27.02h10.17Z"/>
    <path class="cls-2" d="M973.27,203.95v8.26h-34.45v-44.5h33.63v8.26h-23.39v9.66h20.66v8.01h-20.66v10.3h24.22Z"/>
    <path class="cls-2" d="M1018.72,212.22l-8.58-12.4h-9.47v12.4h-10.3v-44.5h19.26c11.89,0,19.33,6.17,19.33,16.15,0,6.67-3.37,11.57-9.15,14.05l9.98,14.3h-11.06ZM1009.06,176.11h-8.39v15.51h8.39c6.29,0,9.47-2.92,9.47-7.76s-3.18-7.76-9.47-7.76Z"/>
  </g>
  <line class="cls-3" x1="594.62" y1="307.33" x2="594.62"/>
  <g>
    <path class="cls-2" d="M175.71,200.26c0-2.48-1.24-4.36-6.75-4.36s-6.75,1.86-6.75,4.36v6.75c0,2.04.71,4.09,2.66,5.78l18.65,15.97c2.66,2.22,4.27,4.98,4.27,7.81v10.13c0,6.04-7.1,9.42-18.83,9.42-12.97,0-19.18-2.92-19.18-9.42v-8.8h11.73v8.43c0,3.03,2.32,4.8,7.46,4.8,4.8,0,7.11-1.77,7.11-4.8v-8.98c0-2.22-.89-3.91-3.38-6.13l-17.26-14.99c-3.19-2.76-4.98-4.89-4.98-8.17v-7.72c0-6.31,6.57-9.42,18.48-9.42,13.15,0,18.48,3.12,18.48,8.98v8.17h-11.72v-7.83h-.01Z"/>
    <path class="cls-2" d="M288.81,201.62c0-6.3,4.8-10.84,20.61-10.84s20.61,4.53,20.61,10.84v43.53c0,6.31-4.8,10.84-20.61,10.84s-20.62-4.53-20.62-10.84v-43.53ZM300.52,244.98c0,3.56,1.42,6.04,8.89,6.04s8.89-2.48,8.89-6.04v-43.18c0-3.56-1.42-6.04-8.89-6.04s-8.89,2.48-8.89,6.04v43.18Z"/>
    <path class="cls-2" d="M336.5,191.32h18.67c15.11,0,19.54,2.48,19.54,9.78v15.73c-.01,7.28-4.45,9.78-19.56,9.78h-6.93v28.87h-11.73v-64.16h.01ZM353.92,221.61c5.33,0,9.05-.71,9.05-4v-17.32c0-3.29-3.73-4-9.05-4h-5.69v25.31h5.69Z"/>
    <path class="cls-2" d="M403.99,200.12c0-2.5-1.24-4.36-6.75-4.36s-6.77,1.86-6.77,4.36v6.75c0,2.04.71,4.09,2.66,5.77l18.65,15.99c2.66,2.22,4.26,4.97,4.26,7.81v10.13c0,6.04-7.1,9.42-18.83,9.42-12.97,0-19.2-2.94-19.2-9.42v-8.78h11.73v8.45c0,3.03,2.32,4.8,7.46,4.8,4.8,0,7.1-1.77,7.1-4.8v-8.98c0-2.22-.88-3.91-3.38-6.13l-17.23-15.02c-3.19-2.76-4.98-4.89-4.98-8.16v-7.74c0-6.31,6.57-9.42,18.48-9.42,13.14,0,18.47,3.1,18.47,8.98v8.17h-11.73v-7.83h.04Z"/>
    <path class="cls-2" d="M490.54,200.12c0-2.48-1.25-4.35-6.75-4.35s-6.75,1.86-6.75,4.35v6.75c0,2.04.71,4.09,2.66,5.77l18.65,16c2.66,2.22,4.27,4.97,4.27,7.81v10.13c0,6.04-7.11,9.42-18.83,9.42-12.97,0-19.2-2.94-19.2-9.42v-8.8h11.73v8.45c-.01,3.03,2.3,4.8,7.46,4.8,4.79,0,7.1-1.77,7.1-4.8v-8.98c0-2.22-.89-3.91-3.38-6.13l-17.23-15.02c-3.19-2.76-4.98-4.89-4.98-8.17v-7.74c0-6.3,6.57-9.42,18.48-9.42,13.14,0,18.47,3.12,18.47,8.98v8.17h-11.72v-7.81Z"/>
    <polygon class="cls-2" points="224.08 191.32 235.82 191.32 210.12 271.84 198.39 271.84 224.08 191.32"/>
    <polygon class="cls-2" points="205.56 241.34 189.67 191.46 201.42 191.46 211.43 222.91 205.56 241.34"/>
    <polygon class="cls-2" points="452.24 191.32 463.97 191.32 438.28 271.85 426.54 271.85 452.24 191.32"/>
    <polygon class="cls-2" points="433.77 241.2 417.88 191.32 429.62 191.32 439.64 222.77 433.77 241.2"/>
    <path class="cls-2" d="M281.57,255.47h.05v-54.35c0-7.28-4.44-9.78-19.54-9.78h-22.61v64.14h11.73v-59.16h9.65c5.33,0,9.05.71,9.05,4v55.16h11.67Z"/>
    <path class="cls-2" d="M507.16,199.24c0-4.28,3.48-7.45,7.59-7.45s7.54,3.16,7.54,7.45-3.47,7.49-7.54,7.49c-4.11,0-7.59-3.16-7.59-7.49ZM514.75,205.48c3.38,0,6.04-2.65,6.04-6.25s-2.66-6.21-6.04-6.21-6.09,2.66-6.09,6.21c0,3.6,2.66,6.25,6.09,6.25ZM513.18,203.57h-1.31v-8.61h3.29c2.03,0,3.04.75,3.04,2.44,0,1.54-.97,2.21-2.24,2.38l2.46,3.79h-1.46l-2.28-3.74h-1.5v3.74h0ZM514.73,198.73c1.11,0,2.1-.08,2.1-1.4,0-1.07-.97-1.27-1.88-1.27h-1.79v2.66h1.57Z"/>
    <path class="cls-2" d="M22.49,215.88c0,4.02-.92,7.25-2.76,9.71-1.84,2.45-4.32,3.68-7.46,3.68s-5.72-1.02-7.56-3.05v12.7H.2v-36.53h4.12l.22,2.93c1.84-2.28,4.39-3.41,7.66-3.41s5.68,1.2,7.52,3.58c1.84,2.39,2.77,5.71,2.77,9.97v.41ZM17.97,215.36c0-2.98-.63-5.32-1.9-7.05-1.27-1.72-3.01-2.58-5.22-2.58-2.73,0-4.78,1.21-6.15,3.63v12.61c1.35,2.41,3.41,3.61,6.19,3.61,2.16,0,3.88-.86,5.16-2.57,1.28-1.71,1.91-4.26,1.91-7.64Z"/>
    <path class="cls-2" d="M41.1,228.78c-.26-.52-.47-1.45-.63-2.78-2.1,2.18-4.6,3.27-7.51,3.27-2.6,0-4.73-.73-6.4-2.21-1.67-1.47-2.5-3.34-2.5-5.6,0-2.75,1.04-4.88,3.13-6.4,2.09-1.52,5.03-2.28,8.82-2.28h4.39v-2.07c0-1.58-.47-2.83-1.41-3.77-.94-.93-2.33-1.4-4.17-1.4-1.61,0-2.96.41-4.05,1.22-1.09.81-1.63,1.8-1.63,2.95h-4.54c0-1.32.47-2.59,1.4-3.82.94-1.23,2.2-2.2,3.8-2.91,1.6-.72,3.36-1.07,5.28-1.07,3.04,0,5.42.76,7.14,2.28,1.72,1.52,2.62,3.61,2.68,6.28v12.14c0,2.42.31,4.35.93,5.78v.39h-4.73ZM33.61,225.34c1.41,0,2.76-.37,4.02-1.1,1.27-.73,2.19-1.68,2.76-2.85v-5.41h-3.54c-5.53,0-8.29,1.62-8.29,4.85,0,1.41.47,2.52,1.41,3.32.94.8,2.15,1.19,3.63,1.19Z"/>
    <path class="cls-2" d="M60.79,206.44c-.68-.11-1.42-.17-2.22-.17-2.96,0-4.97,1.26-6.02,3.78v18.73h-4.51v-26.38h4.39l.07,3.05c1.48-2.36,3.58-3.54,6.29-3.54.88,0,1.54.11,2,.34v4.19Z"/>
    <path class="cls-2" d="M72.86,196v6.39h4.93v3.49h-4.93v16.38c0,1.06.22,1.85.66,2.38.44.53,1.19.79,2.24.79.52,0,1.24-.1,2.15-.29v3.64c-1.19.32-2.34.48-3.46.48-2.02,0-3.54-.61-4.56-1.83-1.02-1.22-1.54-2.95-1.54-5.19v-16.36h-4.8v-3.49h4.8v-6.39h4.51Z"/>
    <path class="cls-2" d="M87.23,215.34c0-2.58.51-4.91,1.52-6.97,1.02-2.06,2.43-3.66,4.24-4.78,1.81-1.12,3.88-1.68,6.21-1.68,3.59,0,6.5,1.24,8.72,3.73,2.22,2.49,3.33,5.8,3.33,9.92v.32c0,2.57-.49,4.87-1.47,6.91-.98,2.04-2.39,3.63-4.22,4.77-1.83,1.14-3.93,1.71-6.3,1.71-3.58,0-6.47-1.24-8.69-3.73-2.22-2.49-3.33-5.78-3.33-9.88v-.32ZM91.76,215.88c0,2.93.68,5.27,2.04,7.05,1.36,1.77,3.17,2.66,5.45,2.66s4.11-.9,5.46-2.69c1.35-1.8,2.02-4.31,2.02-7.55,0-2.89-.69-5.24-2.06-7.04-1.37-1.8-3.2-2.69-5.47-2.69s-4.02.89-5.39,2.66c-1.37,1.77-2.05,4.31-2.05,7.61Z"/>
    <path class="cls-2" d="M117.12,228.78v-22.9h-4.17v-3.49h4.17v-2.71c0-2.83.76-5.02,2.27-6.56,1.51-1.54,3.65-2.32,6.41-2.32,1.04,0,2.07.14,3.1.41l-.24,3.64c-.76-.15-1.58-.22-2.44-.22-1.46,0-2.59.43-3.39,1.28-.8.86-1.19,2.08-1.19,3.68v2.79h5.63v3.49h-5.63v22.9h-4.51Z"/>
    <path class="cls-2" d="M248.07,56.01c5.53,6.53,8.21,16.42,8.21,29.48v56.28h-28.64v-54.94c0-6.37-1.17-10.89-3.52-13.9-2.35-2.85-6.03-4.36-10.89-4.36-6.03,0-10.72,1.84-14.41,5.7-3.69,3.85-5.36,8.88-5.36,15.24v52.26h-28.64V48.64h27.81v13.23c3.35-5.03,7.54-8.88,12.9-11.56,5.19-2.68,11.22-4.02,17.76-4.02,11.06,0,19.43,3.35,24.79,9.72"/>
    <path class="cls-2" d="M287.77,140.44c-7.2-2.01-13.4-4.86-18.59-8.38l7.54-19.77c5.03,3.35,10.72,6.03,16.75,8.04,6.03,1.84,12.23,2.85,18.43,2.85,4.36,0,7.87-.67,10.39-2.18,2.51-1.51,3.69-3.52,3.69-6.03,0-2.35-.84-4.02-2.51-5.36-1.68-1.34-4.86-2.35-9.55-3.35l-15.24-3.35c-9.05-2.01-15.58-5.19-19.93-9.38-4.19-4.19-6.37-10.05-6.37-17.42,0-5.86,1.68-10.89,5.03-15.41,3.35-4.36,8.04-7.87,14.24-10.39,6.2-2.51,13.07-3.85,20.94-3.85,6.7,0,13.23,1.01,19.6,3.02,6.37,2.01,12.06,4.86,17.09,8.54l-7.54,18.93c-9.88-6.87-19.6-10.22-29.32-10.22-4.36,0-7.87.84-10.39,2.35-2.51,1.51-3.85,3.69-3.85,6.53,0,2.01.84,3.69,2.35,4.69,1.51,1.17,4.19,2.18,8.04,3.18l15.75,3.69c9.55,2.18,16.42,5.36,20.77,9.72,4.36,4.36,6.53,10.22,6.53,17.76,0,9.05-3.52,16.08-10.72,21.11-7.2,5.19-17.09,7.71-29.48,7.71-8.54,0-16.42-1.01-23.62-3.02"/>
    <path class="cls-2" d="M459.14,140.44c-7.2-2.01-13.4-4.86-18.59-8.38l7.54-19.77c5.03,3.35,10.72,6.03,16.75,8.04,6.03,1.84,12.23,2.85,18.43,2.85,4.36,0,7.87-.67,10.39-2.18,2.51-1.51,3.69-3.52,3.69-6.03,0-2.35-.84-4.02-2.51-5.36s-4.86-2.35-9.55-3.35l-15.24-3.35c-9.05-2.01-15.58-5.19-19.93-9.38-4.19-4.19-6.37-10.05-6.37-17.42,0-5.86,1.68-10.89,5.03-15.41,3.35-4.36,8.04-7.87,14.24-10.39s13.07-3.85,20.94-3.85c6.7,0,13.23,1.01,19.6,3.02,6.37,2.01,12.06,4.86,17.09,8.54l-7.54,18.93c-9.88-6.87-19.6-10.22-29.32-10.22-4.36,0-7.87.84-10.39,2.35-2.51,1.51-3.85,3.69-3.85,6.53,0,2.01.84,3.69,2.35,4.69,1.51,1.17,4.19,2.18,8.04,3.18l15.75,3.69c9.55,2.18,16.42,5.36,20.77,9.72,4.36,4.36,6.53,10.22,6.53,17.76,0,9.05-3.52,16.08-10.72,21.11-7.2,5.19-17.09,7.71-29.48,7.71-8.54,0-16.42-1.01-23.62-3.02"/>
    <polygon class="cls-1" points="57.1 7.6 .15 141.78 39.01 141.78 93.95 7.6 57.1 7.6"/>
    <polygon class="cls-2" points="100.65 11.95 82.23 57.01 116.9 141.78 155.93 141.78 100.65 11.95"/>
    <path class="cls-2" d="M0,152.84h366.24l.66-1.54H0v1.54ZM402.52,151.3l-.66,1.54h116.36v-1.54h-115.7Z"/>
    <polygon class="cls-2" points="414.62 48.64 399.49 83.86 382.05 48.64 353.74 48.64 385.31 116.89 369.89 152.8 398.2 152.8 442.93 48.64 414.62 48.64"/>
  </g>
</svg>
