<svg xmlns="http://www.w3.org/2000/svg" viewBox="0 20 1110 1140"><g transform="translate(0.000000,1416.000000) scale(0.100000,-0.100000)"><path d="M1970 13277 c-50 -25 -50 -24 -50 -615 l0 -553 25 -24 c22 -23 32&#xA;-25 117 -26 51 0 1092 -1 2313 -2 l2220 -2 185 -28 c181 -27 342 -65 470 -112&#xA;36 -13 83 -29 105 -35 69 -21 316 -145 413 -207 51 -33 145 -104 207 -157 179&#xA;-152 298 -307 428 -556 85 -163 133 -289 176 -467 43 -177 55 -293 55 -528 0&#xA;-240 -12 -356 -55 -540 -46 -201 -83 -293 -174 -436 -151 -241 -285 -370 -510&#xA;-493 -170 -92 -340 -138 -570 -152 -60 -4 -116 -11 -122 -17 -24 -18 -13 -47&#xA;40 -105 29 -31 67 -77 84 -102 44 -64 118 -216 137 -280 62 -208 57 -470 -11&#xA;-634 -27 -66 -25 -99 9 -117 31 -17 287 -5 353 15 28 9 88 23 135 31 153 27&#xA;287 82 610 252 149 78 371 254 541 429 181 187 358 453 490 740 64 140 165&#xA;459 188 599 6 33 17 92 25 130 57 262 76 742 43 1050 -17 154 -45 343 -52 356&#xA;-2 3 -9 37 -15 75 -6 38 -22 105 -35 149 -14 44 -33 109 -44 145 -10 36 -33&#xA;101 -51 145 -17 44 -39 103 -49 130 -32 88 -195 407 -255 500 -424 651 -1050&#xA;1101 -1831 1318 -77 22 -179 45 -375 87 -25 6 -132 19 -238 30 -188 19 -262&#xA;20 -2550 20 -1871 0 -2362 -3 -2382 -13z" fill="#FFFFFF"></path><path d="M4845 8340 c-1057 -6 -1005 -4 -1265 -61 -492 -109 -893 -343 -1215&#xA;-709 -130 -149 -168 -200 -252 -340 -208 -346 -333 -750 -369 -1190 -17 -220&#xA;-21 -2728 -4 -2761 6 -10 20 -19 32 -19 24 0 1086 1047 1104 1090 8 17 13 267&#xA;18 805 3 429 11 821 17 870 21 184 100 395 210 557 80 117 234 258 364 334 73&#xA;42 222 100 280 108 28 4 84 16 125 27 70 18 124 20 879 25 442 3 814 9 827 14&#xA;36 14 39 49 8 141 -36 112 -46 334 -20 456 48 219 148 417 270 530 31 29 56&#xA;60 56 71 0 29 -22 51 -55 55 -16 2 -471 0 -1010 -3z" fill="#FFFFFF"></path><path d="M3443 2280 c-12 -5 -26 -18 -32 -28 -7 -13 -11 -208 -13 -550 l-3&#xA;-530 24 -26 c32 -34 63 -33 116 5 39 28 45 30 68 18 103 -57 130 -69 175 -75&#xA;38 -5 68 -1 123 16 63 19 81 30 134 83 88 88 107 142 113 314 7 228 -43 359&#xA;-165 433 -56 34 -60 35 -163 35 -104 0 -105 0 -166 -38 -99 -62 -109 -47 -107&#xA;161 1 119 -1 145 -15 162 -21 23 -59 32 -89 20z m456 -458 c49 -40 69 -77 87&#xA;-163 19 -87 13 -208 -13 -290 -23 -71 -75 -122 -146 -145 l-54 -17 -59 27&#xA;c-128 59 -163 111 -168 249 -4 104 10 212 33 256 57 112 229 156 320 83z" fill="#FFFFFF"></path><path d="M5264 2257 l-26 -23 -2 -537 c-1 -524 -1 -537 19 -556 30 -31 76 -37&#xA;104 -14 l24 19 -2 533 c-1 293 -6 543 -11 556 -9 25 -38 45 -64 45 -8 0 -27&#xA;-10 -42 -23z" fill="#FFFFFF"></path><path d="M5625 2255 c-29 -28 -31 -45 -10 -84 24 -47 78 -56 113 -18 68 73&#xA;-33 173 -103 102z" fill="#FFFFFF"></path><path d="M910 2200 c-11 -11 -20 -26 -20 -32 -1 -7 -1 -238 0 -513 l1 -500 23&#xA;-24 c30 -29 71 -30 99 -2 20 20 22 34 27 191 7 225 -7 211 217 215 206 3 266&#xA;15 338 63 147 99 194 278 116 437 -36 72 -73 107 -163 154 l-61 31 -278 0&#xA;c-266 0 -280 -1 -299 -20z m516 -116 c47 -7 113 -59 135 -107 35 -78 20 -188&#xA;-34 -245 -46 -49 -72 -56 -244 -60 -89 -2 -173 -2 -187 2 -53 13 -56 24 -56&#xA;205 0 173 3 187 44 209 19 9 273 7 342 -4z" fill="#FFFFFF"></path><path d="M2756 1980 c-107 -19 -224 -108 -266 -203 -29 -65 -43 -167 -38 -285&#xA;3 -95 7 -115 35 -174 53 -112 144 -184 268 -213 198 -47 399 74 450 270 18 70&#xA;20 231 4 307 -25 118 -109 227 -212 277 -49 23 -168 34 -241 21z m184 -153&#xA;c96 -51 135 -148 128 -321 -3 -76 -10 -114 -27 -152 -66 -151 -234 -189 -356&#xA;-82 -62 55 -85 121 -85 243 0 126 13 181 58 240 71 93 187 123 282 72z" fill="#FFFFFF"></path><path d="M2215 1963 c-16 -9 -44 -27 -61 -40 -43 -32 -67 -29 -98 12 -33 43&#xA;-66 46 -96 8 -20 -26 -21 -33 -18 -411 l3 -384 28 -24 c35 -30 59 -30 93 -1&#xA;l27 24 -1 232 c-2 255 4 303 47 365 30 43 112 96 149 96 36 0 72 22 79 47 18&#xA;73 -74 118 -152 76z" fill="#FFFFFF"></path><path d="M4482 1945 c-117 -59 -174 -144 -124 -187 45 -40 89 -29 152 37 42&#xA;44 85 65 137 65 92 0 164 -44 184 -110 27 -88 -13 -120 -147 -120 -48 0 -116&#xA;-5 -150 -11 -116 -20 -219 -105 -245 -202 -23 -84 9 -195 73 -254 49 -46 117&#xA;-68 208 -68 92 1 154 21 212 70 39 33 61 32 105 -9 52 -46 100 -60 153 -46 28&#xA;8 45 19 53 37 12 27 16 22 -70 89 l-28 22 -3 238 c-2 168 -7 254 -17 290 -19&#xA;65 -79 134 -147 168 -47 23 -64 26 -164 26 -107 0 -114 -1 -182 -35z m313&#xA;-425 c37 -14 46 -48 30 -110 -27 -101 -89 -162 -193 -190 -78 -20 -172 28&#xA;-193 99 -14 46 4 92 54 140 31 32 67 42 202 59 39 5 71 10 72 10 1 1 13 -2 28&#xA;-8z" fill="#FFFFFF"></path><path d="M5650 1967 c-51 -26 -51 -32 -45 -437 8 -417 8 -420 69 -420 60 0 70&#xA;23 78 183 15 323 5 635 -22 661 -23 22 -53 27 -80 13z" fill="#FFFFFF"></path><path d="M6159 1967 c-94 -35 -154 -94 -203 -197 -28 -60 -31 -75 -34 -189 -6&#xA;-191 20 -290 97 -374 50 -54 119 -86 205 -94 83 -8 151 10 205 52 24 19 49 35&#xA;55 35 23 0 36 -25 36 -69 0 -150 -79 -218 -239 -209 -60 3 -76 8 -113 36 -70&#xA;54 -123 75 -150 61 -54 -29 -51 -68 10 -129 39 -40 61 -52 130 -74 176 -55&#xA;346 -16 434 101 70 93 71 98 73 563 2 449 0 461 -52 481 -34 13 -54 5 -87 -31&#xA;-14 -17 -33 -30 -42 -30 -9 0 -43 17 -77 38 -54 33 -68 37 -136 40 -45 1 -91&#xA;-3 -112 -11z m195 -118 c59 -16 123 -82 141 -143 23 -78 24 -271 2 -321 -25&#xA;-55 -91 -120 -144 -140 -89 -34 -193 5 -236 88 -41 79 -42 326 -2 410 22 46&#xA;65 86 111 102 48 17 77 18 128 4z" fill="#FFFFFF"></path><path d="M7063 1945 c-169 -85 -242 -250 -214 -484 25 -207 132 -325 338 -371&#xA;89 -21 220 19 297 90 56 52 75 100 52 135 -26 39 -58 32 -122 -26 -31 -28 -72&#xA;-57 -90 -65 -46 -19 -131 -17 -179 5 -106 48 -179 215 -113 258 7 4 126 10&#xA;264 13 230 5 254 7 273 24 27 25 27 77 1 182 -25 98 -73 171 -145 219 -75 50&#xA;-95 55 -199 55 -87 0 -98 -3 -163 -35z m225 -97 c113 -28 197 -187 116 -218&#xA;-14 -6 -98 -10 -187 -10 -176 0 -207 8 -207 54 0 30 54 110 92 138 34 23 93&#xA;47 121 48 10 0 39 -5 65 -12z" fill="#FFFFFF"></path><path d="M8098 1967 c-20 -8 -56 -26 -81 -40 -25 -15 -53 -27 -61 -27 -9 0&#xA;-33 16 -55 35 -21 19 -46 35 -55 35 -30 0 -54 -19 -60 -47 -3 -16 -7 -195 -8&#xA;-399 -3 -354 -2 -373 16 -393 21 -23 71 -28 97 -8 36 27 39 52 39 290 0 262 8&#xA;312 62 373 43 49 82 66 152 68 69 1 114 -19 150 -67 20 -27 21 -43 26 -329 l5&#xA;-300 28 -24 c35 -30 68 -31 101 -2 l26 23 2 275 c3 305 -3 358 -52 432 -17 26&#xA;-52 57 -86 78 -51 31 -68 35 -134 38 -45 1 -90 -3 -112 -11z" fill="#FFFFFF"></path><path d="M8893 1962 c-57 -20 -128 -74 -169 -127 -14 -19 -37 -69 -51 -112&#xA;-61 -195 -30 -390 83 -512 71 -77 130 -103 244 -108 165 -8 295 66 330 189 13&#xA;44 -9 78 -50 78 -24 0 -43 -14 -93 -64 -51 -53 -72 -67 -120 -81 -53 -15 -61&#xA;-15 -105 -1 -58 20 -103 64 -134 131 -19 44 -22 67 -23 180 0 125 1 132 30&#xA;190 42 82 89 118 165 123 33 2 71 1 86 -2 14 -4 59 -38 99 -76 41 -39 80 -70&#xA;88 -70 25 0 67 40 67 65 0 39 -81 136 -146 175 -54 33 -65 35 -154 38 -72 2&#xA;-108 -2 -147 -16z" fill="#FFFFFF"></path><path d="M9757 1970 c-108 -28 -205 -112 -247 -217 -18 -46 -24 -83 -28 -177&#xA;-6 -179 25 -290 109 -381 91 -98 288 -130 432 -70 50 21 134 91 152 126 15 28&#xA;15 33 1 54 -32 48 -64 42 -146 -26 -58 -48 -87 -59 -162 -59 -107 0 -188 58&#xA;-223 158 -12 37 -12 50 -2 71 23 49 43 52 283 45 289 -9 306 -1 290 131 -17&#xA;151 -82 259 -187 315 -56 30 -74 34 -149 37 -47 1 -102 -2 -123 -7z m190 -131&#xA;c40 -15 82 -57 104 -104 24 -52 24 -61 -6 -90 -24 -25 -27 -25 -192 -25 -136&#xA;0 -173 3 -191 16 -25 18 -28 53 -8 92 19 36 84 98 116 111 34 13 142 14 177 0z" fill="#FFFFFF"></path><path d="M6375 8150 c-145 -37 -214 -73 -329 -175 -165 -146 -241 -350 -217&#xA;-581 12 -111 16 -129 60 -233 36 -85 58 -117 154 -218 52 -55 89 -82 155 -116&#xA;48 -25 105 -49 127 -53 22 -4 64 -15 94 -25 70 -25 165 -24 238 0 32 11 73 23&#xA;91 26 58 12 183 75 248 127 62 48 148 152 178 213 53 108 67 154 77 252 22&#xA;217 -35 428 -150 557 -42 46 -169 145 -224 172 -135 69 -353 92 -502 54z" fill="#FFB006"></path><path d="M6040 6348 c-10 -4 -23 -15 -29 -26 -15 -28 -21 -3089 -6 -3169 4&#xA;-24 16 -40 38 -53 30 -18 56 -19 523 -20 l493 0 26 22 26 23 4 1583 c3 1130 1&#xA;1591 -7 1608 -6 13 -20 26 -30 30 -27 8 -1015 11 -1038 2z" fill="#FFB006"></path></g></svg>