<svg xmlns="http://www.w3.org/2000/svg" width="356" height="223" viewBox="0 0 2136 1338"><g transform="translate(0.000000,1338.000000) scale(0.100000,-0.100000)"><path d="M15720 12279 c-42 -17 -140 -120 -170 -180 -33 -64 -66 -94 -113&#xA;-105 -18 -3 -54 -17 -82 -29 -27 -12 -86 -39 -130 -58 -96 -43 -219 -106 -335&#xA;-172 -138 -78 -447 -285 -564 -378 -117 -94 -131 -99 -205 -72 -64 22 -135 29&#xA;-161 15 -62 -33 -144 -108 -166 -152 -28 -55 -44 -173 -33 -235 11 -59 -4 -87&#xA;-100 -188 -42 -45 -96 -107 -121 -140 -25 -32 -67 -84 -94 -114 -47 -54 -126&#xA;-166 -193 -274 -18 -29 -53 -81 -78 -117 -59 -83 -219 -354 -289 -490 -74&#xA;-143 -84 -152 -194 -160 -118 -9 -178 -44 -249 -148 -37 -53 -38 -56 -41 -161&#xA;-4 -114 -5 -109 68 -236 29 -52 24 -75 -33 -142 -34 -39 -48 -67 -61 -120 -9&#xA;-37 -39 -117 -65 -178 -27 -60 -51 -119 -54 -130 -3 -11 -23 -60 -45 -110 -44&#xA;-100 -64 -118 -140 -129 -64 -9 -99 -36 -154 -120 -80 -123 -82 -181 -12 -313&#xA;27 -51 34 -75 30 -98 -3 -16 -10 -56 -15 -89 -5 -32 -17 -66 -27 -77 -9 -10&#xA;-22 -47 -30 -83 -16 -77 -79 -202 -114 -228 -14 -10 -61 -28 -105 -40 -73 -20&#xA;-85 -27 -141 -82 -73 -73 -93 -124 -96 -241 -2 -92 12 -127 86 -218 70 -86 71&#xA;-90 47 -161 -11 -33 -28 -95 -37 -136 -9 -41 -28 -97 -41 -124 -14 -27 -31&#xA;-67 -38 -90 -59 -182 -154 -436 -210 -561 -37 -82 -84 -191 -105 -240 -112&#xA;-274 -315 -623 -546 -940 -253 -348 -386 -507 -492 -588 -30 -23 -77 -61 -104&#xA;-84 -26 -24 -63 -50 -81 -59 -17 -9 -52 -35 -75 -56 -24 -22 -72 -53 -106 -68&#xA;-35 -16 -85 -45 -111 -65 -26 -21 -77 -50 -113 -66 -35 -16 -84 -47 -109 -69&#xA;-25 -22 -50 -40 -54 -40 -5 0 -39 -14 -75 -31 -82 -37 -327 -117 -489 -159&#xA;-198 -52 -222 -60 -235 -76 -36 -42 81 -57 205 -26 44 11 104 23 133 27 92 12&#xA;243 61 347 113 55 27 111 53 125 57 138 42 388 190 635 376 198 149 515 485&#xA;668 709 33 47 98 136 145 198 48 62 101 140 119 174 18 33 41 70 52 82 11 12&#xA;29 43 41 70 11 27 34 64 51 83 16 19 80 134 141 256 116 232 157 325 188 417&#xA;9 30 38 108 64 173 25 66 46 128 46 139 0 11 16 55 35 98 22 49 35 93 35 119&#xA;0 27 11 63 29 99 17 33 34 88 41 131 17 115 85 221 143 221 11 0 48 8 81 17&#xA;52 14 70 27 133 90 63 63 75 82 93 140 30 99 11 171 -74 275 -60 74 -78 116&#xA;-66 154 5 16 38 110 74 209 76 209 88 225 168 225 66 0 125 28 178 86 55 60&#xA;80 116 80 184 0 73 -15 123 -57 192 -51 83 -52 114 -7 247 20 62 50 128 65&#xA;147 15 20 35 56 44 82 32 92 140 295 168 316 22 16 40 20 98 18 88 -3 154 24&#xA;230 94 64 61 94 113 110 190 11 52 10 70 -4 127 -10 36 -17 81 -17 98 0 38 36&#xA;88 82 117 35 22 84 80 74 89 -11 12 -75 -9 -120 -38 -53 -36 -92 -34 -101 4&#xA;-8 29 47 157 123 287 30 52 69 119 86 148 17 29 59 91 94 138 35 47 74 111 88&#xA;142 13 31 39 71 58 87 18 17 78 86 132 155 114 145 246 285 287 307 27 13 34&#xA;13 88 -8 73 -27 137 -22 216 16 91 45 116 86 143 241 11 61 10 74 -4 102 -20&#xA;39 -21 86 -1 102 9 7 37 23 63 35 26 12 72 44 102 72 105 95 359 273 525 368&#xA;126 72 432 207 517 228 35 9 64 -3 129 -52 29 -22 74 -45 100 -51 95 -23 199&#xA;32 268 139 18 27 45 54 61 61 22 9 263 13 987 14 703 2 965 6 986 14 36 15 99&#xA;15 131 1 14 -7 45 -37 69 -69 111 -143 261 -137 358 12 52 81 52 112 -3 196&#xA;-49 76 -94 101 -176 102 -74 0 -114 -20 -186 -95 -62 -63 -65 -65 -114 -65&#xA;-28 0 -63 5 -79 12 -26 10 -348 14 -1822 18 l-163 0 -72 74 c-39 41 -88 82&#xA;-108 90 -42 18 -120 20 -158 5z" fill="#FFFFFF"></path><path d="M11162 12144 c-7 -3 -20 -20 -29 -37 -16 -30 -17 -123 -18 -1238 0&#xA;-1173 1 -1207 19 -1228 22 -24 58 -28 75 -7 6 7 19 37 30 67 10 30 38 99 63&#xA;154 25 55 57 129 73 165 42 99 94 189 135 234 21 23 43 58 49 78 7 21 43 73&#xA;79 116 37 43 96 116 132 162 95 122 199 242 232 266 15 12 42 40 58 62 16 23&#xA;55 58 87 78 32 20 82 59 110 86 29 27 70 56 90 65 21 8 65 40 97 71 33 30 87&#xA;68 121 83 33 16 114 63 180 105 326 206 833 486 1032 569 45 19 134 78 153&#xA;100 33 39 1 43 -433 47 -623 7 -2320 8 -2335 2z" fill="#FFFFFF"></path><path d="M6455 12109 c-93 -4 -201 -12 -240 -18 -38 -5 -131 -17 -205 -26 -74&#xA;-9 -187 -27 -250 -40 -63 -13 -137 -27 -165 -30 -27 -4 -97 -20 -154 -36 -57&#xA;-16 -110 -29 -116 -29 -31 0 -349 -108 -455 -154 -201 -88 -482 -219 -580&#xA;-269 -104 -54 -320 -192 -411 -264 -283 -221 -448 -381 -602 -586 -230 -305&#xA;-354 -530 -443 -804 -8 -24 -21 -64 -30 -90 -15 -47 -22 -72 -69 -248 -13 -49&#xA;-29 -133 -35 -185 -6 -52 -15 -131 -20 -176 -23 -187 -23 -298 -1 -526 26&#xA;-262 31 -297 60 -403 117 -418 223 -626 467 -916 235 -278 596 -548 960 -718&#xA;157 -73 203 -93 404 -173 225 -89 652 -236 840 -289 117 -33 385 -103 471&#xA;-125 31 -7 74 -20 95 -28 22 -8 59 -20 84 -26 25 -6 81 -22 125 -35 44 -13&#xA;125 -37 180 -54 372 -110 588 -187 758 -272 209 -105 409 -264 534 -426 63&#xA;-81 139 -239 173 -359 24 -85 32 -136 37 -234 5 -120 4 -130 -31 -264 -58&#xA;-220 -119 -342 -235 -468 -174 -191 -544 -363 -896 -418 -86 -14 -107 -30 -79&#xA;-61 19 -21 22 -22 247 -15 126 4 262 14 302 21 367 70 710 195 965 351 47 28&#xA;100 59 118 68 151 77 483 383 617 569 67 93 128 179 223 316 65 93 179 301&#xA;219 400 59 145 163 433 163 452 0 9 20 84 44 166 111 375 126 439 114 504 -30&#xA;167 -199 382 -559 709 -114 104 -309 245 -452 328 -95 54 -336 177 -407 207&#xA;-30 13 -93 40 -140 60 -117 50 -267 101 -695 237 -104 33 -229 73 -277 89 -47&#xA;16 -94 29 -103 29 -9 0 -49 11 -89 25 -39 14 -108 34 -151 46 -319 86 -526&#xA;149 -687 210 -42 16 -82 29 -88 29 -34 0 -414 177 -527 246 -242 147 -359 280&#xA;-436 492 -30 83 -31 94 -32 242 0 149 1 158 31 240 46 127 87 201 154 282 143&#xA;172 333 296 550 359 36 10 81 25 100 33 51 22 272 74 365 86 44 6 195 14 337&#xA;17 383 9 527 -7 843 -89 197 -51 357 -103 451 -147 24 -12 49 -21 55 -21 34 0&#xA;436 -218 594 -323 77 -51 230 -163 273 -199 42 -36 94 -38 117 -5 64 89 411&#xA;629 530 822 62 101 340 510 442 649 53 73 57 114 15 154 -119 114 -323 268&#xA;-522 395 -127 81 -539 295 -685 356 -224 93 -581 205 -745 233 -30 5 -116 22&#xA;-190 38 -74 16 -169 31 -210 35 -41 4 -129 16 -195 26 -214 36 -493 45 -850&#xA;28z" fill="#FFFFFF"></path><path d="M17073 11198 c-26 -13 -98 -105 -114 -144 -8 -22 -5 -37 16 -80 35&#xA;-71 60 -101 106 -124 48 -25 105 -25 145 -1 29 17 108 112 133 159 14 26 8 42&#xA;-42 115 -25 38 -51 64 -73 73 -39 16 -139 17 -171 2z" fill="#FFFFFF"></path><path d="M19880 11188 c-43 -12 -73 -39 -105 -94 -32 -55 -32 -69 8 -129 22&#xA;-35 46 -57 80 -74 45 -22 52 -23 103 -12 66 15 119 57 128 102 8 41 -9 101&#xA;-42 151 -42 64 -90 79 -172 56z" fill="#FFFFFF"></path><path d="M15747 10186 c-53 -19 -62 -29 -102 -111 l-36 -74 35 -74 c41 -88 77&#xA;-121 150 -138 48 -10 61 -10 102 6 109 42 164 149 130 253 -37 110 -89 152&#xA;-186 152 -30 -1 -72 -7 -93 -14z" fill="#FFFFFF"></path><path d="M18240 10122 c-28 -13 -40 -29 -58 -76 -29 -73 -24 -114 21 -162 63&#xA;-68 158 -53 242 37 37 39 45 54 39 72 -10 31 -80 124 -103 137 -30 16 -102 12&#xA;-141 -8z" fill="#FFFFFF"></path><path d="M11037 9481 c-66 -19 -146 -74 -165 -114 -15 -32 -3 -149 25 -226 26&#xA;-75 12 -101 -100 -193 -25 -21 -65 -71 -90 -110 -24 -40 -78 -127 -119 -194&#xA;-41 -67 -94 -159 -118 -205 -23 -46 -52 -102 -63 -124 -11 -22 -29 -56 -39&#xA;-76 -27 -53 -88 -231 -82 -241 5 -7 50 50 124 157 26 37 77 120 126 205 80&#xA;139 139 235 169 274 67 88 171 253 189 299 20 53 62 87 106 87 14 0 43 -11 65&#xA;-25 54 -33 102 -32 175 5 108 54 159 129 146 214 -11 65 -45 168 -63 188 -9&#xA;10 -49 36 -89 58 -81 44 -106 47 -197 21z" fill="#FFFFFF"></path><path d="M13350 9330 c-10 -10 -28 -37 -39 -59 -11 -21 -55 -93 -98 -159 -43&#xA;-66 -85 -133 -95 -149 -9 -15 -51 -84 -93 -153 -147 -240 -274 -533 -341 -790&#xA;-23 -86 -25 -115 -26 -306 -1 -233 5 -269 50 -281 18 -4 39 1 67 17 134 76&#xA;449 225 525 249 54 17 98 48 120 83 19 32 20 52 20 781 0 497 -3 755 -10 768&#xA;-14 25 -54 25 -80 -1z" fill="#FFFFFF"></path><path d="M12647 6641 c-56 -59 -69 -81 -45 -81 17 0 128 111 128 127 0 27 -29&#xA;11 -83 -46z" fill="#FFFFFF"></path><path d="M12378 6323 c-29 -31 -47 -83 -29 -83 18 0 80 63 83 85 5 30 -24 29&#xA;-54 -2z" fill="#FFFFFF"></path><path d="M12248 6173 c-79 -75 -218 -267 -218 -302 0 -25 3 -25 38 -7 47 25&#xA;119 108 170 196 27 47 59 102 72 123 19 32 20 37 6 37 -9 0 -40 -21 -68 -47z" fill="#FFFFFF"></path><path d="M9742 5858 c-7 -7 -12 -23 -12 -36 0 -32 34 -26 38 7 5 29 -10 45&#xA;-26 29z" fill="#FFFFFF"></path><path d="M11958 5783 c-35 -39 -76 -103 -131 -205 -51 -93 -58 -128 -29 -128&#xA;31 0 68 50 131 177 82 163 93 225 29 156z" fill="#FFFFFF"></path><path d="M13027 5779 l-318 -7 -62 -38 c-84 -51 -87 -53 -192 -184 -51 -63&#xA;-136 -160 -189 -215 -54 -55 -112 -122 -130 -150 -36 -55 -200 -243 -274 -315&#xA;-26 -25 -69 -74 -97 -109 -50 -63 -253 -278 -477 -504 -82 -83 -126 -135 -145&#xA;-175 l-28 -57 -2 -925 c-1 -509 1 -1059 5 -1222 7 -292 7 -298 30 -320 l23&#xA;-23 1027 -1 c565 0 1056 -3 1092 -7 74 -8 108 4 126 43 9 19 13 564 15 2097 4&#xA;2062 4 2073 -16 2092 -11 10 -31 21 -45 23 -14 2 -168 1 -343 -3z" fill="#FFFFFF"></path><path d="M9798 5433 c-8 -10 -70 -125 -137 -256 -67 -131 -143 -271 -169 -312&#xA;-26 -41 -65 -104 -87 -140 -22 -37 -70 -112 -106 -168 -79 -123 -93 -147 -80&#xA;-147 21 0 183 150 314 290 43 47 71 70 77 64 7 -7 0 -24 -19 -50 -16 -21 -32&#xA;-50 -36 -64 -14 -47 -64 -125 -106 -165 -23 -22 -65 -71 -94 -110 -89 -119&#xA;-381 -400 -600 -577 -141 -114 -164 -148 -100 -148 28 0 46 9 83 43 58 53 129&#xA;111 193 158 119 87 509 519 667 739 8 11 27 51 43 91 16 39 41 85 55 103 39&#xA;47 134 198 140 223 8 30 -2 53 -22 53 -9 0 -37 -18 -62 -40 -51 -45 -79 -49&#xA;-74 -10 2 14 30 75 63 136 70 132 88 181 91 241 2 52 -12 71 -34 46z" fill="#FFFFFF"></path><path d="M11700 5355 c-6 -8 -10 -22 -8 -31 3 -17 4 -17 21 0 18 18 23 46 8&#xA;46 -5 0 -14 -7 -21 -15z" fill="#FFFFFF"></path><path d="M3453 4879 c-85 -25 -151 -150 -122 -233 19 -52 75 -97 131 -103 43&#xA;-5 44 -4 62 35 10 22 43 65 72 95 57 57 68 93 43 138 -9 18 -129 81 -147 78&#xA;-4 0 -21 -5 -39 -10z" fill="#FFFFFF"></path><path d="M3980 4311 c0 -12 67 -72 113 -99 20 -13 37 -28 37 -32 0 -5 34 -34&#xA;75 -65 41 -30 75 -59 75 -65 0 -5 27 -28 60 -50 67 -46 73 -65 44 -136 -20&#xA;-47 -15 -134 10 -185 36 -75 80 -115 156 -139 89 -29 163 -24 241 15 52 27 86&#xA;34 267 52 79 7 79 23 3 69 -82 47 -91 63 -91 153 0 70 -3 81 -34 132 -39 61&#xA;-98 108 -175 139 -83 32 -125 27 -238 -30 -97 -50 -127 -58 -137 -41 -3 5 -32&#xA;26 -63 47 -65 42 -133 94 -228 172 -64 52 -115 80 -115 63z" fill="#FFFFFF"></path><path d="M2484 4192 c-43 -21 -94 -75 -120 -130 -40 -84 3 -194 101 -260 54&#xA;-36 54 -36 218 -16 56 7 98 -7 130 -45 26 -30 132 -122 232 -202 39 -31 158&#xA;-132 265 -224 187 -160 266 -215 310 -215 65 0 -27 121 -181 238 -63 48 -155&#xA;122 -205 166 -49 43 -132 112 -184 154 -52 42 -134 112 -183 156 l-87 79 2 81&#xA;c3 73 0 86 -25 129 -40 67 -94 100 -171 104 -44 3 -72 -2 -102 -15z" fill="#FFFFFF"></path><path d="M1270 3687 l-34 -12 -2 -88 c-2 -83 0 -89 24 -107 26 -21 111 -50&#xA;147 -50 22 0 65 39 83 75 14 29 5 45 -66 125 -68 75 -82 81 -152 57z" fill="#FFFFFF"></path><path d="M3785 3075 c-22 -8 -41 -15 -42 -15 -9 0 -32 -65 -42 -116 -25 -130&#xA;44 -214 177 -214 76 0 119 15 136 49 15 27 30 123 29 178 -2 98 -139 161 -258&#xA;118z" fill="#FFFFFF"></path><path d="M2667 2786 c-97 -35 -167 -121 -167 -205 0 -76 81 -160 173 -181 50&#xA;-11 117 4 174 39 44 28 80 138 64 198 -31 114 -146 185 -244 149z" fill="#FFFFFF"></path><path d="M4729 2141 c20 -37 204 -162 218 -148 4 5 -41 43 -158 135 -47 37&#xA;-76 43 -60 13z" fill="#FFFFFF"></path><path d="M4983 1955 c25 -22 57 -33 57 -20 0 8 -63 45 -75 45 -5 -1 3 -12 18&#xA;-25z" fill="#FFFFFF"></path><path d="M6106 1598 c-99 -13 -198 -72 -198 -118 1 -191 -1 -182 47 -248 25&#xA;-34 53 -65 62 -70 10 -5 51 -14 90 -21 68 -12 76 -11 115 8 44 21 119 106 138&#xA;156 5 14 10 47 10 73 0 56 -45 130 -109 181 -52 41 -82 49 -155 39z" fill="#FFFFFF"></path><path d="M5762 1543 c2 -10 14 -19 26 -21 19 -3 23 1 20 15 -2 10 -14 19 -26&#xA;21 -19 3 -23 -1 -20 -15z" fill="#FFFFFF"></path><path d="M18347 12320 c-16 -5 -35 -15 -44 -22 -9 -7 -34 -22 -56 -33 -31 -15&#xA;-48 -33 -67 -70 -25 -50 -29 -52 -112 -70 -16 -3 -28 -12 -28 -20 0 -8 12 -17&#xA;28 -21 15 -3 35 -8 45 -11 30 -8 106 36 132 77 33 52 68 77 126 89 54 12 127&#xA;1 165 -24 26 -17 102 -128 110 -161 9 -35 -57 -146 -112 -188 -51 -39 -90 -51&#xA;-138 -42 -50 10 -120 59 -155 110 -18 25 -45 53 -61 61 -32 16 -107 20 -129 6&#xA;-24 -15 -1 -31 44 -31 55 0 97 -39 113 -103 6 -24 20 -51 30 -60 18 -16 89&#xA;-41 155 -54 44 -9 206 27 232 51 22 21 65 137 65 177 0 39 27 87 52 91 54 7&#xA;22 97 -68 192 -34 35 -41 37 -75 32 -32 -5 -40 -3 -49 14 -9 18 -20 20 -93 19&#xA;-45 0 -95 -5 -110 -9z" fill="#FFB006"></path><path d="M13891 12062 c-71 -48 -83 -67 -55 -87 12 -8 25 -26 28 -40 4 -14 13&#xA;-25 21 -25 17 0 45 38 45 60 0 9 11 31 25 50 29 39 32 65 9 74 -19 7 -9 12&#xA;-73 -32z" fill="#FFB006"></path><path d="M13590 11555 c-6 -8 -9 -19 -5 -25 9 -14 45 6 45 25 0 19 -24 19 -40&#xA;0z" fill="#FFB006"></path><path d="M19840 11413 c-25 -8 -63 -19 -85 -26 -61 -18 -126 -67 -156 -117&#xA;-30 -50 -35 -80 -17 -98 10 -9 9 -16 -4 -28 -39 -39 -360 -53 -1253 -55 -653&#xA;-1 -746 1 -790 15 -27 9 -60 16 -72 16 -31 0 -56 28 -49 56 4 13 1 28 -6 34&#xA;-102 85 -151 104 -257 98 -101 -6 -152 -34 -205 -113 -71 -107 -61 -106 -1176&#xA;-101 -725 3 -924 7 -1050 20 -85 9 -203 16 -262 16 -98 1 -108 2 -108 19 0 10&#xA;-6 24 -14 30 -12 10 -19 8 -35 -8 -26 -26 -26 -46 -1 -94 22 -41 25 -73 10&#xA;-111 -5 -14 -7 -33 -4 -41 6 -14 9 -14 33 2 52 36 289 44 1381 49 1054 6 1109&#xA;4 1168 -33 13 -8 28 -27 33 -43 13 -35 94 -105 155 -132 48 -21 76 -20 158 3&#xA;45 13 139 97 162 145 15 32 50 53 89 55 11 0 358 3 771 5 789 6 1288 -5 1338&#xA;-28 31 -14 66 -81 66 -126 0 -35 8 -45 50 -71 22 -13 52 -21 80 -21 34 0 48&#xA;-5 58 -20 11 -17 23 -20 97 -20 85 0 159 20 255 70 50 26 140 194 140 264 0&#xA;65 -26 162 -58 214 -15 23 -36 57 -47 75 -29 46 -123 93 -212 106 -91 14 -125&#xA;12 -183 -6z m-2557 -244 c41 -47 87 -122 87 -142 0 -15 -37 -66 -103 -142 -63&#xA;-72 -158 -76 -229 -9 -29 29 -88 136 -88 161 0 19 86 139 113 159 17 12 42 15&#xA;105 12 82 -3 84 -4 115 -39z m2731 10 c67 -53 102 -166 69 -229 -36 -70 -177&#xA;-101 -241 -53 -40 30 -91 105 -91 134 -1 36 64 135 97 148 70 27 132 27 166 0z" fill="#FFB006"></path><path d="M13170 11359 c-50 -23 -206 -59 -258 -59 -18 0 -50 10 -70 22 -57 32&#xA;-96 20 -189 -59 -43 -36 -88 -69 -101 -74 -41 -16 -112 -82 -133 -125 -11 -24&#xA;-27 -48 -35 -55 -9 -7 -29 -33 -46 -57 -20 -29 -46 -51 -76 -64 -58 -26 -133&#xA;-79 -197 -138 -27 -25 -68 -58 -91 -73 -48 -32 -71 -72 -53 -93 21 -25 42 -15&#xA;108 51 68 68 207 175 227 175 6 0 28 13 49 30 46 37 100 49 122 27 14 -14 13&#xA;-19 -18 -47 -19 -17 -61 -50 -93 -73 -129 -91 -407 -361 -661 -639 -171 -188&#xA;-208 -219 -221 -185 -7 18 11 63 39 98 12 15 34 48 49 72 24 38 26 48 18 78&#xA;-6 19 -8 47 -4 62 5 24 3 28 -13 25 -26 -5 -85 -98 -138 -218 -110 -249 -144&#xA;-328 -162 -375 -20 -53 -18 -52 -92 -43 -20 2 -26 -3 -33 -29 -5 -19 -25 -46&#xA;-48 -64 -64 -52 -49 -62 47 -32 52 16 54 16 81 -4 16 -11 56 -35 90 -52 60&#xA;-30 82 -53 82 -86 0 -9 8 -35 19 -58 10 -23 21 -49 24 -57 3 -8 6 10 6 41 1&#xA;64 19 94 79 130 20 13 69 46 107 74 39 28 122 79 185 114 63 34 126 68 140 76&#xA;63 36 313 155 338 161 15 4 44 15 65 26 21 11 75 27 120 37 45 10 111 28 147&#xA;39 197 63 398 108 527 119 47 4 56 9 83 43 49 61 43 67 -57 62 -155 -7 -477&#xA;-77 -683 -148 -25 -8 -85 -28 -135 -44 -144 -45 -236 -78 -249 -90 -7 -5 -31&#xA;-16 -54 -24 -42 -15 -252 -127 -333 -177 -53 -33 -69 -36 -69 -12 0 25 88 104&#xA;199 179 53 35 110 75 127 87 34 23 70 46 140 87 24 14 74 46 111 71 123 83&#xA;166 109 178 109 7 0 29 13 49 29 20 16 50 32 65 36 16 3 37 15 46 25 10 11 43&#xA;29 74 41 31 11 61 25 67 30 6 5 36 18 67 28 30 11 66 26 79 35 12 8 46 20 73&#xA;26 28 6 70 21 95 34 25 13 73 26 108 30 34 4 81 14 105 22 23 8 76 19 117 25&#xA;41 5 88 15 103 21 56 22 53 68 -4 68 -93 0 -305 -57 -409 -110 -21 -11 -48&#xA;-20 -59 -20 -27 0 -113 -32 -246 -92 -60 -27 -137 -61 -170 -75 -115 -48 -319&#xA;-148 -345 -168 -8 -6 -49 -31 -90 -55 -41 -24 -94 -55 -118 -69 -67 -41 -231&#xA;-157 -292 -207 -134 -109 -160 -123 -160 -83 0 12 27 49 64 87 35 37 86 93&#xA;112 124 206 239 479 509 628 618 163 120 241 166 370 217 61 25 147 60 191 78&#xA;108 44 163 61 275 84 52 11 107 24 122 30 29 11 227 38 330 44 73 5 82 0 106&#xA;-56 19 -44 36 -27 44 43 4 37 18 85 33 113 14 27 25 52 25 57 0 21 -398 -5&#xA;-613 -41 -65 -11 -122 -17 -127 -14 -22 13 -7 36 43 70 99 67 136 100 136 121&#xA;1 19 -16 34 -37 34 -4 0 -27 -10 -52 -21z" fill="#FFB006"></path><path d="M11581 10374 c-22 -29 -27 -54 -11 -54 10 0 50 58 50 73 0 15 -19 6&#xA;-39 -19z" fill="#FFB006"></path><path d="M15745 10256 c-34 -15 -71 -39 -85 -56 -14 -18 -41 -49 -60 -69 l-35&#xA;-38 -260 -7 c-143 -4 -318 -7 -390 -8 -175 -1 -544 -42 -620 -68 -33 -12 -89&#xA;-27 -125 -35 -82 -17 -448 -139 -515 -171 -27 -14 -86 -44 -130 -69 -44 -25&#xA;-102 -56 -130 -70 -27 -14 -71 -38 -96 -53 -26 -15 -69 -39 -95 -54 -27 -14&#xA;-60 -38 -73 -52 l-24 -26 23 0 c27 0 153 55 189 82 13 10 35 18 49 18 24 0 25&#xA;-1 7 -20 -10 -11 -23 -20 -29 -20 -43 -1 -293 -206 -283 -232 2 -7 10 -13 18&#xA;-12 17 1 129 83 129 94 0 35 545 313 710 363 47 14 128 39 180 55 52 17 138&#xA;35 190 42 52 7 131 20 175 31 44 10 134 23 200 28 66 6 181 15 255 22 163 13&#xA;607 7 639 -10 11 -7 30 -30 41 -52 98 -191 337 -215 447 -44 65 101 58 96 170&#xA;107 157 14 1813 6 1839 -9 11 -7 28 -32 38 -56 29 -77 122 -136 217 -137 104&#xA;-1 237 78 278 165 17 36 18 52 11 150 -8 101 -11 111 -34 128 -14 10 -26 25&#xA;-26 32 0 25 -31 45 -69 45 -21 0 -63 5 -94 11 -50 10 -65 9 -129 -11 -100 -31&#xA;-99 -30 -134 -96 -18 -36 -42 -66 -62 -77 -58 -34 -210 -39 -1072 -35 -919 3&#xA;-863 -1 -894 71 -18 42 -101 122 -147 141 -68 29 -128 29 -194 2z m192 -73&#xA;c28 -13 43 -31 69 -87 19 -39 34 -84 34 -101 0 -85 -45 -154 -125 -194 -39&#xA;-19 -56 -22 -97 -17 -93 13 -123 36 -169 130 l-41 84 35 74 c38 80 60 105 103&#xA;118 51 15 153 11 191 -7z m2454 -53 c10 -6 26 -25 35 -43 9 -18 27 -45 40 -60&#xA;13 -16 24 -37 24 -48 0 -27 -98 -117 -140 -129 -87 -25 -154 4 -180 78 -13 38&#xA;-13 47 5 99 26 79 35 92 70 102 42 13 123 13 146 1z m-3090 -121 c52 -27 -40&#xA;-40 -129 -17 -42 11 -45 13 -22 19 39 11 129 10 151 -2z m198 -3 c9 -11 8 -15&#xA;-5 -20 -26 -10 -82 -7 -90 5 -16 27 73 41 95 15z m-1393 -127 c10 -17 -8 -28&#xA;-59 -35 -56 -8 -64 9 -14 31 39 17 64 19 73 4z m-178 -71 c-5 -15 -58 -24 -58&#xA;-9 0 11 17 19 43 20 11 1 17 -4 15 -11z m-143 -48 c0 -8 -31 -26 -73 -41 -40&#xA;-15 -78 -32 -85 -37 -13 -11 -116 -52 -130 -52 -15 0 79 68 104 75 13 4 41 18&#xA;61 32 36 24 92 43 113 39 6 -2 10 -9 10 -16z" fill="#FFB006"></path><path d="M13935 10263 c-22 -2 -71 -10 -110 -17 -202 -42 -335 -48 -367 -19&#xA;-15 13 -23 15 -36 6 -21 -12 -47 -77 -39 -96 9 -24 128 -32 200 -13 34 9 112&#xA;20 172 26 61 5 160 16 220 24 135 18 329 27 541 26 128 -1 163 2 172 13 10 11&#xA;9 17 -3 27 -12 10 -62 11 -223 6 -164 -6 -228 -4 -307 8 -96 15 -132 17 -220&#xA;9z" fill="#FFB006"></path><path d="M13050 9445 c-10 -12 -10 -15 3 -15 8 0 20 7 27 15 10 12 10 15 -3&#xA;15 -8 0 -20 -7 -27 -15z" fill="#FFB006"></path><path d="M10841 9287 c-26 -32 -25 -84 3 -136 32 -63 32 -78 1 -121 -15 -21&#xA;-21 -36 -15 -38 15 -5 58 35 76 70 13 25 12 32 -5 65 -10 21 -22 63 -26 93 -9&#xA;71 -17 86 -34 67z" fill="#FFB006"></path><path d="M12368 9205 c-2 -3 -31 -10 -64 -16 -40 -7 -111 -37 -219 -93 -269&#xA;-139 -482 -258 -532 -297 -26 -21 -66 -48 -88 -60 -22 -12 -62 -43 -90 -68&#xA;-27 -26 -81 -62 -118 -81 -109 -54 -217 -177 -338 -384 -19 -32 -51 -73 -73&#xA;-90 -21 -17 -47 -48 -57 -69 -11 -21 -42 -62 -69 -92 -28 -31 -50 -59 -50 -64&#xA;0 -4 -13 -25 -30 -46 -16 -21 -30 -44 -30 -52 0 -28 -116 -227 -157 -270 -24&#xA;-25 -43 -52 -43 -61 0 -10 -19 -57 -41 -107 -22 -49 -58 -141 -80 -204 -21&#xA;-62 -43 -119 -48 -125 -6 -7 -33 -67 -60 -135 -28 -68 -64 -145 -81 -171 -16&#xA;-25 -30 -51 -30 -57 0 -6 -12 -28 -27 -49 -51 -75 -178 -398 -209 -537 -17&#xA;-74 -37 -93 -61 -61 -19 25 -12 91 21 209 14 50 39 149 56 220 17 72 48 189&#xA;69 260 22 72 53 180 71 240 17 61 42 144 55 185 14 41 36 111 49 155 14 44 58&#xA;168 97 275 39 107 77 217 84 243 8 26 18 54 24 61 13 15 50 118 58 159 9 46&#xA;-16 31 -39 -22 -20 -49 -42 -69 -53 -51 -12 19 -26 10 -43 -28 -9 -20 -27 -51&#xA;-40 -69 -12 -17 -26 -52 -31 -78 -5 -25 -15 -53 -23 -63 -9 -9 -32 -62 -53&#xA;-117 -93 -248 -120 -332 -212 -660 -90 -321 -109 -385 -142 -470 -17 -44 -31&#xA;-98 -31 -121 0 -28 -8 -54 -26 -80 -22 -32 -25 -45 -20 -81 5 -41 -8 -108 -54&#xA;-268 -56 -195 -75 -258 -91 -309 -10 -33 -19 -69 -19 -81 0 -24 -42 -143 -126&#xA;-360 -30 -77 -54 -144 -54 -149 0 -4 -29 -56 -64 -115 -35 -58 -66 -115 -70&#xA;-126 -3 -11 -29 -51 -56 -90 -28 -38 -67 -95 -87 -125 -20 -30 -57 -83 -82&#xA;-117 -25 -34 -68 -92 -96 -129 -52 -71 -234 -258 -345 -354 -80 -69 -196 -153&#xA;-251 -180 -22 -12 -71 -41 -108 -64 -95 -61 -319 -167 -441 -208 -218 -75&#xA;-318 -102 -545 -147 -27 -5 -156 -13 -286 -17 -251 -7 -239 -9 -273 40 -12 17&#xA;-31 21 -157 27 -150 8 -200 14 -284 29 -27 5 -105 19 -172 30 -67 11 -137 27&#xA;-157 35 -19 8 -76 24 -126 35 -50 11 -107 27 -125 34 -18 8 -59 19 -92 26 -32&#xA;6 -80 20 -108 31 -27 10 -79 28 -115 38 -76 22 -179 63 -233 92 -38 20 -57 19&#xA;-57 -5 0 -21 52 -63 115 -93 83 -39 80 -58 -10 -59 -146 -3 -237 -19 -285 -50&#xA;-39 -26 -51 -29 -124 -29 -45 1 -98 5 -120 10 -51 11 -46 -8 14 -50 29 -21 47&#xA;-42 52 -63 5 -17 18 -38 31 -47 78 -55 140 -93 202 -124 39 -20 84 -46 101&#xA;-58 17 -12 49 -26 72 -31 22 -5 54 -19 70 -31 45 -32 174 -91 198 -91 12 0 37&#xA;-6 55 -14 45 -19 350 -92 419 -101 30 -3 116 -22 190 -40 274 -68 265 -67 639&#xA;-70 197 -1 376 -7 416 -14 39 -6 126 -18 195 -26 137 -17 170 -32 129 -59 -13&#xA;-8 -56 -19 -94 -25 -39 -5 -101 -14 -140 -20 -284 -42 -340 -46 -635 -44 -162&#xA;1 -324 6 -360 12 -36 5 -119 19 -185 30 -133 23 -386 53 -392 47 -2 -2 15 -15&#xA;39 -28 52 -30 250 -83 368 -97 47 -6 121 -18 165 -27 171 -33 682 -48 880 -25&#xA;403 45 459 54 604 91 199 51 311 53 271 5 -6 -7 -25 -17 -41 -20 -16 -4 -43&#xA;-18 -59 -31 -15 -14 -52 -33 -82 -43 -29 -10 -105 -38 -168 -61 -125 -45 -352&#xA;-93 -520 -110 -58 -6 -139 -17 -180 -25 -198 -37 -232 -40 -470 -39 -217 0&#xA;-264 4 -410 28 -224 36 -277 49 -485 118 -227 75 -329 89 -267 36 25 -21 193&#xA;-93 292 -123 47 -15 99 -33 116 -40 37 -16 139 -36 319 -65 258 -40 847 -54&#xA;1011 -24 49 9 134 17 189 16 60 0 134 7 185 18 99 21 386 104 439 127 20 8 68&#xA;26 106 39 39 12 103 34 143 49 71 25 117 26 110 2 -4 -13 -240 -133 -350 -179&#xA;-36 -15 -100 -36 -142 -48 -43 -11 -94 -29 -115 -39 -36 -18 -233 -67 -384&#xA;-96 -42 -8 -95 -24 -117 -35 -22 -11 -86 -27 -142 -36 -57 -9 -125 -22 -153&#xA;-30 -81 -22 -276 -38 -480 -39 -174 0 -199 2 -302 28 -61 15 -124 27 -138 27&#xA;-15 0 -57 13 -94 29 -37 17 -95 34 -129 40 -35 6 -78 19 -97 31 -18 11 -62 30&#xA;-97 41 -34 11 -87 34 -117 50 -29 17 -56 27 -59 24 -14 -14 176 -145 210 -145&#xA;8 0 37 -11 63 -25 26 -14 77 -33 113 -41 36 -8 78 -22 95 -30 16 -9 68 -19&#xA;115 -24 48 -5 114 -19 147 -32 56 -20 79 -22 389 -26 273 -3 336 -1 370 11 22&#xA;8 91 18 151 21 61 4 135 13 165 22 30 9 82 23 115 31 90 22 345 104 385 123&#xA;19 10 52 20 74 24 21 4 55 16 75 27 20 10 46 19 58 19 12 0 62 16 110 36 48&#xA;20 115 47 148 59 33 13 94 38 135 55 41 18 120 49 175 70 55 20 118 47 140 59&#xA;65 35 115 23 63 -14 -85 -61 -442 -278 -490 -298 -18 -8 -70 -35 -115 -60 -45&#xA;-25 -124 -64 -175 -87 -51 -23 -124 -56 -163 -74 -142 -67 -380 -162 -484&#xA;-193 -47 -13 -96 -30 -110 -38 -14 -7 -52 -18 -84 -25 -32 -6 -80 -22 -105&#xA;-35 -34 -17 -78 -27 -157 -35 -60 -6 -140 -16 -177 -22 -65 -11 -69 -10 -106&#xA;15 -78 55 -230 54 -335 -1 -48 -25 -49 -25 -105 -9 -31 9 -82 23 -112 31 -104&#xA;26 -273 101 -380 168 -41 25 -115 67 -165 92 -49 25 -112 63 -140 84 -27 20&#xA;-68 48 -90 62 -22 13 -62 40 -90 61 -53 38 -85 54 -85 41 0 -14 24 -38 66 -64&#xA;22 -14 61 -43 86 -64 44 -37 60 -49 153 -104 62 -37 140 -103 126 -108 -18 -6&#xA;-161 71 -251 135 -14 10 -47 32 -75 48 -27 17 -56 34 -62 38 -7 5 -13 4 -13 0&#xA;0 -10 194 -157 275 -209 127 -80 368 -224 376 -224 5 0 46 -21 91 -46 46 -26&#xA;110 -56 143 -68 46 -16 60 -26 60 -41 0 -18 -8 -20 -73 -23 -61 -2 -79 1 -108&#xA;19 -31 19 -44 21 -108 15 -78 -7 -210 10 -301 39 -27 8 -84 20 -125 25 -41 6&#xA;-108 21 -150 35 -41 13 -102 33 -135 44 -33 10 -98 33 -145 50 -47 18 -112 41&#xA;-146 51 -33 10 -74 25 -90 33 -16 8 -45 18 -64 22 -19 4 -94 33 -166 66 -73&#xA;32 -137 59 -143 59 -16 0 -399 197 -506 260 -84 50 -239 150 -295 191 -14 10&#xA;-67 49 -118 86 -100 72 -112 91 -94 150 24 79 -77 231 -192 290 -27 13 -74 27&#xA;-105 30 -31 4 -67 13 -79 21 -20 13 -25 13 -32 2 -4 -7 -6 -19 -3 -27 8 -21&#xA;-28 -55 -52 -49 -11 3 -52 23 -90 45 -39 22 -90 51 -115 64 -25 14 -70 47&#xA;-101 74 -64 55 -106 86 -202 148 -37 24 -83 56 -102 72 -19 15 -51 41 -72 56&#xA;-109 80 -133 101 -133 113 0 23 17 25 60 8 73 -29 83 15 13 59 -21 13 -58 45&#xA;-81 71 -47 51 -47 51 -26 168 6 34 4 38 -34 61 -27 17 -41 35 -45 55 -4 21&#xA;-19 38 -51 58 -25 16 -46 32 -46 36 0 4 -10 12 -21 19 -16 8 -32 8 -65 -1 -37&#xA;-11 -50 -10 -84 4 -51 20 -94 20 -111 0 -7 -8 -26 -22 -43 -31 -44 -22 -85&#xA;-62 -107 -105 -24 -47 -24 -60 1 -83 30 -27 23 -76 -12 -93 -41 -19 -50 -45&#xA;-42 -110 9 -80 27 -109 72 -123 30 -9 40 -18 48 -43 8 -29 12 -31 69 -37 33&#xA;-3 86 -14 119 -24 49 -16 65 -17 103 -7 31 9 50 9 63 2 14 -7 26 -8 39 0 25&#xA;13 68 13 76 1 3 -6 58 -38 123 -72 176 -94 396 -252 577 -416 39 -35 81 -73&#xA;94 -84 20 -18 22 -26 16 -62 -8 -49 -9 -47 3 -118 9 -64 50 -120 141 -195 64&#xA;-53 117 -70 174 -55 44 11 77 1 77 -23 0 -8 7 -19 15 -26 23 -19 48 5 34 32&#xA;-15 29 -4 48 29 48 29 0 211 -83 262 -120 15 -11 78 -46 141 -78 63 -32 170&#xA;-93 239 -134 69 -41 157 -91 195 -111 128 -66 529 -254 570 -267 21 -7 64 -24&#xA;95 -38 30 -13 110 -44 178 -68 67 -24 135 -50 150 -58 57 -30 423 -118 569&#xA;-137 39 -5 91 -16 114 -25 51 -17 220 -44 284 -44 80 0 158 -45 109 -64 -26&#xA;-10 -4 -27 33 -24 28 2 40 -4 60 -27 21 -23 24 -35 19 -66 -7 -42 8 -65 51&#xA;-75 21 -6 31 -1 52 24 26 31 27 31 116 31 57 0 103 -6 127 -16 54 -23 82 -11&#xA;160 66 65 65 68 70 57 95 -7 14 -9 29 -6 32 8 8 139 29 237 38 41 4 120 18&#xA;175 31 55 13 150 31 210 40 136 20 213 37 333 75 51 17 100 30 110 30 9 0 40&#xA;11 67 25 28 13 61 25 75 25 14 0 48 14 75 30 28 16 58 30 68 30 10 0 44 14 77&#xA;30 33 17 82 35 109 41 27 5 64 21 82 35 18 13 49 29 69 34 19 5 58 24 85 42&#xA;28 18 99 62 158 98 59 36 127 77 150 92 23 15 60 37 82 49 22 12 55 34 72 50&#xA;18 15 72 54 120 85 49 32 104 70 123 85 19 15 46 30 60 34 14 4 42 18 62 32&#xA;27 18 45 23 63 19 42 -11 65 9 65 54 0 39 26 80 51 80 18 0 96 86 102 113 9&#xA;35 376 395 517 506 36 29 75 65 88 82 19 23 31 29 64 29 48 0 111 41 129 83 7&#xA;17 22 29 38 33 63 14 89 26 116 54 23 24 26 34 21 62 -15 72 -13 81 23 103 19&#xA;11 63 48 99 83 39 36 74 62 87 62 29 0 45 19 45 51 0 35 24 59 59 59 23 0 30&#xA;6 37 33 9 28 15 33 53 38 43 6 61 20 61 50 0 26 78 116 109 127 16 6 35 23 43&#xA;39 9 18 21 28 37 29 30 2 51 29 51 66 0 33 20 44 49 28 19 -9 21 -21 22 -93 1&#xA;-76 2 -78 9 -35 5 27 18 63 29 82 27 42 27 66 1 66 -38 0 -24 43 31 93 55 50&#xA;61 77 19 87 -41 9 -38 49 7 104 93 112 82 103 96 82 29 -46 45 -55 76 -46 44&#xA;12 42 10 147 135 52 63 99 115 104 115 5 0 53 51 107 113 121 138 225 250 318&#xA;342 38 39 82 86 96 105 66 87 119 125 119 85 0 -22 18 -18 43 10 12 13 42 46&#xA;67 73 55 59 143 169 158 199 7 12 39 38 72 58 63 38 73 57 40 75 -25 13 -26&#xA;52 -2 73 14 13 38 17 100 17 75 0 84 2 114 29 18 15 43 33 56 40 51 27 -9 42&#xA;-69 17 -19 -7 -62 -16 -97 -20 -57 -5 -63 -4 -60 11 2 12 32 28 88 49 47 17&#xA;103 39 125 47 209 81 396 102 678 76 94 -9 155 -21 267 -56 80 -24 181 -55&#xA;225 -68 44 -12 100 -32 125 -44 25 -11 59 -21 75 -21 17 0 45 -9 63 -20 17&#xA;-11 53 -25 80 -31 26 -6 76 -24 112 -39 36 -16 92 -35 125 -43 33 -9 94 -25&#xA;135 -36 145 -38 355 -65 525 -65 171 -1 201 4 415 74 47 15 104 30 128 34 23&#xA;3 64 17 90 30 97 49 183 86 201 86 10 0 39 11 65 25 53 28 66 30 113 13 29&#xA;-11 35 -10 56 10 29 27 32 27 96 0 l52 -21 43 21 c24 12 53 22 65 22 13 0 37&#xA;16 58 40 25 28 47 41 72 45 61 10 81 22 81 49 0 29 50 90 90 111 15 8 42 38&#xA;59 67 17 29 46 73 63 97 28 39 34 43 64 38 43 -7 57 9 42 50 -18 49 13 101 86&#xA;139 32 18 65 42 72 55 7 13 29 33 51 44 28 15 44 34 61 70 14 30 37 59 58 73&#xA;54 36 66 62 68 154 1 72 3 83 20 86 10 2 23 -1 29 -7 17 -17 57 -13 64 5 3 9&#xA;1 31 -6 49 -14 41 -9 55 34 82 21 14 37 34 40 50 4 16 15 46 25 68 29 64 34&#xA;148 11 198 -12 28 -20 78 -25 152 -5 90 -10 113 -26 129 -19 19 -21 19 -54 3&#xA;-22 -10 -43 -31 -55 -55 -11 -21 -26 -44 -35 -51 -8 -7 -28 -34 -45 -60 -17&#xA;-25 -49 -60 -71 -76 -23 -17 -62 -47 -86 -67 -25 -21 -52 -38 -60 -38 -7 0&#xA;-39 -22 -69 -50 -30 -27 -61 -50 -69 -50 -7 0 -30 -11 -50 -25 -39 -26 -207&#xA;-95 -233 -95 -8 0 -46 -14 -85 -31 -94 -41 -268 -56 -415 -35 -88 12 -114 21&#xA;-245 85 -81 39 -150 76 -153 81 -4 6 -25 20 -47 31 -41 21 -245 154 -348 228&#xA;-89 64 -290 172 -355 191 -33 10 -80 26 -105 35 -33 12 -93 18 -225 22 -237 7&#xA;-364 -6 -525 -56 -69 -22 -159 -49 -200 -61 -41 -12 -104 -34 -140 -50 -36&#xA;-16 -126 -52 -200 -80 -153 -58 -292 -123 -333 -157 -16 -13 -34 -23 -41 -23&#xA;-12 0 -104 -55 -146 -88 -14 -11 -42 -27 -63 -35 -48 -21 -214 -155 -313 -255&#xA;-88 -88 -409 -398 -439 -424 -11 -9 -38 -37 -60 -63 -118 -136 -140 -155 -181&#xA;-155 -45 0 -97 -28 -115 -62 -6 -13 -26 -39 -45 -58 -20 -21 -37 -51 -42 -75&#xA;-7 -37 -11 -40 -44 -43 -59 -5 -67 -62 -9 -62 15 0 31 -3 34 -6 9 -9 -11 -44&#xA;-48 -84 -18 -19 -38 -53 -45 -75 -7 -22 -43 -83 -79 -135 -37 -52 -82 -120&#xA;-100 -150 -18 -30 -44 -67 -58 -81 -13 -15 -46 -64 -73 -110 -57 -100 -144&#xA;-204 -183 -220 -17 -7 -29 -22 -33 -38 -11 -50 -35 -110 -57 -137 -28 -35 -77&#xA;-120 -116 -200 -16 -34 -34 -65 -40 -69 -6 -3 -23 -30 -37 -58 -15 -28 -34&#xA;-62 -43 -77 -85 -126 -113 -166 -174 -237 -38 -46 -75 -83 -82 -83 -7 0 -16&#xA;12 -20 27 l-7 28 -31 -37 c-56 -64 -113 -140 -183 -244 -38 -55 -114 -154&#xA;-169 -219 -116 -137 -375 -407 -422 -439 -17 -11 -78 -56 -135 -99 -217 -163&#xA;-398 -270 -564 -333 -34 -13 -113 -48 -176 -79 -62 -30 -123 -55 -136 -55 -13&#xA;0 -36 -7 -52 -15 -17 -9 -74 -22 -127 -30 -54 -8 -123 -22 -153 -30 -96 -26&#xA;-220 -16 -220 19 0 14 118 56 158 56 11 0 39 7 63 16 24 8 89 27 144 40 156&#xA;40 321 99 392 140 23 13 48 24 55 24 20 0 54 27 45 36 -4 4 -28 -2 -55 -14&#xA;-26 -12 -90 -33 -143 -47 -53 -14 -126 -36 -163 -50 -81 -31 -126 -33 -126 -7&#xA;0 22 32 53 80 77 45 23 279 177 352 232 90 69 310 285 416 410 180 212 244&#xA;293 303 379 26 40 66 94 88 120 76 93 91 112 91 118 0 9 -22 7 -81 -5 -58 -13&#xA;-88 -39 -147 -129 -147 -226 -510 -600 -806 -830 -108 -85 -150 -116 -363&#xA;-273 -143 -105 -226 -139 -338 -141 -130 -1 -389 16 -403 27 -19 15 11 43 83&#xA;78 100 48 253 140 383 229 68 47 143 96 166 110 23 14 66 43 96 65 29 22 69&#xA;51 89 64 165 111 592 515 804 760 144 168 321 412 429 594 143 241 408 754&#xA;408 790 0 3 65 141 145 307 80 165 145 305 145 311 0 21 260 548 295 599 14&#xA;19 39 56 57 83 195 283 408 524 552 621 85 57 116 65 116 29 0 -9 -16 -34 -36&#xA;-54 -23 -24 -34 -43 -31 -53 9 -23 66 -20 102 4 17 11 38 20 48 20 23 0 22 10&#xA;-8 61 -35 63 -50 135 -36 184 6 22 7 43 3 47 -15 15 -141 -63 -229 -141 -48&#xA;-42 -130 -124 -182 -182 -95 -106 -266 -323 -295 -375 -10 -16 -37 -56 -61&#xA;-89 -24 -33 -61 -89 -81 -124 -20 -36 -64 -108 -97 -160 -105 -167 -332 -635&#xA;-447 -921 -64 -161 -296 -612 -400 -780 -29 -47 -89 -143 -133 -215 -44 -71&#xA;-100 -160 -126 -197 -25 -37 -61 -89 -78 -115 -132 -196 -299 -371 -326 -344&#xA;-12 12 15 81 31 81 5 0 32 36 61 80 29 44 63 87 75 95 44 29 150 173 198 271&#xA;114 229 285 557 321 617 75 122 178 338 243 505 13 34 42 99 65 144 23 45 61&#xA;134 86 197 24 64 64 161 88 216 24 55 74 174 110 265 114 285 270 559 470 828&#xA;28 37 59 81 69 97 22 35 92 116 267 310 138 152 194 209 251 252 20 15 70 54&#xA;111 85 82 64 152 106 276 169 46 23 96 53 111 66 16 13 48 30 72 38 23 9 49&#xA;23 56 32 15 21 16 79 1 89 -29 17 -338 -142 -479 -247 -14 -11 -50 -37 -80&#xA;-58 -123 -87 -462 -426 -585 -586 -22 -29 -64 -80 -92 -114 -29 -34 -78 -101&#xA;-109 -149 -31 -48 -65 -98 -75 -112 -83 -112 -363 -630 -394 -730 -4 -14 -26&#xA;-61 -48 -105 -22 -44 -52 -109 -67 -145 -15 -36 -44 -102 -64 -147 -20 -46&#xA;-52 -120 -72 -165 -20 -46 -48 -117 -64 -158 -68 -184 -233 -533 -273 -577&#xA;-22 -25 -42 -29 -52 -13 -12 20 37 188 110 370 40 102 85 217 100 255 57 154&#xA;113 312 125 350 7 22 21 54 30 70 10 17 27 62 38 101 11 39 28 86 37 105 10&#xA;18 24 56 31 84 32 127 75 235 174 440 42 88 84 176 93 195 30 63 208 333 228&#xA;346 6 3 21 30 34 58 13 28 35 62 50 76 15 14 34 39 41 57 8 17 26 38 41 45 22&#xA;10 29 22 33 54 7 47 65 123 120 157 71 43 120 89 120 113 0 13 13 38 29 56 15&#xA;18 35 47 44 64 16 31 134 141 174 163 12 6 88 73 170 148 140 129 169 152 272&#xA;213 24 14 64 39 89 55 26 17 91 52 144 78 81 40 100 46 118 37 11 -6 25 -8 30&#xA;-5 14 9 10 145 -5 145 -6 0 -14 -2 -17 -5z m-2118 -1344 c0 -11 -4 -22 -9 -25&#xA;-11 -7 -23 22 -15 35 9 16 24 10 24 -10z m-34 -96 c-4 -14 -17 -49 -30 -78&#xA;-13 -28 -31 -81 -40 -117 -17 -64 -59 -150 -75 -150 -8 0 -1 29 32 135 55 172&#xA;84 235 110 235 5 0 6 -11 3 -25z m4994 -57 c47 -15 110 -44 140 -62 30 -18 76&#xA;-43 101 -54 68 -29 175 -105 319 -225 152 -126 46 -94 -211 64 -43 26 -100 57&#xA;-126 69 -26 11 -55 27 -63 35 -34 31 -253 135 -327 155 -81 23 -107 36 -97 51&#xA;11 18 177 -3 264 -33z m-459 -28 c30 -6 79 -20 109 -30 30 -10 104 -33 165&#xA;-51 105 -31 287 -111 357 -158 18 -12 67 -43 109 -69 42 -26 110 -69 150 -96&#xA;98 -65 367 -202 448 -226 35 -11 79 -20 97 -20 23 0 37 -6 41 -16 18 -48 -101&#xA;-36 -275 27 -74 27 -138 49 -144 49 -14 0 -399 204 -466 247 -92 58 -273 150&#xA;-369 187 -107 41 -304 91 -417 106 -43 5 -82 13 -87 16 -17 10 -9 25 24 40 35&#xA;16 160 13 258 -6z m-131 -154 c30 -9 95 -25 143 -36 48 -10 120 -31 160 -46&#xA;102 -39 371 -170 404 -198 15 -13 48 -33 73 -46 25 -12 54 -30 65 -39 42 -36&#xA;269 -163 331 -185 22 -8 97 -42 168 -76 154 -75 157 -91 13 -72 -161 20 -385&#xA;84 -536 153 -75 34 -143 68 -151 74 -8 7 -80 45 -160 85 -80 40 -157 81 -172&#xA;92 -15 10 -42 24 -60 30 -18 6 -42 19 -53 28 -21 19 -115 63 -220 105 -64 25&#xA;-261 62 -388 72 -123 10 -141 40 -41 68 68 20 347 13 424 -9z m-147 -176 c50&#xA;-11 117 -30 147 -42 72 -29 418 -205 494 -252 33 -20 65 -36 70 -36 6 0 47&#xA;-22 91 -50 195 -120 212 -127 679 -277 65 -21 126 -43 135 -50 30 -22 -35 -26&#xA;-178 -13 -146 13 -302 48 -471 103 -58 19 -130 42 -160 51 -30 9 -118 50 -195&#xA;91 -77 42 -176 92 -220 112 -44 20 -93 45 -110 57 -217 153 -444 224 -827 261&#xA;-68 7 -89 18 -70 37 20 20 86 26 305 27 184 1 231 -2 310 -19z m-258 -180&#xA;c122 -25 204 -51 310 -97 122 -53 142 -63 347 -189 115 -70 278 -160 308 -168&#xA;14 -4 52 -20 85 -36 179 -84 351 -134 613 -180 118 -21 143 -48 60 -64 -64&#xA;-13 -357 17 -472 48 -50 13 -111 29 -136 36 -159 39 -204 54 -280 90 -47 22&#xA;-139 62 -205 90 -66 28 -173 80 -237 115 -64 36 -120 65 -124 65 -3 0 -31 16&#xA;-62 35 -61 37 -187 94 -292 131 -59 21 -181 42 -255 45 -72 3 -245 20 -260 25&#xA;-47 18 10 59 103 74 98 15 384 4 497 -20z m-191 -184 c155 -36 444 -170 681&#xA;-316 72 -44 133 -80 137 -80 4 0 76 -33 160 -74 84 -40 171 -79 193 -86 22 -7&#xA;69 -23 105 -36 105 -37 335 -85 474 -97 83 -8 131 -17 133 -24 7 -21 -43 -26&#xA;-210 -20 -259 9 -543 76 -752 177 -22 10 -78 35 -125 55 -47 20 -122 55 -168&#xA;76 -46 22 -152 67 -235 101 -84 33 -168 71 -187 84 -19 12 -66 32 -105 44 -38&#xA;12 -104 34 -145 50 -92 35 -253 59 -463 68 -125 6 -152 10 -152 22 0 22 124&#xA;60 230 69 127 12 351 5 429 -13z m-249 -205 c71 -7 149 -22 190 -36 39 -13&#xA;115 -38 170 -56 55 -18 120 -43 144 -56 24 -13 51 -23 60 -23 9 0 28 -8 41&#xA;-17 43 -30 488 -251 579 -287 47 -19 104 -44 126 -55 21 -12 45 -21 51 -21 7&#xA;0 52 -13 101 -29 80 -27 189 -53 333 -81 155 -30 66 -68 -116 -50 -49 5 -134&#xA;14 -189 19 -55 6 -126 20 -157 31 -32 11 -67 20 -78 20 -11 0 -48 9 -82 20&#xA;-35 11 -88 26 -118 34 -30 7 -133 48 -229 90 -96 42 -184 79 -195 82 -12 3&#xA;-86 35 -166 70 -256 115 -274 122 -355 148 -44 14 -116 33 -160 42 -44 8 -105&#xA;25 -135 36 -58 21 -225 41 -365 42 -66 1 -80 4 -83 18 -5 23 18 32 133 52 55&#xA;10 105 19 110 22 18 6 268 -3 390 -15z m-1025 -77 c0 -23 -149 -174 -172 -174&#xA;-35 0 -14 36 70 123 65 65 102 84 102 51z m589 -115 c36 -6 98 -17 136 -25 39&#xA;-7 104 -18 145 -24 99 -13 287 -65 375 -102 39 -16 93 -39 120 -50 51 -21 309&#xA;-139 400 -184 28 -13 74 -33 103 -44 101 -39 155 -61 191 -79 20 -10 51 -21&#xA;70 -25 19 -3 71 -19 115 -35 45 -16 117 -37 161 -45 44 -9 105 -22 135 -31 30&#xA;-8 117 -18 193 -22 76 -3 140 -10 143 -15 22 -36 -232 -62 -529 -56 -178 4&#xA;-222 8 -277 25 -36 12 -122 37 -192 57 -69 20 -159 50 -200 67 -80 34 -196 73&#xA;-328 112 -47 14 -123 37 -170 51 -47 14 -130 32 -185 40 -55 8 -127 22 -160&#xA;31 -149 40 -420 28 -685 -30 -157 -35 -180 -39 -180 -28 0 16 73 80 116 101&#xA;22 11 46 28 54 37 12 14 58 47 143 99 43 27 34 60 -18 64 -117 9 -23 82 139&#xA;107 107 17 108 17 185 4z m-829 -153 c0 -16 -28 -42 -36 -33 -8 7 14 47 26 47&#xA;6 0 10 -6 10 -14z m-60 -81 c0 -29 -29 -74 -66 -102 -20 -15 -48 -45 -63 -66&#xA;-35 -53 -86 -134 -110 -177 -25 -45 -98 -121 -150 -155 -22 -15 -43 -37 -47&#xA;-49 -6 -20 -86 -186 -121 -251 -9 -16 -21 -40 -27 -52 -12 -23 -83 -83 -98&#xA;-83 -13 0 -2 45 21 90 50 96 111 201 151 258 25 35 55 78 67 95 12 18 34 48&#xA;48 67 14 19 48 67 76 105 27 39 85 106 128 150 43 44 81 90 85 102 8 26 71 83&#xA;91 83 8 0 15 -7 15 -15z m-2676 -481 c10 -27 7 -59 -10 -82 -13 -19 -18 -21&#xA;-31 -10 -11 9 -13 23 -9 52 4 21 9 43 12 48 9 14 31 9 38 -8z m2411 -369 c0&#xA;-11 -14 -27 -32 -38 -31 -18 -33 -18 -40 -1 -4 12 2 25 21 41 31 27 51 26 51&#xA;-2z m-2348 -52 c4 -9 1 -48 -6 -87 -9 -54 -29 -103 -91 -222 -74 -141 -91&#xA;-184 -72 -184 17 0 72 41 88 65 23 35 67 58 83 42 6 -6 11 -17 11 -25 0 -17&#xA;-77 -159 -91 -167 -5 -4 -18 -23 -28 -43 -11 -20 -31 -50 -45 -67 -14 -16 -26&#xA;-35 -26 -41 0 -42 -82 -180 -165 -279 -28 -33 -62 -76 -75 -95 -13 -19 -105&#xA;-117 -203 -216 -139 -141 -186 -196 -211 -245 -32 -63 -33 -64 -74 -64 -35 0&#xA;-48 -6 -73 -33 -17 -18 -49 -45 -70 -59 -42 -27 -54 -59 -19 -48 28 9 26 -20&#xA;-3 -48 -29 -27 -100 -81 -146 -110 -19 -12 -51 -33 -71 -47 -119 -81 -160&#xA;-107 -205 -131 -27 -14 -79 -43 -115 -64 -215 -125 -559 -246 -584 -206 -9 14&#xA;11 26 129 74 205 84 231 96 433 206 111 60 221 119 244 131 63 30 109 60 159&#xA;103 l44 39 -32 -6 c-65 -11 -31 39 97 144 206 168 262 219 424 378 93 92 183&#xA;190 201 217 18 28 54 70 80 95 52 50 105 125 129 183 8 21 29 55 46 75 30 37&#xA;38 66 20 77 -10 6 -21 -5 -95 -94 -51 -62 -329 -343 -346 -349 -24 -9 -2 34&#xA;69 132 42 58 91 130 107 159 17 29 39 66 51 83 11 16 35 56 53 89 18 33 41 69&#xA;51 80 10 11 77 137 149 280 73 143 136 268 141 278 13 22 29 22 37 0z m1913&#xA;-77 c0 -26 -83 -126 -95 -114 -10 10 36 107 59 123 29 21 36 19 36 -9z m-240&#xA;-565 c0 -12 -29 -35 -36 -28 -11 10 5 37 21 37 8 0 15 -4 15 -9z m-2240 -801&#xA;c0 -11 -40 -50 -52 -50 -14 0 -9 13 14 37 23 24 38 30 38 13z m-7842 -384 c39&#xA;-46 72 -92 72 -103 0 -25 -79 -106 -97 -99 -7 3 -39 13 -71 22 -101 30 -131&#xA;66 -96 119 16 25 16 28 0 62 -21 44 -9 63 40 63 18 0 36 5 39 10 15 24 45 4&#xA;113 -74z m3515 -131 c35 -19 69 -35 76 -35 7 0 49 -18 94 -39 119 -57 518&#xA;-197 617 -216 19 -4 78 -25 129 -47 52 -22 140 -53 195 -70 56 -16 112 -34&#xA;126 -40 14 -5 63 -21 110 -35 105 -30 136 -48 119 -69 -10 -13 -46 -14 -243&#xA;-9 -127 4 -265 13 -306 20 -41 7 -111 19 -155 26 -44 6 -102 21 -129 31 -28&#xA;11 -84 26 -125 34 -74 15 -151 37 -261 76 -104 37 -120 44 -142 65 -13 12 -42&#xA;32 -65 45 -52 28 -151 96 -177 120 -11 10 -46 35 -78 56 -33 21 -56 43 -55 52&#xA;2 16 134 66 179 69 15 0 56 -15 91 -34z m-2133 -720 c41 -21 97 -98 105 -144&#xA;4 -26 0 -60 -15 -108 l-21 -70 -61 -29 c-79 -38 -148 -38 -212 0 -53 31 -79&#xA;62 -101 121 -17 43 -17 44 9 101 35 76 49 91 121 126 66 32 117 33 175 3z&#xA;m6260 -74 c0 -21 -175 -179 -335 -301 -54 -41 -114 -89 -134 -106 -20 -17 -49&#xA;-38 -66 -47 -16 -8 -67 -39 -112 -69 -45 -29 -108 -68 -140 -87 -81 -48 -482&#xA;-249 -518 -260 -16 -5 -63 -23 -104 -40 -118 -50 -438 -153 -531 -171 -30 -6&#xA;-78 -20 -106 -31 -35 -14 -69 -19 -109 -17 -72 4 -83 22 -23 38 24 7 68 22 98&#xA;35 30 13 79 29 108 35 29 5 67 17 84 26 18 9 61 27 97 39 60 20 139 56 576&#xA;257 367 169 847 450 992 580 28 26 61 52 74 58 12 7 42 27 66 46 50 38 83 44&#xA;83 15z m-5990 -356 c47 -30 90 -55 97 -55 7 0 27 -13 45 -29 18 -16 51 -36 73&#xA;-45 22 -9 47 -25 55 -36 8 -10 37 -27 64 -37 47 -17 77 -45 64 -58 -11 -11&#xA;-46 5 -89 41 -22 19 -48 34 -57 34 -41 2 -352 201 -352 225 0 23 10 19 100&#xA;-40z m2341 -635 c14 -11 18 -19 11 -20 -19 0 -52 19 -52 30 0 16 16 12 41 -10z&#xA;m103 -44 c19 -8 37 -20 41 -27 14 -21 -75 -3 -99 20 l-20 21 22 0 c12 0 38 -6&#xA;56 -14z m154 -62 c30 -21 28 -34 -6 -34 -31 0 -75 27 -67 41 9 14 48 11 73 -7z&#xA;m583 -45 c46 -38 97 -103 112 -141 3 -10 2 -42 -3 -72 -7 -43 -19 -68 -59&#xA;-119 -60 -76 -110 -104 -168 -92 -21 4 -60 10 -87 14 -50 8 -63 18 -98 77 -10&#xA;16 -27 41 -38 55 -19 23 -20 31 -11 65 8 29 8 53 -1 93 l-12 54 35 29 c51 44&#xA;103 68 167 78 81 12 108 5 163 -41z m-443 -5 c18 -13 21 -19 11 -30 -6 -8 -22&#xA;-14 -35 -14 -27 0 -68 35 -59 50 10 15 58 12 83 -6z" fill="#FFB006"></path><path d="M10961 9007 c-29 -15 -67 -64 -58 -74 4 -3 22 8 40 25 25 24 42 32&#xA;70 32 38 0 49 13 21 24 -24 9 -46 7 -73 -7z" fill="#FFB006"></path><path d="M12407 8322 c-9 -10 -21 -38 -26 -63 -5 -24 -18 -65 -27 -91 -10 -26&#xA;-15 -51 -10 -55 4 -4 25 12 46 37 l38 44 42 -14 c41 -13 43 -13 61 9 37 46 16&#xA;88 -46 93 -31 2 -41 8 -43 23 -6 32 -17 37 -35 17z" fill="#FFB006"></path><path d="M11896 7974 c-17 -16 -22 -44 -8 -44 12 0 42 34 42 48 0 17 -16 15&#xA;-34 -4z" fill="#FFB006"></path><path d="M11886 7424 c-9 -24 -7 -34 8 -34 16 0 29 27 20 41 -8 14 -21 11 -28&#xA;-7z" fill="#FFB006"></path><path d="M11805 7294 c-22 -13 -46 -24 -54 -24 -22 0 -189 -79 -252 -119 -81&#xA;-52 -185 -172 -289 -336 -34 -55 -70 -111 -79 -125 -44 -65 -211 -423 -211&#xA;-451 0 -8 -36 -91 -79 -185 -43 -95 -81 -184 -85 -200 -4 -15 -47 -103 -95&#xA;-194 -48 -91 -109 -212 -136 -270 -26 -58 -65 -137 -86 -176 -54 -97 -52 -135&#xA;3 -76 35 36 128 173 128 187 0 6 16 35 35 65 50 76 222 421 239 478 7 26 68&#xA;154 134 284 66 130 130 263 142 295 12 32 41 92 64 133 24 41 58 104 76 140&#xA;50 100 153 242 217 300 67 60 273 165 307 156 12 -3 26 -2 32 2 15 10 36 51&#xA;44 89 11 48 -7 57 -55 27z" fill="#FFB006"></path><path d="M11493 6367 c-73 -79 -184 -246 -207 -311 -84 -240 -162 -427 -215&#xA;-515 -45 -75 -95 -188 -121 -276 -9 -33 -24 -76 -33 -95 -8 -19 -18 -56 -22&#xA;-82 -4 -26 -13 -53 -21 -59 -16 -13 -19 -49 -4 -49 5 0 12 11 16 25 3 14 16&#xA;32 27 40 26 18 52 64 180 320 105 208 138 284 176 400 31 98 90 229 108 243 9&#xA;6 24 12 33 12 36 0 75 71 95 173 8 40 23 98 35 129 18 53 19 88 0 88 -4 0 -25&#xA;-19 -47 -43z" fill="#FFB006"></path><path d="M12015 6374 c-9 -9 -14 -23 -11 -31 3 -8 6 -17 6 -19 0 -2 11 -4 23&#xA;-4 24 0 53 42 42 61 -10 14 -42 11 -60 -7z" fill="#FFB006"></path><path d="M11636 6250 c-9 -22 -16 -62 -16 -88 l1 -47 19 23 c23 28 54 118 46&#xA;137 -10 27 -34 15 -50 -25z" fill="#FFB006"></path><path d="M11562 6008 c-14 -14 -16 -44 -3 -53 11 -6 31 26 31 49 0 19 -11 21&#xA;-28 4z" fill="#FFB006"></path><path d="M10876 5577 c-23 -40 -45 -83 -158 -312 -88 -177 -137 -282 -148&#xA;-317 -6 -20 -25 -54 -42 -75 -16 -21 -41 -58 -56 -83 -14 -25 -37 -58 -52 -75&#xA;-15 -16 -50 -66 -78 -110 -28 -44 -62 -94 -76 -111 -24 -30 -33 -54 -20 -54&#xA;16 0 139 120 176 173 24 33 58 78 76 100 19 23 47 68 64 101 17 34 36 68 43&#xA;76 7 8 28 51 45 95 36 91 111 229 252 461 52 86 67 136 48 159 -22 27 -47 17&#xA;-74 -28z" fill="#FFB006"></path><path d="M12059 5143 c-92 -95 -130 -153 -99 -153 20 0 180 188 180 211 0 19&#xA;-18 6 -81 -58z" fill="#FFB006"></path><path d="M3425 5030 c-86 -13 -205 -96 -244 -168 -8 -14 -10 -39 -5 -67 5 -35&#xA;2 -51 -15 -78 -27 -43 -26 -71 1 -143 16 -41 30 -62 52 -73 16 -9 47 -31 68&#xA;-50 47 -41 112 -54 226 -44 62 5 77 10 103 35 33 32 54 31 99 -4 14 -11 63&#xA;-49 110 -84 47 -36 109 -84 139 -107 30 -23 78 -60 106 -82 116 -88 132 -101&#xA;190 -150 107 -90 136 -109 145 -94 12 18 -6 48 -36 59 -14 6 -48 32 -77 59&#xA;-29 26 -73 63 -98 82 -124 91 -339 277 -339 292 0 18 33 2 90 -43 34 -27 66&#xA;-50 70 -50 4 0 37 -24 72 -52 36 -29 104 -82 152 -118 47 -36 105 -80 127 -98&#xA;39 -30 68 -35 52 -8 -12 19 -77 74 -183 154 -112 85 -240 192 -339 282 -67 61&#xA;-84 91 -61 105 11 7 7 136 -5 167 -4 10 -2 32 4 49 14 40 -13 107 -67 162 -61&#xA;64 -95 76 -203 74 -52 0 -112 -4 -134 -7z m120 -160 c17 -11 38 -20 48 -20 9&#xA;0 26 -9 37 -20 26 -26 28 -103 3 -125 -10 -9 -35 -29 -56 -47 -26 -21 -41 -44&#xA;-49 -74 -8 -28 -19 -46 -31 -50 -49 -16 -158 60 -173 120 -10 39 15 133 44&#xA;168 27 32 93 67 127 68 11 0 34 -9 50 -20z" fill="#FFB006"></path><path d="M10317 5000 c-14 -16 -28 -38 -31 -48 -3 -10 -26 -35 -51 -55 -25&#xA;-21 -54 -56 -65 -78 -12 -22 -42 -64 -68 -94 -131 -149 -171 -201 -262 -330&#xA;-36 -53 -284 -328 -410 -455 -69 -70 -221 -211 -451 -420 -110 -100 -239 -189&#xA;-355 -244 -28 -13 -55 -29 -58 -35 -4 -6 -52 -34 -107 -62 -105 -52 -125 -73&#xA;-94 -95 42 -31 117 -9 194 55 25 21 66 48 91 60 56 26 192 117 245 164 23 20&#xA;60 47 84 60 23 13 77 56 119 94 42 38 98 86 124 106 58 44 154 139 235 232 33&#xA;39 126 142 207 230 276 300 304 332 335 381 17 27 36 67 42 89 6 22 19 49 28&#xA;60 10 11 31 44 47 74 16 29 48 69 71 88 26 21 53 57 69 91 15 32 42 74 60 95&#xA;19 20 34 44 34 52 0 21 -5 19 -33 -15z" fill="#FFB006"></path><path d="M11864 4918 c-22 -25 -33 -43 -25 -46 18 -6 59 25 76 58 24 46 -4 39&#xA;-51 -12z" fill="#FFB006"></path><path d="M11772 4808 c-14 -14 -16 -28 -2 -28 5 0 14 9 20 20 12 22 1 27 -18&#xA;8z" fill="#FFB006"></path><path d="M10691 4746 c-18 -30 -35 -74 -38 -98 -3 -24 -14 -58 -25 -76 -22&#xA;-36 -18 -65 9 -60 16 3 44 45 78 118 10 19 26 52 36 72 10 20 19 51 19 67 0&#xA;26 -4 31 -23 31 -17 0 -31 -14 -56 -54z" fill="#FFB006"></path><path d="M11676 4698 c-39 -45 -44 -58 -21 -58 14 0 75 74 75 92 0 18 -20 6&#xA;-54 -34z" fill="#FFB006"></path><path d="M11008 4695 c-6 -14 -8 -28 -4 -33 9 -8 36 26 36 45 0 22 -20 14 -32&#xA;-12z" fill="#FFB006"></path><path d="M10920 4541 c-17 -33 -11 -48 10 -22 11 13 20 27 20 32 0 16 -19 9&#xA;-30 -10z" fill="#FFB006"></path><path d="M10103 3718 c-52 -51 -89 -94 -84 -96 24 -8 201 151 201 180 0 22&#xA;-31 0 -117 -84z" fill="#FFB006"></path><path d="M9922 3561 c-44 -33 -59 -51 -42 -51 19 0 64 30 83 56 24 32 9 30&#xA;-41 -5z" fill="#FFB006"></path><path d="M9775 3464 c-39 -20 -86 -65 -79 -75 7 -11 74 17 97 40 11 10 17 26&#xA;15 35 -3 14 -6 15 -33 0z" fill="#FFB006"></path><path d="M3636 3151 c32 -49 25 -65 -27 -57 -46 7 -48 -1 -13 -44 25 -29 26&#xA;-35 20 -92 -6 -50 -3 -78 16 -141 26 -92 51 -122 132 -162 50 -25 62 -26 173&#xA;-24 l120 3 54 -40 c30 -21 111 -86 181 -144 341 -283 405 -333 420 -328 6 2&#xA;-9 24 -33 48 -34 34 -40 45 -27 48 9 2 31 -4 48 -13 18 -9 34 -14 37 -12 6 6&#xA;-34 43 -212 195 -195 166 -405 377 -405 407 0 31 15 34 75 19 28 -8 61 -14 74&#xA;-14 12 0 64 -14 115 -31 50 -17 129 -41 176 -54 151 -41 198 -63 271 -125 l69&#xA;-60 78 6 c88 7 100 14 74 37 -23 21 -253 113 -335 133 -34 9 -77 27 -94 40&#xA;-18 14 -63 36 -100 50 -57 21 -146 62 -323 147 -14 7 -32 27 -41 45 -9 18 -28&#xA;41 -43 53 -14 11 -26 26 -26 33 0 20 -51 63 -100 85 -57 26 -195 29 -240 6&#xA;-27 -14 -34 -13 -80 5 -28 11 -53 20 -56 20 -2 0 7 -18 22 -39z m317 -75 c76&#xA;-32 101 -88 87 -189 -16 -111 -18 -116 -53 -137 -48 -30 -172 -28 -218 3 -46&#xA;30 -82 101 -75 147 23 142 29 155 89 177 44 16 131 16 170 -1z" fill="#FFB006"></path><path d="M6122 1009 c-40 -15 -24 -43 27 -47 50 -4 73 11 51 32 -21 20 -52 26&#xA;-78 15z" fill="#FFB006"></path></g></svg>