<svg xmlns="http://www.w3.org/2000/svg" width="462" height="90" viewBox="0 0 2772 540"><g transform="translate(0.000000,540.000000) scale(0.100000,-0.100000)"><path d="M4493 4502 c-13 -2 -32 -15 -43 -30 -20 -25 -21 -36 -18 -289 3 -236&#xA;5 -264 21 -280 16 -17 62 -19 645 -25 345 -4 1068 -5 1607 -2 848 5 984 8&#xA;1013 21 44 21 122 111 174 203 l43 75 0 147 c0 125 -3 150 -17 164 -16 16&#xA;-134 17 -1710 18 -931 1 -1703 0 -1715 -2z" fill="#FFFFFF"></path><path d="M13920 4500 l-915 -6 -105 -31 c-243 -71 -408 -164 -567 -316 -88&#xA;-85 -196 -233 -257 -355 -48 -96 -114 -300 -126 -393 -13 -101 -13 -1435 0&#xA;-1519 14 -85 63 -234 112 -338 164 -347 489 -614 864 -709 l109 -28 1012 0&#xA;c958 0 1013 1 1030 18 16 16 19 45 23 270 6 276 1 309 -50 334 -19 10 -241 13&#xA;-987 13 l-962 0 -78 25 c-193 61 -370 225 -445 413 -22 56 -22 63 -28 667 -8&#xA;702 -4 803 35 896 91 218 247 360 452 411 87 22 101 22 1050 27 l962 6 23 23&#xA;c23 22 23 25 23 287 0 262 0 265 -23 287 -27 28 74 26 -1152 18z" fill="#FFFFFF"></path><path d="M15651 4494 c-16 -7 -34 -21 -40 -33 -8 -14 -11 -549 -11 -1811 l0&#xA;-1792 30 -29 29 -30 250 3 c245 3 251 3 273 26 l23 23 0 724 0 724 23 23 c22&#xA;23 27 23 355 30 182 4 644 4 1025 1 641 -6 695 -7 715 -24 l22 -17 5 -732 5&#xA;-732 28 -24 c28 -24 29 -24 262 -24 l235 0 31 28 32 28 0 1802 1 1802 -22 23&#xA;c-22 22 -27 22 -258 20 -248 -2 -278 -7 -299 -49 -7 -15 -12 -249 -14 -715 -3&#xA;-750 -1 -728 -55 -749 -13 -4 -469 -11 -1013 -15 -859 -6 -995 -5 -1025 8 -20&#xA;8 -39 21 -44 28 -4 8 -9 334 -9 727 l-1 713 -25 25 -26 25 -236 3 c-171 2&#xA;-244 -1 -266 -10z" fill="#FFFFFF"></path><path d="M1740 4480 c-36 -11 -73 -19 -84 -20 -35 0 -202 -73 -306 -134 -80&#xA;-46 -127 -83 -200 -156 -136 -135 -216 -274 -277 -480 -25 -87 -28 -109 -28&#xA;-255 0 -145 3 -170 29 -265 39 -141 99 -258 194 -377 97 -122 203 -215 324&#xA;-287 126 -73 194 -100 318 -125 99 -19 147 -21 848 -26 816 -5 818 -5 914 -67&#xA;60 -38 139 -124 167 -180 11 -24 26 -86 33 -140 10 -83 10 -107 -5 -172 -30&#xA;-141 -111 -243 -246 -309 l-86 -42 -1045 -5 c-1173 -6 -1071 2 -1128 -80 -28&#xA;-41 -120 -192 -166 -272 -15 -26 -54 -84 -88 -128 -60 -81 -73 -119 -49 -143&#xA;9 -9 314 -12 1244 -12 l1232 0 107 27 c402 103 681 373 815 788 21 65 29 342&#xA;14 466 -12 95 -23 127 -91 280 -100 221 -319 428 -561 530 -172 72 -201 74&#xA;-1034 74 -687 0 -745 1 -806 18 -133 37 -233 122 -297 251 -36 72 -37 79 -37&#xA;180 0 102 1 109 39 189 61 128 155 207 298 248 l82 24 1089 0 c691 0 1095 4&#xA;1107 10 33 18 40 66 40 294 0 230 -8 289 -40 306 -12 7 -400 10 -1137 9 -1066&#xA;0 -1121 -1 -1183 -19z" fill="#FFFFFF"></path><path d="M8915 4471 c-175 -44 -346 -119 -476 -208 -155 -107 -423 -469 -454&#xA;-613 -4 -19 -19 -69 -33 -110 -23 -69 -25 -95 -32 -325 -3 -137 -3 -502 0&#xA;-810 6 -486 10 -567 24 -615 10 -30 24 -79 32 -109 41 -144 146 -310 310 -488&#xA;173 -188 344 -289 607 -360 l102 -28 705 0 705 0 105 29 c132 36 248 78 308&#xA;113 274 156 513 444 605 728 68 209 68 218 67 1008 -1 773 -1 770 -66 952&#xA;-154 434 -476 730 -909 836 l-119 29 -686 -1 -685 -1 -110 -27z m1507 -620&#xA;c164 -39 319 -160 397 -310 79 -151 81 -178 81 -889 0 -704 -2 -721 -80 -872&#xA;-82 -156 -199 -253 -375 -309 l-91 -29 -634 -4 -635 -3 -85 23 c-125 34 -193&#xA;74 -286 167 -66 66 -90 99 -128 176 -31 64 -49 116 -56 164 -7 45 -10 310 -8&#xA;740 l3 670 38 90 c69 166 157 263 301 334 153 76 218 81 941 75 477 -4 549 -7&#xA;617 -23z" fill="#FFFFFF"></path><path d="M20560 4490 c-19 -4 -71 -15 -114 -24 -44 -9 -109 -30 -145 -45 -36&#xA;-16 -77 -32 -90 -36 -55 -17 -198 -104 -266 -162 -128 -109 -273 -289 -351&#xA;-437 -44 -83 -101 -257 -114 -346 -5 -36 -11 -362 -14 -725 -5 -759 -1 -835&#xA;58 -1010 45 -133 82 -206 164 -325 90 -132 157 -206 276 -306 126 -106 301&#xA;-196 471 -240 l110 -29 720 0 c676 0 724 1 780 19 33 10 85 24 115 32 74 17&#xA;188 70 301 140 71 43 124 88 214 179 160 161 251 301 321 493 61 168 66 240&#xA;67 1007 2 854 2 859 -134 1125 -50 98 -160 253 -232 328 -131 135 -353 266&#xA;-567 335 l-95 31 -720 2 c-396 1 -736 -1 -755 -6z m1423 -633 c128 -30 261&#xA;-121 344 -233 65 -89 86 -130 118 -239 l26 -90 0 -635 0 -635 -27 -90 c-38&#xA;-130 -86 -217 -169 -299 -80 -80 -147 -123 -255 -163 l-75 -28 -660 -3 -660&#xA;-3 -85 27 c-131 41 -177 68 -276 168 -106 106 -145 173 -178 310 -22 89 -22&#xA;103 -21 726 2 616 2 637 23 713 33 122 85 211 171 297 82 82 177 141 270 167&#xA;80 23 332 31 901 28 406 -2 496 -5 553 -18z" fill="#FFFFFF"></path><path d="M24375 4493 c-166 -40 -359 -125 -482 -212 -83 -59 -207 -195 -264&#xA;-291 -56 -95 -114 -250 -138 -367 -69 -337 47 -702 306 -959 117 -117 299&#xA;-231 418 -262 177 -48 145 -46 940 -47 836 -1 795 2 916 -71 127 -76 192 -175&#xA;211 -319 22 -162 -18 -283 -131 -395 -53 -53 -81 -72 -141 -95 l-75 -30 -1042&#xA;-5 -1041 -5 -27 -25 c-14 -13 -65 -90 -112 -170 -115 -195 -160 -267 -200&#xA;-319 -37 -49 -43 -95 -15 -110 10 -5 494 -8 1232 -7 l1215 2 105 28 c212 55&#xA;434 191 561 343 116 138 163 220 227 396 l37 102 0 210 0 210 -34 105 c-60&#xA;186 -143 331 -260 454 -105 109 -210 179 -372 245 -151 63 -160 63 -984 71&#xA;-661 6 -758 8 -814 23 -104 28 -232 131 -281 227 -22 44 -50 155 -50 201 0 56&#xA;35 183 63 232 31 53 133 148 185 173 97 46 77 45 1227 51 600 3 1100 9 1113&#xA;14 39 15 43 49 40 315 -3 231 -5 254 -22 273 l-19 21 -1136 -1 c-625 -1 -1145&#xA;-3 -1156 -6z" fill="#FFFFFF"></path><path d="M5904 3376 l-29 -24 0 -1251 0 -1250 23 -23 c22 -23 25 -23 278 -23&#xA;l256 0 24 28 24 28 0 1243 c0 1209 -1 1244 -19 1267 -19 24 -20 24 -274 27&#xA;l-255 3 -28 -25z" fill="#FFFFFF"></path></g></svg>