<?xml version="1.0" encoding="UTF-8"?>
<svg id="Layer_2" data-name="Layer 2" xmlns="http://www.w3.org/2000/svg" viewBox="0 0 568.76 80.64">
  <defs>
    <style>
      .cls-1 {
        fill: #fff;
      }
    </style>
  </defs>
  <g id="Layer_1-2" data-name="Layer 1">
    <path class="cls-1" d="M547.38,80.2l-53,.31,8.1-13.44,45.44-.28c5.45-.03,8.64-6.35,8.33-10.59-.37-5.15-4.31-9.47-9.95-9.54l-31.27-.38c-12.16-.15-20.56-12.22-20.42-23.3.14-10.78,8.69-22.36,21.07-22.48l49.25-.48-.04,13.2-48.41.25c-5.71.03-9.29,6.05-8.98,10.68.33,5.08,4.65,9.28,10.34,9.34l30.13.33c12.45.14,20.78,11.82,20.8,23.21.02,10.74-8.57,23.08-21.38,23.16Z"/>
    <path class="cls-1" d="M460.97,80.63l-29.87-.47c-12.25-.19-23.7-12.78-23.73-24.88l-.06-29.13c-.03-14.88,13.37-26.19,27.78-26.05l25.16.24c11.46.11,23.1,10.4,24.38,22.08,1.34,12.27.55,24.02.29,36.15-3.06,11.39-11.71,19.86-23.95,22.06ZM458.28,67.04c8,.12,12.87-5.44,14.45-12.32l-.04-27.26c0-5.42-4.48-12.83-10.49-13.45-10.23-1.06-20.3-.91-30.66-.17-6.51.47-11.74,7.27-11.76,13.58l-.09,25.21c-.02,5.9,4.96,13.92,11.64,14.02l26.96.39Z"/>
    <polygon class="cls-1" points="395.38 79.91 382.81 80.36 382.81 46.59 335.65 46.63 335.65 80.43 322.64 80.25 322.66 .41 335.58 .27 335.64 33.52 382.71 33.52 382.95 .36 395.32 .12 395.38 79.91"/>
    <path class="cls-1" d="M266.71,66.66l44.54.34.11,13.51-39.98.12c-15.7.05-28.74-12.15-28.59-28.18l.24-25.97c.14-14.72,12.72-26.24,27.12-26.3l41.07-.18.12,13.33-39.89-.05c-9.19-.01-15.94,6.21-15.82,15.55l.32,26.42c.05,3.94,6.02,11.38,10.75,11.41Z"/>
    <path class="cls-1" d="M52.25,80.46l-52.25.11,8.71-13.49,45.35-.27c5.74-.03,8.89-6.23,8.56-10.72-.39-5.29-4.27-9.37-10.17-9.46l-31.13-.44C9.09,46.02.49,34.05.56,22.98.62,12.02,9.46.65,21.88.53L71.19.05l.09,13.33-47.44-.13c-5.37-.01-9.55,3.95-10.39,8.58-.84,4.63,2.34,11.4,8.13,11.51l33.81.64c12.57.24,20.74,13.01,20.04,24.3-.7,11.35-10.07,22.15-23.19,22.18Z"/>
    <path class="cls-1" d="M151.02,13.28l-72.03.08-.03-13.28h75.93c1.08,4.65-.06,8.82-3.87,13.2Z"/>
    <rect class="cls-1" x="110.33" y="24.28" width="13.09" height="56.33"/>
    <path class="cls-1" d="M208.29,80.22c-10.57.56-19,.57-28.73.03-11.65-.64-23.01-11.23-23.99-22.89-.86-10.22-.71-19.66-.54-29.88.25-14.97,12.27-27.27,27.31-27.33l22.51-.08c13.89-.05,26.58,10.25,27.53,24.95.67,10.36.72,20.79-.16,31.21-1.03,12.21-11.4,23.33-23.93,23.99ZM209.2,66.81c6.88-2,11.11-7.66,11.08-14.33l-.1-25c-.03-7.22-5.49-13.82-12.96-13.88l-25.98-.19c-7.67-.06-13.31,6.74-13.32,13.97l-.04,25.02c-.02,9.36,6.8,15.02,15.84,14.86l25.48-.46Z"/>
  </g>
</svg>