<?xml version="1.0" encoding="UTF-8"?>
<svg id="Ebene_1" xmlns="http://www.w3.org/2000/svg" version="1.1" viewBox="0 0 160 105.99">
  <!-- Generator: Adobe Illustrator 30.6.0, SVG Export Plug-In . SVG Version: 2.1.4 Build 109)  -->
  <defs>
    <style>
      .st0 {
        fill: #f48c02;
      }

      .st1 {
        fill: #fccd51;
      }

      .st2 {
        fill: #fddb7d;
      }

      .st3 {
        fill: #fdc94f;
      }

      .st4 {
        fill: #fc9c1f;
      }

      .st5 {
        fill: #fac609;
      }

      .st6 {
        fill: #ffbc06;
      }

      .st7 {
        fill: #fff;
      }

      .st8 {
        fill: #fcb52f;
      }

      .st9 {
        fill: #fca225;
      }

      .st10 {
        fill: #fcb92d;
      }

      .st11 {
        fill: #f48602;
      }

      .st12 {
        fill: #f89405;
      }

      .st13 {
        fill: none;
      }

      .st14 {
        fill: #fdba4e;
      }

      .st15 {
        fill: #fdba4f;
      }

      .st16 {
        fill: #fbe6a1;
      }

      .st17 {
        fill: #fca124;
      }

      .st18 {
        fill: #e89600;
      }

      .st19 {
        fill: #fcb12d;
      }

      .st20 {
        fill: #faa80b;
      }

      .st21 {
        fill: #fcc73c;
      }

      .st22 {
        fill: #fbe6a3;
      }

      .st23 {
        fill: #fcba3b;
      }

      .st24 {
        fill: #fcdc7a;
      }

      .st25 {
        fill: #c16801;
      }

      .st26 {
        fill: #f68a02;
      }

      .st27 {
        fill: #fde186;
      }

      .st28 {
        fill: #faa710;
      }

      .st29 {
        fill: #f89c05;
      }

      .st30 {
        fill: #ffb006;
      }

      .st31 {
        fill: #fcab31;
      }

      .st32 {
        fill: #fbce33;
      }
    </style>
  </defs>
  <rect width="160" height="105.99"/>
  <path class="st7" d="M96.07,50.21c-.96-4.97,2.01-10.36,5.39-14.67l.02,12.03c-1.98.8-3.56,1.56-5.41,2.64Z"/>
  <path class="st13" d="M72.91,57.4c.17.41.28,1.09.3,2.09.06-.22.15-.44.21-.66,0-.51,0-1.1-.52-1.43Z"/>
  <path class="st13" d="M92.67,41.16c.22-.19.46-.35.7-.4-.31-.04-.53.14-.7.4Z"/>
  <path class="st13" d="M89.3,28.44c.38-.31.76-.61,1.08-.86l-.87.05c.16.17.02.47-.21.8Z"/>
  <path class="st13" d="M104.37,49.63c.1,0,.2,0,.3.02-.08-.04-.15-.04-.24-.15,0,.05-.05.08-.06.13Z"/>
  <path class="st13" d="M100.26,52.84c.02.05-.03.1-.02.15l.06-.14s-.03,0-.04-.01Z"/>
  <path class="st12" d="M105.98,20.12c.22.17.53.38.69.6.12.17.01.64.44.64l4.59-.06h6.99s5.32.11,5.32.11l3.04.16c.71.04,1.22-.3,1.6-.85.33-.49.89-.74,1.41-.74,1.35-.02,1.71,1.21,2.02,1.38l-.11,1.1c-.25.97-1.27,1.62-2.29,1.42-1.23-.25-1.22-1.53-2.06-1.58l-2.24-.15-3.26-.09h-14.54c-.24,0-.65.08-.71.29-.37,1.18-1.6,1.83-2.75,1.3-.21-.09-.38-.18-.57.03l-2.67,2.93-1.42,1.98-.46.67-1.01,1.65c-.84,1.37-1.56,2.75-2.23,4.25.31.2.64.11.92-.04l1.15-.63c1.69-.93,3.34-1.82,5.15-2.52,2.82-1.09,5.7-1.65,8.72-1.83h2.96c1.23-.02,2.18.09,2.75-.76.41-.61,1.08-.94,1.81-.87.6.06,1.23.45,1.53,1.07.19.39.41.6.91.6h15.82c.29,0,.39-.13.48-.33.47-1.09,1.72-1.48,2.69-.91.94.56,1.22,1.84.52,2.73-.46.58-1.16.86-1.88.71-.64-.13-1.17-.62-1.43-1.3-.05-.14-.35-.19-.48-.19l-2.57.03h-9.88s-3.48-.02-3.48-.02c-.15,0-.53.12-.6.26-.37.79-1.07,1.29-1.93,1.27-.78-.02-1.5-.53-1.79-1.31-.48-.2-.97-.29-1.5-.3-5.75-.14-10.36.85-15.53,3.31-1.1.52-2.09,1.06-3.06,1.78-.21.16-.39.7-.36.96.14,1.45-.95,2.56-2.39,2.52l-.74.09c.07.45-.26.66-.41.95-.21-.17-.46-.17-.67-.31l.24-.58c.1-.22.22-.44.26-.69-.43-.42-.66-.92-.71-1.48l-.09-.98c-.01-.17-.12-.3.02-.4.2-.04.38-.06.54-.27.89-1.18,2-.71,2.29-1.26l1.9-3.6.81-1.37.19-.5c.87-1.52,1.9-2.95,3.14-4.22l1.22-1.24c.28-.28.6-.5.85-.85-.27-.3-.7-.56-1.08-.55l-.34-.32c.03-.1.09-.22.16-.25l.38-.14c.3-.11.64-.14.94-.33.37-.81,1.17-1.27,2.07-1.13.22.03.55.06.7.18Z"/>
  <path class="st18" d="M92.2,35.97c-.14.1-.04.24-.02.4l.09.98c-.2-.04-.47-.08-.73,0-.94.32-1.76.74-2.62,1.24-3.69,2.15-6.6,5.3-8.95,8.86-.98,1.49-1.9,2.93-2.65,4.55l-2.76,6.01-1.89,4.61c-.95,2.31-1.97,4.49-3.16,6.68-1.19,2.2-2.57,4.16-4.13,6.11-2.42,3.04-5.46,5.45-9.02,7.02l-1.17.43c-.3-.37-.87-.41-1.21-.03l-1.14-.16-.88.19-.88-.17c-.21-.04-.1-.45.09-.52.33-.11.53-.31.65-.61,5.2-1.08,9.64-4.5,12.82-8.68.36.04.6-.19.82-.45l1-1.17,1-1.46,1.93-3.77,2.33-5.49,1.32-3.28,1.99-4.51,2.74-5.03,2.01-2.93c1.73-2.52,3.97-4.56,6.48-6.3,1.82-1.26,3.79-2.15,5.93-2.53Z"/>
  <path class="st19" d="M81.37,37.73c-.21.23-.34.51-.5.79l-1.86,3.26c-1.24,2.17-2.24,4.38-3.12,6.73l-1.55,4.16-1.24,3.59-1.4,3.93c-.06.15-.1.28.03.37l-2.33,5.49-1.93,3.77-1,1.46-1,1.17c-.22.26-.46.49-.82.45,3.05-4.01,4.98-9.3,6.49-14.17l2.49-8.06c1.47-4.2,3.72-9.4,6.5-12.8l.38-.53.87.39Z"/>
  <path class="st30" d="M121.35,13.81c-.04-.28.3-.31.49-.66l-.34-.13.55.06,3.52-.02,3.55-.06,8.94.09c.32,0,.71-.16.84-.41.31-.59.77-.99,1.37-1.09s1.23.1,1.67.6c.76.85.56,2.17-.38,2.76s-2.13.23-2.67-.82c-.11-.22-.55-.33-.85-.33h-16.7Z"/>
  <path class="st32" d="M131.96,22.46l.11-1.1c.44.25,1,.36,1.54.36h3.68s6.1-.02,6.1-.02l4.93.05c.53,0,1.02-.05,1.51-.22.24-.08.37-.29.49-.49.43-.72,1.24-1.08,2.04-.84.89.26,1.44,1.05,1.38,1.93s-.66,1.61-1.58,1.73-1.78-.41-2.03-1.31c-.27-.12-.51-.2-.84-.2h-16.21c-.43.01-.76.01-1.11.13Z"/>
  <path class="st24" d="M102.27,21.4l-.38.14c-.07.03-.14.15-.16.25l.34.32c-1.97.05-3.91.34-5.79,1.09-2.36.94-4.41,2.34-6.27,4.05l-2.56,2.56-2.75,3.46c-.09.03-.08.14.02.14l-.77.56c-.26.19-.7.15-.98.11l1.01-1.24,3.24-3.94,2.53-2.5c1.56-1.54,3.36-2.69,5.36-3.6,1.75-.79,3.55-1.22,5.47-1.33l1.7-.08Z"/>
  <path class="st25" d="M89.94,45.72c.29.04.56.16.82.39l.19-.2c-.01.18,0,.36.15.51.58.59.76,1.44.45,2.2-.39.93-1.14,1.21-2.11,1.33-.26-.14-.53-.25-.88-.2l-.22-.29c-.28-.21-.5-.49-.64-.82s-.15-.72-.12-1.08c.12-1.17,1.19-2,2.35-1.85Z"/>
  <path class="st5" d="M121.5,13.02l.34.13c-.19.35-.54.38-.49.66-.43,0-.73.29-.91.67-.29.6-.89.97-1.48,1.05-.66.09-1.32-.2-1.77-.71l-.37-.31c.17-.3-.13-.66-.14-1.11.11-.3.18-.61.39-.9.43-.58,1.05-.91,1.75-.87s1.17.41,1.6.96c.23.3.79.33,1.08.44Z"/>
  <path class="st25" d="M82.95,34.08c.41.37.74.78.86,1.33.13.62,0,1.32-.5,1.81-.52.52-1.27.68-1.95.51l-.87-.39c-.41-.85-.74-1.41-.29-2.36.28-.58.91-1,1.67-1.09.39-.04.72.13,1.07.18Z"/>
  <path class="st29" d="M23.57,70.22c-.17.46-.48.84-.9,1.07-.9.51-1.98.18-2.48-.66-.49-.83-.29-1.89.53-2.48.67-.49,1.53-.45,2.2.05.58.43.93,1.28.65,2.03Z"/>
  <path class="st31" d="M116.82,14.5c-.42.02-.83.14-1.28.3-3.02,1.1-5.76,2.77-8.12,4.95-.33.3-.55.58-.74.97-.15-.22-.47-.43-.69-.6l.97-.84c1.66-1.53,3.46-2.82,5.47-3.87l3.36-1.37c.36-.15.78-.33.91-.66,0,.46.31.81.14,1.11Z"/>
  <path class="st11" d="M17.87,88.78c-.14.24-.3.49-.5.68-.68.65-2.11.78-2.91-.27-.41-.54-.5-1.26-.2-1.93.09-.2.2-.42.36-.59l.33-.36.52-.18c.65-.23,1.31-.06,1.81.34.76.6.88,1.82.6,2.31Z"/>
  <path class="st25" d="M7.05,80.06c-.22.39-.35.92-.7,1.19-.95.71-2.27.48-2.87-.5-.61-1-.22-2.27.84-2.8.69-.34,1.48-.25,2.07.2s.78,1.21.66,1.92Z"/>
  <path class="st14" d="M14.94,86.31l-.33.36c-.16.17-.27.4-.36.59-.02-.29-.21-.52-.45-.72l-1.02-.86c-1.85-1.55-3.76-2.95-5.83-4.19-.2-.12-.4-.17-.6-.24.35-.26.48-.79.7-1.19-.06.34.06.64.36.86l1.31.96c1.69,1.25,3.37,2.42,5.02,3.73l1.2.7Z"/>
  <path class="st2" d="M98.99,29.25l.46-.67c.14.16.32.09.54.09l8.12.05,3.03.1c-.03.22-.21.21-.37.21l-7.04.07-4.73.16Z"/>
  <path class="st17" d="M93.13,40.4c-.65,1.21-1.12,2.49-1.64,3.8l-.5,1.27-.03.45-.19.2c-.26-.23-.53-.36-.82-.39.06-.07.19-.15.23-.27l1.06-2.7.24-.44.46-1.1.53-1.12c.21.13.46.13.67.31Z"/>
  <path class="st9" d="M89.44,49.95c-.22.16-.38.39-.49.69l-.87,2.48c-.14.4-.15.79-.11,1.17-.07-.05-.1-.16-.14-.31-.03.06-.07.11-.12.14-.05.03-.13-.03-.19-.04l-.64-.16.31-.41,1.04-3.11c.11-.32.17-.64.12-.93l.22.29c.36-.05.62.06.88.2Z"/>
  <path class="st8" d="M97.93,28.97l-.19.5-.81,1.37s.05-.16.01-.18c-1.02,0-.92-.79-1.28-.8h-.41c-.13-.16-.11-.36,0-.5.15-.03.47-.04.56-.22.17-.32.39-.56.64-.64.8-.26.96.27,1.48.46Z"/>
  <path class="st3" d="M95.25,29.36c-.12.14-.14.34,0,.5h.41c-.07.15-.26.05-.39.09l-4.31,1.23c-2.34.86-4.5,1.99-6.56,3.36-.33.23-.52.51-.58.87-.12-.55-.45-.96-.86-1.33.28.04.72.08.98-.11l.77-.56,1.24-.65,1.98-.98c1.9-.94,3.85-1.67,5.94-2.12l1.38-.3Z"/>
  <path class="st26" d="M73.91,81.95c-2.01,2.59-4.19,5.03-6.67,7.25-4.7,4.21-10.37,6.93-16.56,8.05l-5.33.58c-.96.1-1.36,1.87-3.18,1.59-.63-.1-1.2-.57-1.54-1.22-.18-.34-.62-.43-1.01-.46-3.45-.28-6.82-.94-10.01-2.14.1-.18.21-.33.36-.47.12-.06.23-.07.34-.08l3.88,1.05c1.39.38,5.88,1.13,6.4.5.27-.32.41-.8.75-1,.61-.38,1.49-.48,2.12-.11.56.33,1.08.54,1.81.55,3.49.05,6.88-.58,10.15-1.84,4.12-1.59,7.9-3.79,11.22-6.69l3.23-3.08.7-.73c.21-.22.48-.31.78-.47l2.47-1.35s.11.03.11.07Z"/>
  <path class="st10" d="M132.54,52.91l-.51-.16c-.19-.06-.47.27-.54.45-.12.31-.35.28-.55.46l-.93.83-.4.37c-.43.4-.9.75-1.45,1.05-2.89,1.57-6.27,2.61-9.58,2.19-1.89-.24-3.69-.69-5.45-1.43l-4.37-1.83-3.29-1.13c-.05-.29.07-.53.41-.62l-.12-.2,4.43,1.69,5.05,2.04c4.68,1.89,10.79.4,14.59-2.91l-1.61.87-.99.48c-1.45.7-3.01.94-4.64,1.04-1.45.09-2.85-.14-4.25-.52-.81-.22-1.58-.36-2.43-.42-.76-.05-1.47-.32-2.16-.59l-2.21-.85-3.83-1.49c-1.5-.59-4.13-.61-5.76-.32.56-.15.18-.91.39-.94.25-.03.48.03.67.08.13.04.23.06.41.01.57-.15,1.16-.04,1.74-.06.7-.02,1.3.1,1.93.34l2.5.96c2.29.88,4.55,1.7,6.93,2.31.51.13,1.02.29,1.53.03l-4.8-2.26c-1.13-.53-2.18-1.07-3.37-1.46-1.84-.6-3.73-.76-5.59-.42l.21-.35c.17-.29.44-.37.68-.45,2.09.03,4.42.22,6.45,1.25l4.44,2.26,1.91.94c.39.19.62.57,1.08.7,2.43.74,4.14.71,6.59,0,1.63-.48,3.12-1.19,4.37-2.36l-1.3.6c-.06-.12-.34,0-.72-.23l.51-.2s-.04-.11-.08-.08l1.02-.42c.31-.13.47-.06.72-.11.37-.07.68-.46.99-.65-.07-.23-.17-.39-.29-.58.33-.12.7-.31.71-.65,1.58-1.17,2.88-2.68,3.8-4.54.13,1.43-.31,2.68-.85,3.92-.58,1.2-1.25,2.29-2.02,3.33Z"/>
  <path class="st5" d="M128.02,51.79l.46.03c-.18.28-.19.53-.18.81-.47.07-1.15.27-1.73.28-2.69.06-4.62-.97-6.83-2.34-2.71-1.69-6.23-3.13-9.4-2.48l-1.74.36,3.31.57-.04.42-.39.04c-1.65-.41-3.38-.45-5.08-.12l-1.19.37c-.25.08-.51.16-.68.45l-.21.35c-.46.08-.92.18-1.28.53-.19-.06-.42-.11-.67-.08-.21.03.16.79-.39.94-.39.07-.74.13-1.06.4l1.82-.04c.47-.01.89.06,1.32.18l1.71.45.12.2c-.34.09-.46.33-.41.62-1.08-.37-2.24-.5-3.43-.59-.88-.06-1.71.17-2.54.38-.36.09-.57.22-.84.45l-2.11,1.82-1.12.96c-.09.08-.26.1-.29.31l.75.26-1.47.63c-.5-.08-.51-.85-.49-1.61,3.85-4.11,9.49-7.83,15.04-9.19,3.03-.74,6.04-.33,8.78,1.08l2.94,1.78c.71.43,1.36.88,2.14,1.21,1.66.71,3.46.95,5.18.57Z"/>
  <path class="st30" d="M132.54,52.91c-.14.19-.29.49-.52.63-.19.12-.26.12-.32.37s-.28.6-.52.68l-.33.11c-.07.02.01.31-.04.37-3.16,3.69-7.15,6.47-11.97,7.43-3.45.68-7.09.09-10.43-1l-3.63-1.18c-2.82-.92-6.15-1.42-8.92-.59,0-.36-.41-.35-.71-.61,3.2-1.04,6.33-.84,9.57.27l3.68,1.25,4.09,1.13c3.99.81,8.16.12,11.63-2.04-2.04.65-4.01,1.01-6.14.84-2.13-.17-4.13-.65-6.15-1.3l-3.45-1.19c-3.82-1.32-8.76-2.37-12.49-.77l-.75-.26c.03-.2.2-.23.29-.31,1.89-.81,3.95-1.1,6.04-.92,1.7.15,3.32.35,4.94.89l5.24,1.75c2.31.87,4.64,1.43,7.12,1.52s4.98-.67,7.16-1.98c.85-.51,1.63-1.02,2.36-1.7l1.38-1.28c.06-.06.04-.16-.05-.17l.4-.37.93-.83c.2-.18.43-.16.55-.46.07-.17.35-.51.54-.45l.51.16Z"/>
  <path class="st6" d="M86.88,53.91l.64.16c.07.02.14.07.19.04.05-.03.09-.08.12-.14.04.15.07.26.14.31.75.53,1.04,1.41.79,2.31-.22.8-.94,1.38-1.85,1.47-.24.02-.48.18-.56.41l-.84,2.32c-.79,2.17-1.6,4.26-2.61,6.35-1.58,3.29-3.28,6.43-5.3,9.45l-1.57,2.34-.45.63c-.64.13-1.1.59-1.64.96l-.84.35c.02-.13.11-.26.21-.39l1.1-1.48c2.19-2.94,4.2-5.93,6.03-9.11l2.53-4.76,2.46-6.42c.1-.27.27-.83.04-1.03-.87-.75-1.16-1.97-.46-2.94.43-.6,1.18-.89,1.88-.84Z"/>
  <path class="st28" d="M51.83,81.57c-.12.3-.32.5-.65.61-.2.07-.3.48-.09.52l.88.17.88-.19,1.14.16c.34-.38.92-.34,1.21.03l-.73.26c-2.95.78-5.97.99-9.02.6.1.22.35.16.5.2-.05.08-.13.13-.26.15-.43.07-.18.68-.65.59l-3.04-.91-3.22-1.03c-1.65-.53-3.2-1.23-4.72-2.05-.28-.15-.52-.28-.84-.18.52-.33.79-.89.99-1.49l.52.41c1.39.57,2.74,1.1,4.2,1.49,2.26.61,4.49.98,6.83,1.12,2.09.13,4.1-.04,6.08-.45Z"/>
  <path class="st1" d="M94.42,57.94c-.23.1-.38.3-.54.48l-2.08,2.3c1.16-.57,2.18-1.22,3.35-1.6.3.25.71.24.71.61-2.71.81-5.8,3.1-7.48,5.42l-3.55,4.91-.38.49-.62-.32c-.17-.09-.36-.08-.52-.19,1.11-1.96,2.47-3.71,3.78-5.59s2.51-3.52,4.03-5.14l2.8-2.99c-.03.76,0,1.53.49,1.61Z"/>
  <path class="st22" d="M51.18,85.99l2.17.3c.37.05.73.16,1.07.1.22-.04.41.07.6.09l-.88.05-2.45.62c-1.93.38-3.86.72-5.83.6l-1.4-.08c-3.96-.46-7.74-1.73-11.15-3.78l-1.83-1.33-1.93-1.71-1.28-1.08c-.29-.25-.62-.42-.84-.79.66.12,1.11.54,1.62.89l1.87,1.28,1.73,1.23c3.98,2.84,9.09,4.2,13.99,4.14,1.5-.02,2.92-.08,4.38-.38.1-.02.16-.1.18-.16Z"/>
  <path class="st20" d="M75.59,79.57l-.3.53-.95,1.34-.43.5s-.06-.1-.11-.07l-2.47,1.35c-.3.16-.56.25-.78.47-.11-.07-.22.03-.35.08l-1.4.59c-2.6,1.09-5.32,1.79-8.09,2.02l-1.31.11c-1.46.12-2.94.12-4.4-.03-.18-.02-.37-.13-.6-.09l-.11-.15,1.95-.73c.14-.05.26-.1.33-.18h.57c1.48.02,2.96-.06,4.43-.28l1.26-.19c3.47-.71,6.82-1.91,9.93-3.7l.32-.27.84-.35c.54-.37,1-.83,1.64-.96Z"/>
  <path class="st18" d="M59.4,86.5l1.31-.11-1.21.78-4.17,1.92c-1.41.65-5.6,1.35-7.42,1.44-4.74.24-9.68-.69-14.19-2.3l.91,1.3c-.06.16-.19.31-.41.31h-.39c-.37-.11-.65-.32-.96-.62l-.94-.93-1.4-1.25-2.47-.99c-.43-.17-.84-.27-1.28-.27l.45-.99c.29.32.64.55,1.08.72l7.11,2.72c2.62,1,6.99,1.79,9.83,1.82,3.01.02,5.94-.36,8.83-1.12l2.42-.84,2.69-1.34c.14-.07.23-.12.21-.26Z"/>
  <path class="st21" d="M84.47,70.55c-2.68,3.95-5.38,7.54-9.31,10.41-.28.2-.5.41-.82.49l.95-1.34.3-.53.45-.63c.01.05.07.07.09.04l1.5-1.45c1.02-.99,1.91-2.01,2.72-3.19l1.84-2.69.45-.5.33-.69.35-.42c.16.11.35.1.52.19l.62.32Z"/>
  <path class="st25" d="M34.19,79c-.2.59-.46,1.16-.99,1.49-.66.41-1.48.43-2.17,0-.55-.34-.99-1.08-.9-1.84.03-.27.06-.61.17-.81.18-.31.48-.69.81-.88.62-.36,1.37-.38,2.02-.02.47.26.93.79,1.01,1.47.02.2.1.43.05.58Z"/>
  <path class="st25" d="M43.45,95.48c-.63-.37-1.51-.26-2.12.11-.07-.35-.21-.63-.48-.87-1.04-.92-2.09-1.78-3.27-2.53-1.13-.72-2.23-1.39-3.25-2.27-.24.08-.38-.03-.51-.07h.39c.22-.01.34-.16.41-.32.75.59,1.61,1,2.48,1.47,2.84,1.54,6.71,1.91,9.87,1.35l3.2-.56c.09-.02.19.02.21.07s0,.14-.1.16c-1.71.52-3.43.74-5.23.77l-1.97.03-2.58-.2c-.4-.03-.74-.21-1.2-.1l1.05.75c.47.33.93.85,1.49,1.02.4.12.66.13.95.5.18.24.56.39.66.69Z"/>
  <path class="st30" d="M27.23,84.8l-.45.99c-.3.34-.78.57-1.25.66-.7.14-1.28-.17-1.71-.64-.42-.47-.51-1.16-.33-1.77.1-.34.39-.75.58-.87.54-.35,1.2-.48,1.88-.21,1.11.44,1.16,1.71,1.28,1.85Z"/>
  <path class="st23" d="M54.78,85.23l1.81.08c-.07.08-.19.13-.33.18l-1.95.73.11.15c-.33.06-.69-.05-1.07-.1l-2.17-.3-4.86-1.04-1.29-.29c.47.09.22-.51.65-.59.12-.02.2-.07.26-.15,2.9.69,5.86,1.17,8.84,1.31Z"/>
  <path class="st18" d="M30.3,95.05c-.11,0-.22.02-.34.08-.15.14-.26.29-.36.47l-.5-.16c-3.91-1.45-7.58-3.33-11.04-5.66-.24-.16-.41-.31-.7-.32.2-.19.37-.44.5-.68.19.24.45.36.74.54,2.47,1.52,4.94,2.91,7.58,4.12,1.38.63,2.7,1.23,4.11,1.61Z"/>
  <path class="st0" d="M16.17,76.92c-.12.35-.3.63-.59.83-.6.41-1.42.44-2.01.03-.55-.38-.82-1.09-.69-1.81.12-.66.68-1.08,1.19-1.24.66-.2,1.31-.04,1.76.44s.55,1.18.35,1.76Z"/>
  <path class="st27" d="M31.12,76.97c-.33.19-.62.57-.81.88-.03-.2-.16-.29-.31-.43l-3.87-3.41-2.52-2.21c-.28-.25-.56-.46-.95-.5.42-.24.73-.61.9-1.07.05.22.11.51.32.7l1.47,1.39,2.42,2.21c.77.7,1.53,1.35,2.39,1.94.3.21.58.43.95.5Z"/>
  <path class="st15" d="M24.08,83.17c-.19.12-.48.54-.58.87.04-.26-.05-.45-.28-.63l-6.91-5.38c-.24-.18-.43-.33-.72-.29.29-.2.47-.48.59-.83.04.22.14.42.35.6,2.21,1.86,4.43,3.63,6.79,5.29.26.18.49.31.75.36Z"/>
  <path class="st5" d="M131.6,50.2c-.01.34-.38.53-.71.65.12.19.22.34.29.58-.3.19-.62.58-.99.65-.25.05-.42-.02-.72.11l-1.02.42-.14.02c0-.27,0-.53.18-.81l-.46-.03c1.12-.25,2.19-.69,3.17-1.34.15-.1.26-.19.41-.25Z"/>
  <path class="st4" d="M128.01,52.88c.39.24.66.11.72.23-1.68.77-3.52,1.08-5.42.87-1.59-.17-3.09-.6-4.51-1.31l-3.21-1.61c-1.16-.58-2.3-1.15-3.56-1.46l-.55-.14.39-.04.04-.42c2.96.51,5.35,2.76,8.9,3.83,1.96.59,3.95.76,5.95.37l1.25-.34Z"/>
  <path class="st16" d="M91.23,42.75c0-.05-.06-.08-.08-.06-.22.26-.51.35-.81.48-.75.33-1.37.83-2.02,1.32-1.34,1.01-2.52,2.09-3.63,3.37-1.54,1.78-2.84,3.68-4.02,5.72l-1.6,2.75-1.63,3.19-1.59,3.53-.93,2.31c-.49,1.21-1.01,2.32-1.67,3.45l-1.12,1.93-1.28,2.28-2.33,3.28c-.3.42-.71.71-.87,1.29.95-.36,1.61-1.07,2.23-1.8l.5-.59c.7-.83,1.47-1.59,1.95-2.57l1.04-2.1.88-2.18,1.64-3.57,1.83-3.89,3.66-6.88c1.28-2.41,3.16-4.38,5.43-5.88.28-.19.69-.13.75-.56-.04.35-.03.75.12,1.08-1.23,0-2.04.88-2.87,1.8-.87.97-1.55,2.02-2.15,3.17l-.48,1.11c-.09.2-.17.38-.09.61l-1.6,3.3-1.29,2.95c-1.85,4.24-4.63,9.85-7.52,13.35l-1.65,2.01c-1.98,2.4-3.98,4.7-6.24,6.83l-1.06,1s.08.06.1.07l-1.26.19c.06-.16.2-.25.34-.38l2.39-2.23,1.01-1.07c.66-.7,1.38-1.3,1.92-2.2l-2.55,1.67-5.07,3.18-2.07.99c-.17.08-.33.14-.38.32h-.57s-1.81-.09-1.81-.09c.07-.1.17-.17.31-.22,1.3-.46,2.5-1.02,3.67-1.75l2.8-1.73c1.53-.94,2.88-2.07,4.06-3.42l1.39-1.58c1.59-2,3.14-3.98,4.42-6.2l1.44-2.51c.64-1.12,1.08-2.27,1.57-3.46l1.94-4.75c1.48-3.37,3.2-6.53,5.34-9.52,1.02-1.42,2.03-2.71,3.28-3.92,1.77-1.72,3.7-3.17,5.85-4.37l1.07-.61-.46,1.1-.24.44ZM74.9,68.76l1.05-1.78c.77-1.32,1.3-2.71,1.89-4.11l.85-2c.22-.52.57-.96.61-1.58-.33.3-.45.69-.62,1.08l-1.03,2.23-.96,2.2-1.11,2.32c-.24.56-.57,1.05-.68,1.65Z"/>
  <path class="st7" d="M105.95,12.21l-21.84.11.17,17.28,2.5-2.65c.61-.65,1.31-1.16,1.97-1.72,4.51-5.66,11.2-8.97,18.1-12.31.44-.55.14-.79-.9-.72Z"/>
  <path class="st7" d="M65.66,68.28c1.25-2.72,2.27-5.59,3.12-8.34l1.98-6.4c-2.81-3.42-6.46-5.68-10.71-5.78l-28.48-.68c-4.88-.12-7.56-7.27-6.85-12.17.71-4.9,4.23-9.08,8.75-9.07l39.96.13-.08-14.09-41.54.5c-10.46.13-17.91,12.14-17.96,23.73-.06,11.7,7.19,24.36,17.49,24.54l26.22.46c4.09.07,7.01,3.01,8.1,7.16Z"/>
  <path class="st7" d="M96.95,62.86c-2.71.81-5.8,3.1-7.48,5.42l-1.52,2.1c-.1.14-.19.28-.3.42l-1.73,2.39-.38.49c-.51.75-1.02,1.47-1.54,2.19l.06,18.96,16.97.02.02-32.36c-1.42-.1-2.83-.02-4.12.36Z"/>
</svg>