<?xml version="1.0" encoding="UTF-8"?><svg id="cadfem_group_logo" xmlns="http://www.w3.org/2000/svg" viewBox="0 0 633.5 89.14"><defs><style>.cls-1{fill:#fff;}</style></defs><path class="cls-1" d="M42.83,22.97h-3.29l-6.11,18.07h3.1l1.24-4.03h6.83l1.24,4.03h3.1l-6.11-18.07ZM38.6,34.34l2.59-8.4,2.59,8.4h-5.18Z"/><path class="cls-1" d="M554.6,49.03c0,3.32-.77,6.03-2.31,8.13-1.54,2.1-3.86,3.64-6.96,4.63-3.11.99-7.07,1.49-11.9,1.49s-8.82-.49-11.9-1.47c-3.08-.98-5.4-2.52-6.93-4.63-1.54-2.1-2.31-4.82-2.31-8.14v-26.74h-4.61v26.74c0,4.17.97,7.63,2.91,10.37,1.94,2.74,4.81,4.79,8.6,6.13,3.8,1.34,8.54,2.01,14.24,2.01s10.48-.67,14.28-2.01c3.81-1.34,6.67-3.38,8.57-6.13,1.91-2.74,2.86-6.2,2.86-10.37v-26.74h-4.55v26.74Z"/><path class="cls-1" d="M64.23,53.79c-.1-.88-.28-1.65-.55-2.29-.26-.64-.64-1.22-1.12-1.73-.4-.43-.86-.78-1.37-1.07s-1.07-.51-1.69-.66c-.61-.15-1.29-.23-2.01-.23s-1.4.08-2.02.23c-.62.15-1.18.37-1.69.66s-.97.65-1.37,1.07c-.44.47-.79.99-1.05,1.57s-.44,1.25-.56,2.01-.18,1.71-.2,2.83c0,.16-.01.32-.01.48v.48c0,1.35.05,2.46.16,3.34.1.88.29,1.65.55,2.29s.63,1.22,1.12,1.73c.4.43.86.78,1.37,1.07s1.08.51,1.69.66,1.29.23,2.02.23,1.4-.08,2.01-.23c.61-.15,1.18-.37,1.69-.66s.97-.65,1.37-1.07c.44-.47.79-.99,1.05-1.57.25-.58.44-1.25.56-2.01s.18-1.71.2-2.83c0-.16.01-.32.01-.48v-.48c0-1.35-.05-2.46-.15-3.34ZM61.39,59.24c-.05.79-.14,1.45-.28,1.98-.14.53-.35.98-.65,1.34-.2.26-.45.47-.74.65-.29.17-.62.3-1,.38-.37.08-.78.13-1.24.13s-.86-.04-1.24-.13c-.37-.08-.71-.21-1-.38-.29-.17-.54-.39-.75-.65-.35-.43-.59-.98-.73-1.67-.13-.69-.21-1.58-.23-2.67,0-.18-.01-.35-.01-.53v-.55c0-.69,0-1.23.03-1.62.03-.91.11-1.68.25-2.29.14-.61.37-1.12.69-1.51.21-.26.46-.47.75-.65.29-.17.62-.3,1-.38.37-.08.78-.13,1.24-.13s.86.04,1.24.13c.37.08.71.21,1,.38.29.17.54.39.74.65.34.41.58.94.72,1.58.13.64.21,1.48.24,2.5,0,.28.01.72.01,1.34,0,.77-.01,1.47-.04,2.11Z"/><path class="cls-1" d="M33.47,25.71c-.48-.88-1.18-1.55-2.11-2.03-.93-.47-2.08-.71-3.44-.71h-5.62v18.07h2.95v-6.31h2.6c1.39,0,2.55-.23,3.49-.69.94-.46,1.65-1.13,2.13-2,.48-.87.72-1.93.72-3.18s-.24-2.27-.72-3.15ZM30.83,30.66c-.25.46-.62.8-1.12,1.01-.5.21-1.13.31-1.89.31h-2.59v-6.26h2.59c.74,0,1.37.11,1.88.34.51.23.88.57,1.14,1.03.25.46.38,1.04.38,1.74,0,.75-.13,1.36-.38,1.83Z"/><path class="cls-1" d="M53.98,34.03h3.24l3.22,7.01h3.29l-3.64-7.52c.14-.06.27-.11.41-.18.9-.46,1.61-1.1,2.13-1.94.52-.84.78-1.8.78-2.9,0-1.18-.24-2.18-.72-3.01-.48-.83-1.16-1.46-2.05-1.88-.89-.43-1.93-.64-3.12-.64h-6.48v18.07h2.95v-7.01ZM53.98,25.72h3.43c.59,0,1.1.09,1.56.26s.81.46,1.07.87c.26.41.4.95.4,1.63,0,.72-.13,1.29-.4,1.7-.27.41-.62.7-1.07.87s-.96.24-1.55.24h-3.43v-5.57Z"/><polygon class="cls-1" points="67.37 66.17 70.32 66.17 70.32 58.85 77.53 58.85 77.53 56.09 70.32 56.09 70.32 50.86 78.28 50.86 78.28 48.1 67.37 48.1 67.37 66.17"/><path class="cls-1" d="M609.23,28.66c-1.32-2.04-3.3-3.62-5.94-4.72-2.64-1.1-5.89-1.66-9.75-1.66h-27.89v44.57h4.58v-16.96h23.28c3.86,0,7.1-.55,9.74-1.66,2.63-1.1,4.62-2.69,5.96-4.75,1.34-2.06,2.01-4.55,2.01-7.46s-.66-5.32-1.98-7.37ZM605.09,41.27c-.93,1.41-2.34,2.49-4.24,3.22-1.9.73-4.31,1.1-7.24,1.1h-23.37v-19.01h23.4c2.89,0,5.29.36,7.2,1.08,1.91.72,3.33,1.78,4.26,3.17.93,1.39,1.39,3.12,1.39,5.18s-.46,3.83-1.39,5.25Z"/><path class="cls-1" d="M430.62,46.23c2.52-1.02,4.4-2.49,5.65-4.41s1.87-4.24,1.87-6.96-.62-4.84-1.86-6.72c-1.24-1.88-3.11-3.32-5.62-4.33-2.51-1.01-5.6-1.52-9.27-1.52h-30.74v44.57h4.58V26.59s26,0,26,0c2.85,0,5.17.32,6.98.97s3.13,1.6,3.96,2.85c.84,1.25,1.25,2.8,1.25,4.66,0,2.04-.49,3.69-1.45,4.94-.97,1.25-2.35,2.15-4.13,2.71-1.78.56-3.96.84-6.52.84h-21.51v4.21h17.89l15.75,19.1h5.63l-15.93-19.16c2.87-.15,5.37-.62,7.45-1.47Z"/><polygon class="cls-1" points="203.07 66.86 210.13 66.86 210.13 48.66 228.02 48.66 228.02 42.03 210.13 42.03 210.13 28.88 229.88 28.88 229.88 22.29 203.07 22.29 203.07 66.86"/><path class="cls-1" d="M197.79,41.85c-.04-2.44-.16-4.45-.34-6.04-.19-1.59-.49-2.96-.91-4.12-.42-1.16-1.01-2.25-1.75-3.28-.99-1.38-2.16-2.52-3.51-3.4-1.35-.89-2.96-1.56-4.83-2.03-1.87-.46-4.04-.7-6.52-.7h-13.71v44.57h13.71c2.48,0,4.65-.23,6.53-.7,1.88-.46,3.5-1.15,4.87-2.06,1.37-.91,2.55-2.07,3.54-3.5.8-1.11,1.42-2.33,1.84-3.65.42-1.32.71-2.93.87-4.84.16-1.91.23-4.43.23-7.57,0-1.24-.01-2.14-.03-2.69ZM190.64,50.92c-.1,1.51-.27,2.68-.51,3.53-.24.85-.6,1.61-1.1,2.29-.6.83-1.31,1.5-2.12,2.01-.82.52-1.8.9-2.97,1.16-1.17.26-2.55.39-4.16.39h-6.5v-31.45h6.53c1.57,0,2.93.12,4.08.36,1.16.24,2.15.61,2.97,1.13s1.54,1.2,2.14,2.04c.51.72.89,1.52,1.13,2.38.24.87.41,2.03.51,3.5.1,1.46.15,3.54.15,6.22s-.05,4.93-.15,6.44Z"/><polygon class="cls-1" points="65.13 22.97 65.13 25.74 70.24 25.74 70.24 41.05 73.18 41.05 73.18 25.74 78.28 25.74 78.28 22.97 65.13 22.97"/><polygon class="cls-1" points="288.08 49.96 275.95 22.29 267.93 22.29 267.93 66.86 274.93 66.86 274.93 36.15 285.64 59.24 290.53 59.24 301.21 36.21 301.21 66.86 308.2 66.86 308.2 22.29 300.22 22.29 288.08 49.96"/><polygon class="cls-1" points="235.6 66.86 262.4 66.86 262.4 60.29 242.65 60.29 242.65 47.48 259.21 47.48 259.21 40.95 242.65 40.95 242.65 28.85 262.4 28.85 262.4 22.29 235.6 22.28 235.6 66.86"/><path class="cls-1" d="M118.14,53.45c-.21.99-.46,1.86-.77,2.6-.31.74-.69,1.38-1.15,1.92-.74.99-1.71,1.74-2.91,2.26-1.2.52-2.66.77-4.4.77-1.18,0-2.22-.12-3.13-.36-.91-.24-1.69-.57-2.35-.99-.66-.42-1.23-.94-1.7-1.56-.68-.87-1.19-1.93-1.52-3.19-.33-1.26-.55-2.85-.65-4.77-.08-1.46-.12-3.38-.12-5.76,0-.72,0-1.41.02-2.07.01-.66.03-1.3.05-1.92.06-2.27.26-4.16.6-5.66.34-1.51.89-2.74,1.66-3.71.49-.64,1.09-1.17,1.78-1.59.69-.42,1.49-.74,2.38-.96.9-.22,1.88-.32,2.96-.32,1.73,0,3.21.26,4.43.79,1.22.53,2.19,1.26,2.91,2.21.39.54.73,1.17,1.02,1.89.29.72.51,1.55.68,2.48l6.87-1.21c-.31-1.63-.77-3.11-1.39-4.44-.62-1.33-1.41-2.52-2.38-3.57-1.42-1.53-3.15-2.69-5.17-3.5-2.02-.8-4.33-1.21-6.93-1.21-1.73,0-3.34.18-4.83.54-1.49.36-2.83.89-4.04,1.59-1.21.7-2.29,1.57-3.23,2.6-1.2,1.26-2.11,2.69-2.74,4.3-.63,1.61-1.07,3.5-1.32,5.68-.25,2.18-.37,4.92-.37,8.22s.13,6.17.37,8.37c.25,2.2.69,4.09,1.32,5.68.63,1.59,1.53,3,2.71,4.24.95,1.03,2.03,1.9,3.25,2.61,1.22.71,2.57,1.25,4.05,1.61,1.49.36,3.1.54,4.83.54,2.6,0,4.91-.4,6.93-1.21,2.02-.8,3.75-1.97,5.2-3.5.99-1.07,1.82-2.27,2.48-3.61.66-1.33,1.15-2.83,1.45-4.5l-6.84-1.3Z"/><path class="cls-1" d="M501,37.17c-.58-2.17-1.46-4.09-2.65-5.77-1.19-1.68-2.7-3.18-4.53-4.5-1.75-1.24-3.71-2.25-5.88-3.05-2.17-.8-4.56-1.37-7.17-1.72-2.61-.35-5.51-.53-8.68-.53s-6.08.18-8.7.53c-2.62.35-5.01.92-7.17,1.72-2.16.79-4.12,1.81-5.9,3.05-1.65,1.22-3.05,2.58-4.18,4.1-1.13,1.52-2.02,3.22-2.65,5.11-.63,1.89-1.02,4.02-1.16,6.39-.02.33-.03.66-.03,1.01v1.04c0,2.77.29,5.23.87,7.4.58,2.17,1.45,4.09,2.63,5.77,1.18,1.68,2.68,3.18,4.52,4.5,1.77,1.24,3.74,2.25,5.9,3.03,2.16.78,4.54,1.36,7.17,1.72,2.62.36,5.52.54,8.7.54s6.07-.18,8.68-.54c2.61-.36,5-.93,7.17-1.72,2.17-.78,4.13-1.8,5.88-3.03,1.67-1.24,3.07-2.6,4.21-4.1,1.14-1.5,2.02-3.19,2.65-5.08.63-1.89,1.01-4.03,1.13-6.42.02-.35.04-.69.05-1.02,0-.33.02-.68.02-1.05,0-2.74-.29-5.2-.87-7.37ZM496.61,50.05c-.43,1.96-1.12,3.67-2.07,5.14-.95,1.46-2.23,2.74-3.84,3.84-1.49,1.01-3.13,1.82-4.94,2.43-1.81.61-3.82,1.05-6.05,1.33-2.23.28-4.77.42-7.61.42s-5.39-.14-7.61-.43c-2.23-.29-4.25-.74-6.07-1.35-1.82-.61-3.46-1.41-4.92-2.4-1.96-1.32-3.45-2.93-4.46-4.83-1.01-1.9-1.62-4.19-1.83-6.87-.06-.43-.1-.88-.11-1.33-.01-.45-.02-.94-.02-1.45,0-1.53.08-2.93.25-4.21.35-2.27,1.02-4.24,2.01-5.91.99-1.67,2.37-3.11,4.15-4.3,1.46-1.01,3.1-1.83,4.92-2.45,1.82-.62,3.84-1.07,6.07-1.36,2.23-.29,4.77-.43,7.61-.43s5.39.14,7.61.43c2.23.29,4.24.74,6.05,1.36,1.81.62,3.45,1.44,4.94,2.45,1.86,1.26,3.29,2.78,4.29,4.55,1,1.77,1.65,3.91,1.93,6.41.14,1.05.22,2.21.22,3.47,0,2.02-.18,3.86-.53,5.51Z"/><path class="cls-1" d="M353.48,48.35h26.34c-.19,2-.68,3.81-1.49,5.42-.49,1.05-1.14,2.03-1.93,2.92-.79.9-1.7,1.71-2.71,2.43-1.42.99-3.04,1.79-4.83,2.4-1.79.61-3.79,1.05-5.99,1.33-2.2.28-4.7.42-7.51.42s-5.37-.14-7.57-.43c-2.2-.29-4.18-.73-5.96-1.32-1.78-.59-3.37-1.39-4.8-2.4-1.63-1.13-2.91-2.43-3.85-3.88-.94-1.45-1.64-3.13-2.09-5.03-.33-1.65-.5-3.55-.5-5.7,0-.72.03-1.43.08-2.13.05-.7.11-1.36.17-1.98.35-2.31,1.02-4.31,1.99-5.99.98-1.68,2.38-3.15,4.19-4.41,1.42-.99,3.03-1.78,4.81-2.38,1.78-.6,3.78-1.04,5.97-1.32,2.2-.28,4.71-.42,7.54-.42,3.61,0,6.75.24,9.43.73,2.67.49,4.98,1.26,6.92,2.34.85.41,1.67.92,2.46,1.52.79.6,1.51,1.27,2.15,2.01.58.68,1.09,1.43,1.52,2.26l3.9-2.01c-.64-1.2-1.42-2.31-2.35-3.34-.93-1.03-1.95-1.95-3.06-2.75-2.33-1.65-5.26-2.9-8.79-3.74-3.53-.85-7.58-1.27-12.17-1.27-3.16,0-6.03.18-8.62.54-2.59.36-4.95.93-7.09,1.7-2.13.77-4.05,1.77-5.74,2.99-1.88,1.34-3.41,2.86-4.6,4.55-1.19,1.69-2.06,3.62-2.63,5.77-.57,2.16-.85,4.62-.85,7.38s.28,5.16.83,7.3c.56,2.15,1.42,4.09,2.58,5.82,1.17,1.73,2.71,3.27,4.63,4.61,1.71,1.24,3.64,2.24,5.77,3.02,2.14.77,4.5,1.34,7.09,1.7,2.59.36,5.46.54,8.62.54s6.03-.18,8.62-.54c2.59-.36,4.96-.93,7.1-1.72,2.14-.78,4.07-1.8,5.79-3.03,1.84-1.34,3.33-2.86,4.49-4.57,1.15-1.7,2.02-3.67,2.58-5.9.57-2.23.85-4.8.85-7.71h-31.32v4.27Z"/><path class="cls-1" d="M147.47,22.29h-7.83l-15.1,44.57h7.43l3.12-10.09h16.93l3.12,10.09h7.43l-15.11-44.57ZM137.07,50.36l6.48-20.93,6.48,20.93h-12.97Z"/></svg>
