<?xml version="1.0" encoding="UTF-8"?>
<svg id="Layer_2" data-name="Layer 2" xmlns="http://www.w3.org/2000/svg" viewBox="0 0 217.5 194.29">
  <defs>
    <style>
      .cls-1 {
        fill: #fff;
      }

      .cls-2 {
        fill: #fcb017;
      }
    </style>
  </defs>
  <g id="Final_Neu" data-name="Final Neu">
    <path class="cls-2" d="M148.42,66.75h-10.01c-4.77,0-8.83,3.44-9.63,8.14l-18.94,111.65c-.69,4.05,2.44,7.75,6.55,7.75h24.45c4.38,0,8.12-3.15,8.88-7.46l19.57-112.37c.7-4.02-2.4-7.71-6.48-7.71h-14.39Z"/>
    <path class="cls-1" d="M191.84,0H8.86C3.97,0,0,3.97,0,8.86v36.51c0,4.9,3.97,8.86,8.86,8.86h40.17l-28.24,139.39,25.69.66c10.94.28,20.5-7.34,22.67-18.07l24.67-121.98h98c14.17,0,25.66-11.49,25.66-25.66v-2.91c0-14.17-11.49-25.66-25.66-25.66Z"/>
    <circle class="cls-2" cx="154.65" cy="27.12" r="15.94"/>
  </g>
</svg>